<svg width="607" height="309" viewBox="0 0 607 309" fill="none" xmlns="http://www.w3.org/2000/svg">
<rect x="-6.10352e-05" width="607" height="309" fill="#CEE1E6"/>
<rect width="47.6706" height="43.6501" transform="matrix(1 0 0 -1 365.195 167.079)" fill="#8C86D3"/>
<rect width="47.6706" height="43.6501" transform="matrix(1 0 0 -1 79.7464 98.1574)" fill="#D3A632"/>
<rect width="47.6706" height="43.6501" transform="matrix(1 0 0 -1 307.761 236)" fill="#8C2525"/>
<path d="M107.804 87.2066C103.567 87.2066 100.446 86.0717 98.4412 83.8018C96.4361 81.5319 95.4336 78.4297 95.4336 74.4953C95.4336 70.523 96.5307 67.4208 98.7249 65.1887C100.919 62.9188 103.908 61.7839 107.691 61.7839C109.053 61.7839 110.32 61.9163 111.493 62.1811C112.704 62.4081 113.82 62.7864 114.841 63.3161L113.422 66.2102C112.552 65.794 111.625 65.4914 110.642 65.3022C109.696 65.0752 108.694 64.9617 107.634 64.9617C105.137 64.9617 103.17 65.794 101.733 67.4586C100.295 69.1232 99.5761 71.4877 99.5761 74.552C99.5761 80.8699 102.357 84.0288 107.918 84.0288C109.053 84.0288 110.112 83.9531 111.096 83.8018C112.117 83.6505 113.044 83.4235 113.876 83.1209V86.2987C113.044 86.5635 112.117 86.7905 111.096 86.9797C110.112 87.131 109.015 87.2066 107.804 87.2066ZM84.1409 96.6834V52.6476H128.177V96.6834H84.1409ZM87.262 93.5623H125.056V55.7687H87.262V93.5623ZM151.613 86.6959L161.431 62.3514H164.665L174.369 86.6959H170.51L167.559 79.3188H158.366L155.472 86.6959H151.613ZM159.615 76.2544H166.481L163.927 69.3313C163.814 68.953 163.7 68.5746 163.587 68.1963C163.474 67.818 163.379 67.4397 163.303 67.0614C163.228 66.6831 163.171 66.3048 163.133 65.9264H162.906C162.906 66.2669 162.868 66.6263 162.793 67.0046C162.755 67.3451 162.679 67.7234 162.566 68.1396C162.49 68.5179 162.357 68.9151 162.168 69.3313L159.615 76.2544ZM140.888 96.6834V52.6476H184.924V96.6834H140.888ZM144.009 93.5623H181.803V55.7687H144.009V93.5623ZM213.184 86.6959V62.3514H219.994C223.172 62.3514 225.555 62.9756 227.144 64.224C228.733 65.4346 229.527 67.2695 229.527 69.7285C229.527 71.4309 229.149 72.8685 228.392 74.0413C227.636 75.1762 226.501 76.0464 224.987 76.6517C223.512 77.2191 221.639 77.5029 219.37 77.5029H217.1V86.6959H213.184ZM217.1 74.4385H219.029C220.656 74.4385 221.923 74.2872 222.831 73.9846C223.739 73.6441 224.382 73.1333 224.76 72.4524C225.177 71.7714 225.385 70.9013 225.385 69.842C225.385 68.4044 224.912 67.3262 223.966 66.6074C223.02 65.8508 221.602 65.4725 219.71 65.4725H217.1V74.4385ZM197.635 96.6834V52.6476H241.671V96.6834H197.635ZM200.756 93.5623H238.55V55.7687H200.756V93.5623ZM276.003 87.1499C274.641 87.1499 273.355 87.0364 272.144 86.8094C270.934 86.5824 269.78 86.2419 268.683 85.788V82.2129C269.931 82.7804 271.18 83.2154 272.428 83.5181C273.677 83.7829 274.906 83.9153 276.117 83.9153C277.781 83.9153 279.03 83.6127 279.862 83.0074C280.694 82.4021 281.11 81.513 281.11 80.3402C281.11 79.4323 280.77 78.6757 280.089 78.0703C279.408 77.4272 278.538 76.8787 277.479 76.4247C276.457 75.9329 275.398 75.46 274.301 75.006C272.674 74.2872 271.407 73.3792 270.499 72.2821C269.591 71.1472 269.137 69.7474 269.137 68.0828C269.137 66.1913 269.875 64.6591 271.35 63.4863C272.825 62.2757 274.83 61.6704 277.365 61.6704C278.614 61.6704 279.843 61.8028 281.054 62.0676C282.302 62.2946 283.513 62.654 284.686 63.1458L283.551 66.1534C282.605 65.7373 281.64 65.4157 280.656 65.1887C279.711 64.9617 278.708 64.8482 277.649 64.8482C276.211 64.8482 275.114 65.1131 274.358 65.6427C273.639 66.1724 273.279 66.9857 273.279 68.0828C273.279 68.9151 273.469 69.5961 273.847 70.1257C274.225 70.6554 274.83 71.1472 275.663 71.6012C276.533 72.0173 277.668 72.528 279.068 73.1333C281.186 74.0035 282.737 74.9871 283.721 76.0842C284.742 77.1435 285.253 78.4676 285.253 80.0565C285.253 81.5319 284.875 82.7993 284.118 83.8586C283.361 84.9178 282.283 85.7312 280.883 86.2987C279.522 86.8662 277.895 87.1499 276.003 87.1499ZM254.383 96.6834V52.6476H298.418V96.6834H254.383ZM257.504 93.5623H295.297V55.7687H257.504V93.5623ZM333.148 87.2066C329.894 87.2066 327.435 86.45 325.771 84.9368C324.144 83.3857 323.33 81.0969 323.33 78.0703V62.3514H327.246V78.1838C327.246 80.1132 327.738 81.5698 328.721 82.5534C329.705 83.4992 331.18 83.9721 333.148 83.9721C335.191 83.9721 336.666 83.4424 337.574 82.3831C338.52 81.3239 338.993 79.9241 338.993 78.1838V62.3514H342.908V78.1838C342.908 81.1725 342.095 83.4235 340.468 84.9368C338.841 86.45 336.401 87.2066 333.148 87.2066ZM311.13 96.6834V52.6476H355.166V96.6834H311.13ZM314.251 93.5623H352.044V55.7687H314.251V93.5623ZM384.334 86.6392V62.3514H388.249V83.4046H398.804V86.6392H384.334ZM367.877 96.6834V52.6476H411.913V96.6834H367.877ZM370.998 93.5623H408.792V55.7687H370.998V93.5623ZM439.719 86.6959V62.3514H454.133V65.4725H443.634V72.4524H453.565V75.46H443.634V83.5748H454.133V86.6959H439.719ZM424.624 96.6834V52.6476H468.66V96.6834H424.624ZM427.745 93.5623H465.539V55.7687H427.745V93.5623ZM502.992 87.1499C501.63 87.1499 500.344 87.0364 499.133 86.8094C497.923 86.5824 496.769 86.2419 495.672 85.788V82.2129C496.92 82.7804 498.169 83.2154 499.417 83.5181C500.665 83.7829 501.895 83.9153 503.106 83.9153C504.77 83.9153 506.019 83.6127 506.851 83.0074C507.683 82.4021 508.099 81.513 508.099 80.3402C508.099 79.4323 507.759 78.6757 507.078 78.0703C506.397 77.4272 505.527 76.8787 504.467 76.4247C503.446 75.9329 502.387 75.46 501.29 75.006C499.663 74.2872 498.396 73.3792 497.488 72.2821C496.58 71.1472 496.126 69.7474 496.126 68.0828C496.126 66.1913 496.863 64.6591 498.339 63.4863C499.814 62.2757 501.819 61.6704 504.354 61.6704C505.602 61.6704 506.832 61.8028 508.043 62.0676C509.291 62.2946 510.502 62.654 511.674 63.1458L510.539 66.1534C509.594 65.7373 508.629 65.4157 507.645 65.1887C506.7 64.9617 505.697 64.8482 504.638 64.8482C503.2 64.8482 502.103 65.1131 501.346 65.6427C500.628 66.1724 500.268 66.9857 500.268 68.0828C500.268 68.9151 500.457 69.5961 500.836 70.1257C501.214 70.6554 501.819 71.1472 502.652 71.6012C503.522 72.0173 504.657 72.528 506.056 73.1333C508.175 74.0035 509.726 74.9871 510.71 76.0842C511.731 77.1435 512.242 78.4676 512.242 80.0565C512.242 81.5319 511.864 82.7993 511.107 83.8586C510.35 84.9178 509.272 85.7312 507.872 86.2987C506.51 86.8662 504.884 87.1499 502.992 87.1499ZM481.371 96.6834V52.6476H525.407V96.6834H481.371ZM484.492 93.5623H522.286V55.7687H484.492V93.5623ZM221.299 155.207C217.062 155.207 213.941 154.072 211.936 151.802C209.931 149.532 208.928 146.43 208.928 142.495C208.928 138.523 210.025 135.421 212.219 133.189C214.414 130.919 217.402 129.784 221.185 129.784C222.547 129.784 223.815 129.916 224.987 130.181C226.198 130.408 227.314 130.786 228.336 131.316L226.917 134.21C226.047 133.794 225.12 133.491 224.136 133.302C223.19 133.075 222.188 132.962 221.129 132.962C218.632 132.962 216.665 133.794 215.227 135.459C213.789 137.123 213.071 139.488 213.071 142.552C213.071 148.87 215.851 152.029 221.412 152.029C222.547 152.029 223.607 151.953 224.59 151.802C225.612 151.65 226.539 151.424 227.371 151.121V154.299C226.539 154.564 225.612 154.791 224.59 154.98C223.607 155.131 222.51 155.207 221.299 155.207ZM197.635 164.683V120.648H241.671V164.683H197.635ZM200.756 161.562H238.55V123.769H200.756V161.562ZM276.4 155.207C273.147 155.207 270.688 154.45 269.023 152.937C267.397 151.386 266.583 149.097 266.583 146.07V130.351H270.499V146.184C270.499 148.113 270.991 149.57 271.974 150.553C272.958 151.499 274.433 151.972 276.4 151.972C278.443 151.972 279.919 151.442 280.827 150.383C281.773 149.324 282.245 147.924 282.245 146.184V130.351H286.161V146.184C286.161 149.173 285.348 151.424 283.721 152.937C282.094 154.45 279.654 155.207 276.4 155.207ZM254.383 164.683V120.648H298.418V164.683H254.383ZM257.504 161.562H295.297V123.769H257.504V161.562ZM324.636 154.696V130.351H331.899C334.131 130.351 335.928 130.597 337.29 131.089C338.69 131.581 339.711 132.356 340.355 133.416C340.998 134.437 341.319 135.761 341.319 137.388C341.319 138.901 340.884 140.188 340.014 141.247C339.182 142.268 337.933 143.101 336.269 143.744L343.135 154.696H338.595L332.75 144.765H328.551V154.696H324.636ZM328.551 141.758H331.899C333.677 141.758 335.001 141.398 335.872 140.679C336.779 139.961 337.233 138.901 337.233 137.502C337.233 135.913 336.742 134.853 335.758 134.324C334.812 133.756 333.45 133.472 331.672 133.472H328.551V141.758ZM311.13 164.683V120.648H355.166V164.683H311.13ZM314.251 161.562H352.044V123.769H314.251V161.562ZM382.972 154.696V130.351H397.385V133.472H386.887V140.452H396.818V143.46H386.887V151.575H397.385V154.696H382.972ZM367.877 164.683V120.648H411.913V164.683H367.877ZM370.998 161.562H408.792V123.769H370.998V161.562ZM36.9272 222.639V198.351H42.2047L48.9009 215.603C49.0901 216.094 49.2225 216.586 49.2981 217.078C49.3738 217.57 49.4305 218.062 49.4684 218.553H49.1846C49.2981 218.062 49.3927 217.57 49.4684 217.078C49.544 216.586 49.6765 216.094 49.8656 215.603L56.6753 198.351H61.896V222.639H57.9805V208.169C57.9805 206.504 57.9805 205.123 57.9805 204.026C57.9805 202.891 57.9994 202.04 58.0372 201.472L58.6614 200.735L50.8303 222.639H47.7092L39.5376 200.735L40.1051 201.245C40.2942 202.191 40.4267 203.251 40.5023 204.423C40.578 205.558 40.6158 206.788 40.6158 208.112V222.639H36.9272ZM27.3937 232.683V188.648H71.4295V232.683H27.3937ZM30.5148 229.562H68.3085V191.769H30.5148V229.562ZM99.2357 222.696V198.351H113.649V201.472H103.151V208.452H113.082V211.46H103.151V219.575H113.649V222.696H99.2357ZM84.1409 232.683V188.648H128.177V232.683H84.1409ZM87.262 229.562H125.056V191.769H87.262V229.562ZM160.92 222.639V201.643H153.316V198.351H172.496V201.643H164.892V222.639H160.92ZM140.888 232.683V188.648H184.924V232.683H140.888ZM144.009 229.562H181.803V191.769H144.009V229.562ZM211.141 222.696V198.351H218.405C220.637 198.351 222.434 198.597 223.796 199.089C225.196 199.581 226.217 200.356 226.86 201.416C227.503 202.437 227.825 203.761 227.825 205.388C227.825 206.901 227.39 208.188 226.52 209.247C225.687 210.268 224.439 211.101 222.774 211.744L229.641 222.696H225.101L219.256 212.765H215.057V222.696H211.141ZM215.057 209.758H218.405C220.183 209.758 221.507 209.398 222.377 208.679C223.285 207.961 223.739 206.901 223.739 205.502C223.739 203.913 223.247 202.853 222.264 202.324C221.318 201.756 219.956 201.472 218.178 201.472H215.057V209.758ZM197.635 232.683V188.648H241.671V232.683H197.635ZM200.756 229.562H238.55V191.769H200.756V229.562ZM276.344 223.263C272.598 223.263 269.704 222.147 267.661 219.915C265.656 217.645 264.654 214.486 264.654 210.439C264.654 206.353 265.675 203.213 267.718 201.018C269.761 198.786 272.655 197.67 276.4 197.67C278.822 197.67 280.883 198.181 282.586 199.203C284.326 200.224 285.669 201.681 286.615 203.572C287.561 205.464 288.034 207.752 288.034 210.439C288.034 213.087 287.58 215.376 286.672 217.305C285.764 219.234 284.44 220.71 282.699 221.731C280.959 222.753 278.841 223.263 276.344 223.263ZM276.344 220.199C278.689 220.199 280.543 219.367 281.905 217.702C283.267 216 283.948 213.579 283.948 210.439C283.948 207.601 283.343 205.275 282.132 203.459C280.921 201.643 279.011 200.735 276.4 200.735C273.79 200.735 271.861 201.643 270.612 203.459C269.402 205.275 268.796 207.601 268.796 210.439C268.796 213.314 269.421 215.659 270.669 217.475C271.917 219.291 273.809 220.199 276.344 220.199ZM254.383 232.683V188.648H298.418V232.683H254.383ZM257.504 229.562H295.297V191.769H257.504V229.562ZM326.678 222.696V198.351H333.488C336.666 198.351 339.049 198.976 340.638 200.224C342.227 201.435 343.022 203.269 343.022 205.729C343.022 207.431 342.643 208.869 341.887 210.041C341.13 211.176 339.995 212.046 338.482 212.652C337.006 213.219 335.134 213.503 332.864 213.503H330.594V222.696H326.678ZM330.594 210.439H332.523C334.15 210.439 335.418 210.287 336.325 209.985C337.233 209.644 337.877 209.133 338.255 208.452C338.671 207.771 338.879 206.901 338.879 205.842C338.879 204.404 338.406 203.326 337.46 202.607C336.515 201.851 335.096 201.472 333.204 201.472H330.594V210.439ZM311.13 232.683V188.648H355.166V232.683H311.13ZM314.251 229.562H352.044V191.769H314.251V229.562ZM389.838 223.263C386.093 223.263 383.199 222.147 381.156 219.915C379.151 217.645 378.148 214.486 378.148 210.439C378.148 206.353 379.17 203.213 381.213 201.018C383.255 198.786 386.15 197.67 389.895 197.67C392.316 197.67 394.378 198.181 396.08 199.203C397.821 200.224 399.164 201.681 400.109 203.572C401.055 205.464 401.528 207.752 401.528 210.439C401.528 213.087 401.074 215.376 400.166 217.305C399.258 219.234 397.934 220.71 396.194 221.731C394.454 222.753 392.335 223.263 389.838 223.263ZM389.838 220.199C392.184 220.199 394.037 219.367 395.399 217.702C396.761 216 397.442 213.579 397.442 210.439C397.442 207.601 396.837 205.275 395.626 203.459C394.416 201.643 392.505 200.735 389.895 200.735C387.285 200.735 385.355 201.643 384.107 203.459C382.896 205.275 382.291 207.601 382.291 210.439C382.291 213.314 382.915 215.659 384.163 217.475C385.412 219.291 387.303 220.199 389.838 220.199ZM367.877 232.683V188.648H411.913V232.683H367.877ZM370.998 229.562H408.792V191.769H370.998V229.562ZM441.081 222.639V198.351H444.996V219.405H455.551V222.639H441.081ZM424.624 232.683V188.648H468.66V232.683H424.624ZM427.745 229.562H465.539V191.769H427.745V229.562ZM498.396 222.639V220.313L501.403 219.688V201.359L498.396 200.621V198.351H508.44V200.621L505.375 201.359V219.688L508.44 220.313V222.639H498.396ZM481.371 232.683V188.648H525.407V232.683H481.371ZM484.492 229.562H522.286V191.769H484.492V229.562ZM559.739 223.15C558.377 223.15 557.091 223.036 555.88 222.809C554.67 222.582 553.516 222.242 552.419 221.788V218.213C553.667 218.78 554.916 219.215 556.164 219.518C557.413 219.783 558.642 219.915 559.853 219.915C561.517 219.915 562.766 219.613 563.598 219.007C564.43 218.402 564.847 217.513 564.847 216.34C564.847 215.432 564.506 214.676 563.825 214.07C563.144 213.427 562.274 212.879 561.215 212.425C560.193 211.933 559.134 211.46 558.037 211.006C556.41 210.287 555.143 209.379 554.235 208.282C553.327 207.147 552.873 205.747 552.873 204.083C552.873 202.191 553.611 200.659 555.086 199.486C556.561 198.276 558.566 197.67 561.101 197.67C562.35 197.67 563.579 197.803 564.79 198.068C566.038 198.295 567.249 198.654 568.422 199.146L567.287 202.153C566.341 201.737 565.376 201.416 564.393 201.189C563.447 200.962 562.444 200.848 561.385 200.848C559.947 200.848 558.85 201.113 558.094 201.643C557.375 202.172 557.015 202.986 557.015 204.083C557.015 204.915 557.205 205.596 557.583 206.126C557.961 206.655 558.566 207.147 559.399 207.601C560.269 208.017 561.404 208.528 562.804 209.133C564.922 210.003 566.473 210.987 567.457 212.084C568.478 213.143 568.989 214.468 568.989 216.057C568.989 217.532 568.611 218.799 567.854 219.859C567.097 220.918 566.019 221.731 564.62 222.299C563.258 222.866 561.631 223.15 559.739 223.15ZM538.119 232.683V188.648H582.154V232.683H538.119ZM541.24 229.562H579.033V191.769H541.24V229.562Z" fill="#142E29"/>
<rect x="535" y="159.341" width="5.69692" height="7.37171" fill="#142E29"/>
<rect x="542.596" y="159.341" width="5.69692" height="7.37171" fill="#142E29"/>
<rect x="550.191" y="159.341" width="5.69692" height="7.37171" fill="#142E29"/>
<rect x="542.596" y="168.187" width="5.69692" height="7.37171" fill="#142E29"/>
<rect x="542.596" y="177.033" width="5.69692" height="7.37171" fill="#142E29"/>
<rect x="557.787" y="159.341" width="5.69692" height="7.37171" fill="#142E29"/>
<rect x="565.383" y="159.341" width="5.69692" height="7.37171" fill="#142E29"/>
<rect x="565.383" y="168.187" width="5.69692" height="7.37171" fill="#142E29"/>
<rect x="565.383" y="177.033" width="5.69692" height="7.37171" fill="#142E29"/>
<rect x="565.383" y="150.495" width="5.69692" height="7.37171" fill="#142E29"/>
<rect x="557.787" y="150.495" width="5.69692" height="7.37171" fill="#8C2525"/>
<rect x="557.787" y="168.187" width="5.69692" height="7.37171" fill="#06041E"/>
<rect x="557.787" y="177.033" width="5.69692" height="7.37171" fill="#06041E"/>
<rect x="550.191" y="177.033" width="5.69692" height="7.37171" fill="#06041E"/>
<rect x="557.787" y="141.649" width="5.69692" height="7.37171" fill="#142E29"/>
<rect x="553.989" y="132.803" width="5.69692" height="7.37171" fill="#142E29"/>
<rect x="550.191" y="150.495" width="5.69692" height="7.37171" fill="#142E29"/>
<rect x="550.191" y="168.187" width="5.69692" height="7.37171" fill="#142E29"/>
<rect x="542.596" y="150.495" width="5.69692" height="7.37171" fill="#142E29"/>
<rect x="550.191" y="141.649" width="5.69692" height="7.37171" fill="#D3A632"/>
<rect x="572.979" y="159.341" width="5.69692" height="7.37171" fill="#142E29"/>
<rect x="585" y="158.182" width="0.84317" height="46.3744" transform="rotate(90 585 158.182)" fill="#8C2525"/>
<rect x="556.501" y="114" width="0.84317" height="56.8297" fill="#8C2525"/>
</svg>
