<svg width="1809" height="589" viewBox="0 0 1809 589" fill="none" xmlns="http://www.w3.org/2000/svg">
<rect width="142.528" height="130.507" transform="matrix(1 0 0 -1 1095.57 382.936)" fill="#8C86D3"/>
<rect width="142.528" height="130.507" transform="matrix(1 0 0 -1 242.125 176.872)" fill="#D3A632"/>
<rect width="142.528" height="130.507" transform="matrix(1 0 0 -1 923.854 589)" fill="#8C2525"/>
<path d="M308.066 144.646C295.244 144.646 285.8 141.212 279.732 134.343C273.665 127.474 270.631 118.087 270.631 106.181C270.631 94.1603 273.951 84.773 280.591 78.0187C287.231 71.1499 296.274 67.7154 307.722 67.7154C311.844 67.7154 315.679 68.1161 319.228 68.9175C322.891 69.6044 326.268 70.7492 329.359 72.3519L325.066 81.1096C322.433 79.8503 319.628 78.9345 316.652 78.3621C313.79 77.6752 310.756 77.3318 307.551 77.3318C299.995 77.3318 294.042 79.8503 289.692 84.8875C285.342 89.9246 283.166 97.0796 283.166 106.352C283.166 125.471 291.581 135.03 308.409 135.03C311.844 135.03 315.049 134.801 318.026 134.343C321.117 133.885 323.921 133.198 326.44 132.282V141.899C323.921 142.7 321.117 143.387 318.026 143.959C315.049 144.417 311.729 144.646 308.066 144.646ZM236.459 173.323V40.0685H369.713V173.323H236.459ZM245.903 163.879H360.269V49.5131H245.903V163.879ZM440.634 143.101L470.341 69.4327H480.129L509.494 143.101H497.817L488.887 120.777H461.068L452.311 143.101H440.634ZM464.846 111.504H485.624L477.897 90.5542C477.554 89.4094 477.21 88.2646 476.867 87.1198C476.523 85.975 476.237 84.8302 476.008 83.6854C475.779 82.5406 475.607 81.3958 475.493 80.251H474.806C474.806 81.2813 474.692 82.3689 474.463 83.5137C474.348 84.544 474.119 85.6888 473.776 86.9481C473.547 88.0929 473.146 89.2949 472.574 90.5542L464.846 111.504ZM408.179 173.323V40.0685H541.434V173.323H408.179ZM417.623 163.879H531.989V49.5131H417.623V163.879ZM626.95 143.101V69.4327H647.557C657.173 69.4327 664.385 71.3216 669.193 75.0994C674.001 78.7628 676.405 84.3151 676.405 91.7563C676.405 96.9079 675.261 101.258 672.971 104.807C670.681 108.241 667.247 110.874 662.668 112.706C658.203 114.423 652.536 115.282 645.668 115.282H638.799V143.101H626.95ZM638.799 106.009H644.637C649.56 106.009 653.395 105.551 656.143 104.635C658.89 103.605 660.836 102.059 661.981 99.9988C663.24 97.9382 663.87 95.3051 663.87 92.0997C663.87 87.7495 662.439 84.4868 659.577 82.3117C656.715 80.0221 652.422 78.8773 646.698 78.8773H638.799V106.009ZM579.899 173.323V40.0685H713.154V173.323H579.899ZM589.343 163.879H703.709V49.5131H589.343V163.879ZM817.044 144.474C812.923 144.474 809.031 144.131 805.367 143.444C801.704 142.757 798.212 141.727 794.892 140.353V129.535C798.67 131.252 802.448 132.568 806.226 133.484C810.004 134.286 813.724 134.686 817.388 134.686C822.425 134.686 826.203 133.77 828.721 131.939C831.24 130.107 832.499 127.417 832.499 123.868C832.499 121.12 831.469 118.831 829.408 116.999C827.348 115.053 824.714 113.393 821.509 112.019C818.418 110.531 815.213 109.1 811.893 107.726C806.97 105.551 803.135 102.804 800.387 99.4837C797.64 96.0493 796.266 91.8135 796.266 86.7764C796.266 81.0524 798.499 76.4159 802.963 72.8671C807.428 69.2037 813.495 67.372 821.166 67.372C824.943 67.372 828.664 67.7727 832.327 68.574C836.105 69.2609 839.769 70.3485 843.317 71.8367L839.883 80.9379C837.021 79.6786 834.102 78.7055 831.125 78.0187C828.263 77.3318 825.23 76.9883 822.024 76.9883C817.674 76.9883 814.354 77.7897 812.064 79.3924C809.889 80.9951 808.802 83.4565 808.802 86.7764C808.802 89.2949 809.374 91.3556 810.519 92.9583C811.664 94.561 813.495 96.0493 816.014 97.423C818.647 98.6823 822.081 100.228 826.317 102.059C832.728 104.693 837.422 107.669 840.398 110.989C843.489 114.194 845.035 118.201 845.035 123.009C845.035 127.474 843.89 131.309 841.6 134.515C839.311 137.72 836.048 140.181 831.812 141.899C827.691 143.616 822.768 144.474 817.044 144.474ZM751.619 173.323V40.0685H884.874V173.323H751.619ZM761.064 163.879H875.429V49.5131H761.064V163.879ZM989.966 144.646C980.121 144.646 972.68 142.356 967.643 137.777C962.72 133.084 960.259 126.158 960.259 116.999V69.4327H972.108V117.343C972.108 123.181 973.596 127.589 976.572 130.565C979.549 133.427 984.013 134.858 989.966 134.858C996.148 134.858 1000.61 133.255 1003.36 130.05C1006.22 126.844 1007.65 122.609 1007.65 117.343V69.4327H1019.5V117.343C1019.5 126.386 1017.04 133.198 1012.12 137.777C1007.2 142.356 999.812 144.646 989.966 144.646ZM923.339 173.323V40.0685H1056.59V173.323H923.339ZM932.784 163.879H1047.15V49.5131H932.784V163.879ZM1144.86 142.929V69.4327H1156.71V133.141H1188.65V142.929H1144.86ZM1095.06 173.323V40.0685H1228.31V173.323H1095.06ZM1104.5 163.879H1218.87V49.5131H1104.5V163.879ZM1312.46 143.101V69.4327H1356.07V78.8773H1324.31V99.9988H1354.36V109.1H1324.31V133.656H1356.07V143.101H1312.46ZM1266.78 173.323V40.0685H1400.03V173.323H1266.78ZM1276.22 163.879H1390.59V49.5131H1276.22V163.879ZM1503.92 144.474C1499.8 144.474 1495.91 144.131 1492.25 143.444C1488.58 142.757 1485.09 141.727 1481.77 140.353V129.535C1485.55 131.252 1489.33 132.568 1493.11 133.484C1496.88 134.286 1500.6 134.686 1504.27 134.686C1509.31 134.686 1513.08 133.77 1515.6 131.939C1518.12 130.107 1519.38 127.417 1519.38 123.868C1519.38 121.12 1518.35 118.831 1516.29 116.999C1514.23 115.053 1511.59 113.393 1508.39 112.019C1505.3 110.531 1502.09 109.1 1498.77 107.726C1493.85 105.551 1490.02 102.804 1487.27 99.4837C1484.52 96.0493 1483.15 91.8135 1483.15 86.7764C1483.15 81.0524 1485.38 76.4159 1489.84 72.8671C1494.31 69.2037 1500.38 67.372 1508.05 67.372C1511.82 67.372 1515.54 67.7727 1519.21 68.574C1522.99 69.2609 1526.65 70.3485 1530.2 71.8367L1526.76 80.9379C1523.9 79.6786 1520.98 78.7055 1518.01 78.0187C1515.14 77.3318 1512.11 76.9883 1508.9 76.9883C1504.55 76.9883 1501.23 77.7897 1498.94 79.3924C1496.77 80.9951 1495.68 83.4565 1495.68 86.7764C1495.68 89.2949 1496.25 91.3556 1497.4 92.9583C1498.54 94.561 1500.38 96.0493 1502.89 97.423C1505.53 98.6823 1508.96 100.228 1513.2 102.059C1519.61 104.693 1524.3 107.669 1527.28 110.989C1530.37 114.194 1531.92 118.201 1531.92 123.009C1531.92 127.474 1530.77 131.309 1528.48 134.515C1526.19 137.72 1522.93 140.181 1518.69 141.899C1514.57 143.616 1509.65 144.474 1503.92 144.474ZM1438.5 173.323V40.0685H1571.75V173.323H1438.5ZM1447.94 163.879H1562.31V49.5131H1447.94V163.879ZM651.506 350.646C638.684 350.646 629.24 347.212 623.172 340.343C617.105 333.474 614.071 324.087 614.071 312.181C614.071 300.16 617.391 290.773 624.031 284.019C630.671 277.15 639.715 273.715 651.163 273.715C655.284 273.715 659.119 274.116 662.668 274.917C666.331 275.604 669.708 276.749 672.799 278.352L668.506 287.11C665.873 285.85 663.069 284.935 660.092 284.362C657.23 283.675 654.196 283.332 650.991 283.332C643.435 283.332 637.482 285.85 633.132 290.887C628.782 295.925 626.607 303.08 626.607 312.352C626.607 331.471 635.021 341.03 651.85 341.03C655.284 341.03 658.489 340.801 661.466 340.343C664.557 339.885 667.362 339.198 669.88 338.282V347.899C667.362 348.7 664.557 349.387 661.466 349.959C658.489 350.417 655.169 350.646 651.506 350.646ZM579.899 379.323V246.069H713.154V379.323H579.899ZM589.343 369.879H703.709V255.513H589.343V369.879ZM818.246 350.646C808.401 350.646 800.96 348.356 795.923 343.777C791 339.084 788.539 332.158 788.539 322.999V275.433H800.387V323.343C800.387 329.181 801.876 333.589 804.852 336.565C807.829 339.427 812.293 340.858 818.246 340.858C824.428 340.858 828.893 339.255 831.64 336.05C834.502 332.844 835.933 328.609 835.933 323.343V275.433H847.782V323.343C847.782 332.386 845.321 339.198 840.398 343.777C835.476 348.356 828.092 350.646 818.246 350.646ZM751.619 379.323V246.069H884.874V379.323H751.619ZM761.063 369.879H875.429V255.513H761.063V369.879ZM964.208 349.101V275.433H986.189C992.943 275.433 998.381 276.177 1002.5 277.665C1006.74 279.153 1009.83 281.5 1011.77 284.706C1013.72 287.796 1014.69 291.803 1014.69 296.726C1014.69 301.305 1013.38 305.197 1010.74 308.403C1008.23 311.494 1004.45 314.012 999.411 315.959L1020.19 349.101H1006.45L988.764 319.05H976.057V349.101H964.208ZM976.057 309.948H986.189C991.569 309.948 995.576 308.861 998.209 306.686C1000.96 304.511 1002.33 301.305 1002.33 297.069C1002.33 292.261 1000.84 289.056 997.866 287.453C995.004 285.736 990.882 284.877 985.502 284.877H976.057V309.948ZM923.339 379.323V246.069H1056.59V379.323H923.339ZM932.784 369.879H1047.15V255.513H932.784V369.879ZM1140.74 349.101V275.433H1184.35V284.877H1152.59V305.999H1182.64V315.1H1152.59V339.656H1184.35V349.101H1140.74ZM1095.06 379.323V246.069H1228.31V379.323H1095.06ZM1104.5 369.879H1218.87V255.513H1104.5V369.879ZM93.5875 554.929V481.433H109.557L129.82 533.636C130.393 535.124 130.794 536.612 131.022 538.1C131.251 539.589 131.423 541.077 131.538 542.565H130.679C131.022 541.077 131.309 539.589 131.538 538.1C131.767 536.612 132.167 535.124 132.74 533.636L153.346 481.433H169.144V554.929H157.296V511.14C157.296 506.103 157.296 501.925 157.296 498.605C157.296 495.17 157.353 492.594 157.467 490.877L159.356 488.645L135.659 554.929H126.214L101.487 488.645L103.204 490.19C103.776 493.052 104.177 496.258 104.406 499.807C104.635 503.241 104.749 506.962 104.749 510.969V554.929H93.5875ZM64.7385 585.323V452.069H197.993V585.323H64.7385ZM74.1831 575.879H188.549V461.513H74.1831V575.879ZM282.136 555.101V481.433H325.753V490.877H293.985V511.999H324.036V521.1H293.985V545.656H325.753V555.101H282.136ZM236.459 585.323V452.069H369.713V585.323H236.459ZM245.903 575.879H360.269V461.513H245.903V575.879ZM468.796 554.929V491.392H445.785V481.433H503.827V491.392H480.816V554.929H468.796ZM408.179 585.323V452.069H541.434V585.323H408.179ZM417.623 575.879H531.989V461.513H417.623V575.879ZM620.768 555.101V481.433H642.748C649.503 481.433 654.941 482.177 659.062 483.665C663.298 485.153 666.389 487.5 668.335 490.706C670.281 493.796 671.254 497.803 671.254 502.726C671.254 507.305 669.937 511.197 667.304 514.403C664.786 517.494 661.008 520.012 655.971 521.959L676.749 555.101H663.011L645.324 525.05H632.617V555.101H620.768ZM632.617 515.948H642.748C648.129 515.948 652.136 514.861 654.769 512.686C657.516 510.511 658.89 507.305 658.89 503.069C658.89 498.261 657.402 495.056 654.425 493.453C651.563 491.736 647.442 490.877 642.062 490.877H632.617V515.948ZM579.899 585.323V452.069H713.154V585.323H579.899ZM589.343 575.879H703.709V461.513H589.343V575.879ZM818.075 556.818C806.741 556.818 797.983 553.441 791.801 546.686C785.734 539.817 782.7 530.258 782.7 518.009C782.7 505.645 785.791 496.143 791.973 489.504C798.155 482.749 806.913 479.372 818.246 479.372C825.573 479.372 831.812 480.917 836.964 484.008C842.23 487.099 846.294 491.507 849.156 497.231C852.018 502.955 853.449 509.881 853.449 518.009C853.449 526.023 852.075 532.949 849.328 538.787C846.58 544.626 842.573 549.09 837.307 552.181C832.041 555.272 825.63 556.818 818.075 556.818ZM818.075 547.545C825.172 547.545 830.782 545.026 834.903 539.989C839.024 534.838 841.085 527.511 841.085 518.009C841.085 509.423 839.253 502.383 835.59 496.887C831.927 491.392 826.145 488.645 818.246 488.645C810.347 488.645 804.509 491.392 800.731 496.887C797.068 502.383 795.236 509.423 795.236 518.009C795.236 526.71 797.125 533.807 800.903 539.302C804.68 544.797 810.404 547.545 818.075 547.545ZM751.619 585.323V452.069H884.874V585.323H751.619ZM761.064 575.879H875.429V461.513H761.064V575.879ZM970.39 555.101V481.433H990.997C1000.61 481.433 1007.83 483.322 1012.63 487.099C1017.44 490.763 1019.85 496.315 1019.85 503.756C1019.85 508.908 1018.7 513.258 1016.41 516.807C1014.12 520.241 1010.69 522.874 1006.11 524.706C1001.64 526.423 995.977 527.282 989.108 527.282H982.239V555.101H970.39ZM982.239 518.009H988.078C993 518.009 996.835 517.551 999.583 516.635C1002.33 515.605 1004.28 514.059 1005.42 511.999C1006.68 509.938 1007.31 507.305 1007.31 504.1C1007.31 499.749 1005.88 496.487 1003.02 494.312C1000.16 492.022 995.862 490.877 990.138 490.877H982.239V518.009ZM923.339 585.323V452.069H1056.59V585.323H923.339ZM932.784 575.879H1047.15V461.513H932.784V575.879ZM1161.51 556.818C1150.18 556.818 1141.42 553.441 1135.24 546.686C1129.17 539.817 1126.14 530.258 1126.14 518.009C1126.14 505.645 1129.23 496.143 1135.41 489.504C1141.6 482.749 1150.35 479.372 1161.69 479.372C1169.01 479.372 1175.25 480.917 1180.4 484.008C1185.67 487.099 1189.73 491.507 1192.6 497.231C1195.46 502.955 1196.89 509.881 1196.89 518.009C1196.89 526.023 1195.52 532.949 1192.77 538.787C1190.02 544.626 1186.01 549.09 1180.75 552.181C1175.48 555.272 1169.07 556.818 1161.51 556.818ZM1161.51 547.545C1168.61 547.545 1174.22 545.026 1178.34 539.989C1182.46 534.838 1184.53 527.511 1184.53 518.009C1184.53 509.423 1182.69 502.383 1179.03 496.887C1175.37 491.392 1169.59 488.645 1161.69 488.645C1153.79 488.645 1147.95 491.392 1144.17 496.887C1140.51 502.383 1138.68 509.423 1138.68 518.009C1138.68 526.71 1140.57 533.807 1144.34 539.302C1148.12 544.797 1153.84 547.545 1161.51 547.545ZM1095.06 585.323V452.069H1228.31V585.323H1095.06ZM1104.5 575.879H1218.87V461.513H1104.5V575.879ZM1316.58 554.929V481.433H1328.43V545.141H1360.37V554.929H1316.58ZM1266.78 585.323V452.069H1400.03V585.323H1266.78ZM1276.22 575.879H1390.59V461.513H1276.22V575.879ZM1490.02 554.929V547.888L1499.12 545.999V490.534L1490.02 488.301V481.433H1520.41V488.301L1511.14 490.534V545.999L1520.41 547.888V554.929H1490.02ZM1438.5 585.323V452.069H1571.75V585.323H1438.5ZM1447.94 575.879H1562.31V461.513H1447.94V575.879ZM1675.64 556.474C1671.52 556.474 1667.63 556.131 1663.97 555.444C1660.3 554.757 1656.81 553.727 1653.49 552.353V541.535C1657.27 543.252 1661.05 544.568 1664.83 545.484C1668.6 546.286 1672.32 546.686 1675.99 546.686C1681.03 546.686 1684.8 545.77 1687.32 543.939C1689.84 542.107 1691.1 539.417 1691.1 535.868C1691.1 533.12 1690.07 530.831 1688.01 528.999C1685.95 527.053 1683.32 525.393 1680.11 524.019C1677.02 522.531 1673.81 521.1 1670.49 519.726C1665.57 517.551 1661.74 514.804 1658.99 511.484C1656.24 508.049 1654.87 503.814 1654.87 498.776C1654.87 493.052 1657.1 488.416 1661.56 484.867C1666.03 481.204 1672.1 479.372 1679.77 479.372C1683.54 479.372 1687.26 479.773 1690.93 480.574C1694.71 481.261 1698.37 482.348 1701.92 483.837L1698.48 492.938C1695.62 491.679 1692.7 490.706 1689.73 490.019C1686.86 489.332 1683.83 488.988 1680.62 488.988C1676.27 488.988 1672.95 489.79 1670.66 491.392C1668.49 492.995 1667.4 495.456 1667.4 498.776C1667.4 501.295 1667.97 503.356 1669.12 504.958C1670.26 506.561 1672.1 508.049 1674.61 509.423C1677.25 510.682 1680.68 512.228 1684.92 514.059C1691.33 516.693 1696.02 519.669 1699 522.989C1702.09 526.194 1703.64 530.201 1703.64 535.009C1703.64 539.474 1702.49 543.309 1700.2 546.515C1697.91 549.72 1694.65 552.181 1690.41 553.899C1686.29 555.616 1681.37 556.474 1675.64 556.474ZM1610.22 585.323V452.069H1743.47V585.323H1610.22ZM1619.66 575.879H1734.03V461.513H1619.66V575.879Z" fill="#142E29"/>
<rect x="1602.15" y="363.501" width="19.5655" height="25.3174" fill="#142E29"/>
<rect x="1628.24" y="363.501" width="19.5655" height="25.3174" fill="#142E29"/>
<rect x="1654.32" y="363.501" width="19.5655" height="25.3174" fill="#142E29"/>
<rect x="1628.24" y="393.882" width="19.5655" height="25.3174" fill="#142E29"/>
<rect x="1628.24" y="424.263" width="19.5655" height="25.3174" fill="#142E29"/>
<rect x="1680.41" y="363.501" width="19.5655" height="25.3174" fill="#142E29"/>
<rect x="1706.5" y="363.501" width="19.5655" height="25.3174" fill="#142E29"/>
<rect x="1706.5" y="393.882" width="19.5655" height="25.3174" fill="#142E29"/>
<rect x="1706.5" y="424.263" width="19.5655" height="25.3174" fill="#142E29"/>
<rect x="1706.5" y="333.12" width="19.5655" height="25.3174" fill="#142E29"/>
<rect x="1680.41" y="333.12" width="19.5655" height="25.3174" fill="#8C2525"/>
<rect x="1680.41" y="393.882" width="19.5655" height="25.3174" fill="#06041E"/>
<rect x="1680.41" y="424.263" width="19.5655" height="25.3174" fill="#06041E"/>
<rect x="1654.32" y="424.263" width="19.5655" height="25.3174" fill="#06041E"/>
<rect x="1680.41" y="302.739" width="19.5655" height="25.3174" fill="#142E29"/>
<rect x="1667.37" y="272.358" width="19.5655" height="25.3174" fill="#142E29"/>
<rect x="1654.32" y="333.12" width="19.5655" height="25.3174" fill="#142E29"/>
<rect x="1654.32" y="393.882" width="19.5655" height="25.3174" fill="#142E29"/>
<rect x="1628.24" y="333.12" width="19.5655" height="25.3174" fill="#142E29"/>
<rect x="1654.32" y="302.739" width="19.5655" height="25.3174" fill="#D3A632"/>
<rect x="1732.58" y="363.501" width="19.5655" height="25.3174" fill="#142E29"/>
<rect x="1773.87" y="359.521" width="2.89579" height="159.268" transform="rotate(90 1773.87 359.521)" fill="#8C2525"/>
<rect x="1675.99" y="207.782" width="2.89579" height="195.176" fill="#8C2525"/>
</svg>
