<svg width="482" height="250" viewBox="0 0 482 250" fill="none" xmlns="http://www.w3.org/2000/svg">
<rect width="481.061" height="250" fill="#D6BB5D"/>
<path d="M135.787 73.9133C135.586 76.9551 135.787 79.4463 136.427 81.2877L174.226 209.702C174.857 211.976 176.329 213.718 178.642 215.117C180.784 216.415 183.212 217.13 185.696 217.193H302.248C312.36 217.193 318.362 214.152 320.465 208.077C321.306 205.694 321.306 203.844 320.36 202.436C319.413 201.136 317.836 200.486 315.514 200.486H205.813C198.015 200.486 192.548 198.97 189.604 196.036C186.651 193.112 183.593 186.378 180.544 176.089L145.899 58.2982C144.006 51.8897 144.847 46.2574 148.221 41.3743C151.585 36.5002 156.431 34 162.643 34H258.762C259.814 34 262.031 34.4333 265.194 35.1914L265.089 34.7582C267.044 34.2541 269.059 34.0354 271.073 34.1083C272.692 34.1631 274.262 34.6888 275.603 35.6247C276.863 36.4674 277.999 37.4917 278.976 38.6665C279.818 39.7496 280.554 41.0494 281.395 42.7824C282.134 44.3033 282.801 45.8606 283.393 47.4489C283.975 48.9904 284.609 50.5107 285.294 52.007C286.03 53.6317 286.661 54.9315 287.397 56.0146C287.922 56.6735 288.658 57.6393 289.5 58.7224C290.341 59.8146 291.191 60.8977 291.822 61.7642C292.353 62.4777 292.745 63.2898 292.978 64.1561C293.188 64.9143 293.083 66.1058 292.768 67.6222C292.452 69.1385 292.347 70.2307 292.347 70.9889C292.663 74.2383 293.819 78.4715 295.817 83.5713C297.824 88.662 299.611 92.3536 301.188 94.5199C302.058 95.5379 302.97 96.5167 303.922 97.4534C305.403 98.9698 306.349 100.27 306.664 101.461C306.98 101.894 306.98 103.086 306.77 105.153C306.454 107.102 306.349 108.51 306.454 109.269C306.77 112.202 307.821 116.101 309.609 120.984C311.065 125.095 312.825 129.084 314.875 132.917C315.085 133.458 315.821 134.433 316.977 135.95C318.143 137.466 318.879 138.657 319.08 139.641C319.299 140.291 319.194 141.591 318.984 143.324C318.774 145.066 318.774 146.366 319.089 147.232C319.72 150.482 320.982 154.498 322.874 159.165C324.776 163.822 326.668 167.73 328.57 171.088C329.095 171.964 329.717 172.939 330.672 174.13C331.514 175.321 332.25 176.296 332.775 177.163C333.277 177.995 333.633 178.912 333.827 179.871C333.908 180.728 333.762 181.592 333.406 182.371C333.091 183.562 332.986 184.429 332.986 185.196C333.091 186.387 333.196 188.012 333.511 189.962C333.722 191.911 333.932 193.112 333.932 193.437C335.825 198.636 335.719 204.178 333.722 209.918C331.408 216.643 327.194 222.392 321.192 227.059C315.19 231.716 308.873 234 302.45 234H185.906C180.43 234 175.269 232.15 170.424 228.359C165.578 224.568 162.319 219.901 160.741 214.368L125.991 96.5778C124.099 90.2957 124.94 84.7537 128.313 79.7713C130.101 77.0635 132.519 75.2131 135.787 73.9133Z" fill="#8C2525"/>
<path d="M205.967 97.9297H200.678C200.582 97.2455 200.384 96.6378 200.087 96.1065C199.789 95.5672 199.406 95.1084 198.94 94.7301C198.473 94.3518 197.933 94.062 197.322 93.8608C196.718 93.6596 196.062 93.5589 195.354 93.5589C194.074 93.5589 192.959 93.8769 192.009 94.5128C191.059 95.1406 190.323 96.0582 189.8 97.2656C189.277 98.465 189.015 99.9219 189.015 101.636C189.015 103.399 189.277 104.88 189.8 106.08C190.331 107.279 191.071 108.184 192.021 108.796C192.971 109.408 194.07 109.714 195.317 109.714C196.018 109.714 196.666 109.621 197.261 109.436C197.865 109.251 198.4 108.981 198.867 108.627C199.334 108.265 199.72 107.826 200.026 107.311C200.34 106.796 200.558 106.208 200.678 105.548L205.967 105.572C205.83 106.707 205.488 107.802 204.94 108.857C204.401 109.903 203.673 110.841 202.755 111.67C201.845 112.491 200.759 113.143 199.495 113.626C198.239 114.101 196.819 114.338 195.233 114.338C193.027 114.338 191.055 113.839 189.317 112.841C187.586 111.843 186.218 110.398 185.212 108.506C184.214 106.615 183.714 104.325 183.714 101.636C183.714 98.9399 184.222 96.6458 185.236 94.7543C186.25 92.8627 187.626 91.4219 189.365 90.4318C191.104 89.4337 193.06 88.9347 195.233 88.9347C196.666 88.9347 197.994 89.1359 199.217 89.5384C200.449 89.9408 201.54 90.5284 202.489 91.3011C203.439 92.0658 204.212 93.0036 204.808 94.1143C205.411 95.2251 205.798 96.4969 205.967 97.9297ZM231.533 97.9297H226.245C226.148 97.2455 225.951 96.6378 225.653 96.1065C225.355 95.5672 224.973 95.1084 224.506 94.7301C224.039 94.3518 223.5 94.062 222.888 93.8608C222.284 93.6596 221.628 93.5589 220.92 93.5589C219.64 93.5589 218.525 93.8769 217.576 94.5128C216.626 95.1406 215.889 96.0582 215.366 97.2656C214.843 98.465 214.581 99.9219 214.581 101.636C214.581 103.399 214.843 104.88 215.366 106.08C215.897 107.279 216.638 108.184 217.588 108.796C218.538 109.408 219.636 109.714 220.884 109.714C221.584 109.714 222.232 109.621 222.828 109.436C223.431 109.251 223.967 108.981 224.434 108.627C224.9 108.265 225.287 107.826 225.593 107.311C225.907 106.796 226.124 106.208 226.245 105.548L231.533 105.572C231.396 106.707 231.054 107.802 230.507 108.857C229.967 109.903 229.239 110.841 228.321 111.67C227.412 112.491 226.325 113.143 225.061 113.626C223.806 114.101 222.385 114.338 220.799 114.338C218.594 114.338 216.622 113.839 214.883 112.841C213.153 111.843 211.784 110.398 210.778 108.506C209.78 106.615 209.281 104.325 209.281 101.636C209.281 98.9399 209.788 96.6458 210.802 94.7543C211.816 92.8627 213.193 91.4219 214.931 90.4318C216.67 89.4337 218.626 88.9347 220.799 88.9347C222.232 88.9347 223.56 89.1359 224.784 89.5384C226.015 89.9408 227.106 90.5284 228.056 91.3011C229.006 92.0658 229.778 93.0036 230.374 94.1143C230.978 95.2251 231.364 96.4969 231.533 97.9297ZM235.282 89.2727H241.729L248.539 105.886H248.829L255.638 89.2727H262.086V114H257.015V97.9055H256.81L250.411 113.879H246.957L240.558 97.8452H240.353V114H235.282V89.2727Z" fill="white"/>
</svg>
