<svg width="147" height="207" viewBox="0 0 147 207" fill="none" xmlns="http://www.w3.org/2000/svg">
<path d="M88 6.99999C88 11.4183 81.0081 16.5 73 16.5C64.9919 16.5 59 11.4183 59 6.99999C59 2.5817 64.9919 0 73 0C81.0081 0 88 2.5817 88 6.99999Z" fill="#C7D2D2"/>
<path d="M88 6.99999C88 11.4183 81.0081 16.5 73 16.5C64.9919 16.5 59 11.4183 59 6.99999C59 2.5817 64.9919 0 73 0C81.0081 0 88 2.5817 88 6.99999Z" stroke="black"/>
<rect x="71.274" y="15" width="4" height="103" fill="#C7D2D2"/>
<path d="M51.3291 142.858L59.8972 130.632L63.8629 133.351L55.3277 145.686L51.9466 146.752L51.3291 142.858Z" fill="#D3A632" stroke="black" stroke-width="0.5"/>
<path d="M93.782 92.501L83.4743 103.293L87.2542 106.985L97.6813 96.2099L97.9294 92.5179L93.782 92.501Z" fill="#D3A632" stroke="black" stroke-width="0.5"/>
<path d="M68.5055 152.263L68.5182 137.337L73.6682 137.285L73.7508 152.281L71.4378 155.113L68.5055 152.263Z" fill="#D3A632" stroke="black" stroke-width="0.5"/>
<path d="M61.065 91.365L64.4248 105.915L68.8889 104.93L65.5968 90.2924L62.9687 88.028L61.065 91.365Z" fill="#D3A632" stroke="black" stroke-width="0.5"/>
<path d="M89.3899 147.514L80.9356 135.212L85.0082 132.349L93.5787 144.657L93.3371 148.249L89.3899 147.514Z" fill="#D3A632" stroke="black" stroke-width="0.5"/>
<path d="M103.467 123.94L88.5465 123.824L88.5249 118.323L103.517 118.337L106.351 120.827L103.467 123.94Z" fill="#D3A632" stroke="black" stroke-width="0.5"/>
<path d="M39.5161 121.949L54.4492 121.852L54.4704 117.311L39.4665 117.323L36.6813 119.379L39.5161 121.949Z" fill="#D3A632" stroke="black" stroke-width="0.5"/>
<g filter="url(#filter0_d_3_132)">
<path d="M55.0002 120.621L55.0111 118.285L45.0215 118.281L43.0061 119.339L45.0492 120.657L55.0002 120.621Z" fill="#FFF500"/>
</g>
<g filter="url(#filter1_d_3_132)">
<path d="M62.011 134.446L59.9949 133L54.1971 141.135L53.9438 143.428L56.2705 142.575L62.011 134.446Z" fill="#FFF500"/>
</g>
<g filter="url(#filter2_d_3_132)">
<path d="M72.5746 136.011L70.0512 136L70.0402 145.99L71.1813 148.005L72.6071 145.962L72.5746 136.011Z" fill="#FFF500"/>
</g>
<g filter="url(#filter3_d_3_132)">
<path d="M84.0759 133.043L82 134.477L87.7058 142.677L89.7947 143.677L89.7952 141.186L84.0759 133.043Z" fill="#FFF500"/>
</g>
<g filter="url(#filter4_d_3_132)">
<path d="M90.0205 119.956L90.0028 122.229L99.9924 122.278L102.011 121.258L99.9714 119.966L90.0205 119.956Z" fill="#FFF500"/>
</g>
<g filter="url(#filter5_d_3_132)">
<path d="M85.0487 103.713L86.6903 105.285L93.5796 98.0512L94.2222 95.8829L91.8829 96.4799L85.0487 103.713Z" fill="#FFF500"/>
</g>
<g filter="url(#filter6_d_3_132)">
<path d="M64.7295 103.273L67.2442 102.703L65.0026 92.9677L63.412 91.2671L62.4533 93.5859L64.7295 103.273Z" fill="#FFF500"/>
</g>
<g filter="url(#filter7_d_3_132)">
<rect x="68" y="126" width="6" height="12" fill="#8C2525"/>
<rect x="68" y="126" width="6" height="12" stroke="black"/>
<rect x="64.7851" y="122" width="6" height="12" transform="rotate(34.4319 64.7851 122)" fill="#8C2525"/>
<rect x="64.7851" y="122" width="6" height="12" transform="rotate(34.4319 64.7851 122)" stroke="black"/>
<rect x="74" y="126.501" width="6" height="12" transform="rotate(-35.701 74 126.501)" fill="#8C2525"/>
<rect x="74" y="126.501" width="6" height="12" transform="rotate(-35.701 74 126.501)" stroke="black"/>
<rect x="78.274" y="124" width="6" height="12" transform="rotate(-89.4467 78.274 124)" fill="#8C2525"/>
<rect x="78.274" y="124" width="6" height="12" transform="rotate(-89.4467 78.274 124)" stroke="black"/>
<rect x="80.4252" y="114.902" width="6" height="12" transform="rotate(-137.522 80.4252 114.902)" fill="#8C2525"/>
<rect x="80.4252" y="114.902" width="6" height="12" transform="rotate(-137.522 80.4252 114.902)" stroke="black"/>
<rect x="71.64" y="111.667" width="6" height="12" transform="rotate(166.475 71.64 111.667)" fill="#8C2525"/>
<rect x="71.64" y="111.667" width="6" height="12" transform="rotate(166.475 71.64 111.667)" stroke="black"/>
<rect x="64.2781" y="116.358" width="6.39774" height="12" transform="rotate(90.0313 64.2781 116.358)" fill="#8C2525"/>
<rect x="64.2781" y="116.358" width="6.39774" height="12" transform="rotate(90.0313 64.2781 116.358)" stroke="black"/>
<g filter="url(#filter8_d_3_132)">
<ellipse cx="72.0666" cy="118.5" rx="9.06667" ry="8.5" fill="#004E53"/>
</g>
<g filter="url(#filter9_d_3_132)">
<ellipse cx="71.8" cy="118.5" rx="4.8" ry="4.5" fill="#258086"/>
<ellipse cx="71.8" cy="118.5" rx="4.8" ry="4.5" fill="black" fill-opacity="0.2"/>
</g>
</g>
<rect x="13.2739" y="103.625" width="78.937" height="3.03092" transform="rotate(-40.8444 13.2739 103.625)" fill="#C7D2D2"/>
<path d="M20.4552 108.366L73.7616 59.8937L75.2739 61.6429L23.9972 107.942L20.4552 108.366Z" fill="#C7D2D2"/>
<path d="M12.5 148L21.0536 107L23.2576 107.699L15.2739 145.5L12.5 148Z" fill="#C7D2D2"/>
<rect width="88.0145" height="3.03092" transform="matrix(-0.756489 -0.654006 -0.654006 0.756489 71.8382 203.562)" fill="#C7D2D2"/>
<rect width="78.5094" height="3.03092" transform="matrix(-0.756489 -0.654006 -0.654006 0.756489 73.6477 197.345)" fill="#C7D2D2"/>
<path d="M72.1674 206.824L73.4643 140.037L69.9904 139.969L69 204.5L72.1674 206.824Z" fill="#C7D2D2"/>
<rect width="94.343" height="3.03092" transform="matrix(-0.739124 0.673569 0.673569 0.739124 73.0052 83.3892)" fill="#C7D2D2"/>
<rect width="75.6196" height="2.47138" transform="matrix(-0.755481 -0.655171 -0.655171 0.755481 71.0224 154.966)" fill="#C7D2D2"/>
<path d="M73 169L31.8932 135L30.274 136.867L73 172L73 169Z" fill="#D3A632"/>
<path d="M32.3981 136.512L36 109L34.5 110L30.3137 136.998L32.3981 136.512Z" fill="#D3A632"/>
<rect width="65.3557" height="2.47138" transform="matrix(-0.755481 -0.655171 -0.655171 0.755481 71.2682 150.819)" fill="#C7D2D2"/>
<path d="M74.1247 142.155L35.8932 109L34.5 111L72.5055 144.022L74.1247 142.155Z" fill="#D3A632"/>
<path d="M72.8516 90.3417L13 145.5L14.3156 147.787L74.8931 92.5819L72.8516 90.3417Z" fill="#C7D2D2"/>
<path d="M6.77396 147L16.0218 104.888L13.1238 104L3.77394 148L6.77396 147Z" fill="#C7D2D2"/>
<rect width="78.937" height="3.03092" transform="matrix(-0.756489 -0.654006 -0.654006 0.756489 133.086 102.625)" fill="#C7D2D2"/>
<path d="M125.905 107.366L72.5985 58.8938L71.0862 60.6431L122.363 106.942L125.905 107.366Z" fill="#C7D2D2"/>
<path d="M134.086 147L125.307 106L123.102 106.699L131.086 144.5L134.086 147Z" fill="#C7D2D2"/>
<path d="M74.5 202.5L141.104 145L143.086 147.293L76.5 204.5L74.5 202.5Z" fill="#C7D2D2"/>
<rect x="71.1997" y="197.653" width="80.5091" height="3.03092" transform="rotate(-40.8444 71.1997 197.653)" fill="#C7D2D2"/>
<path d="M74.5 206L72.8959 139.037L76.3698 138.969L78.5 203.5L74.5 206Z" fill="#C7D2D2"/>
<rect x="73.355" y="82.3893" width="94.343" height="3.03092" transform="rotate(42.3431 73.355 82.3893)" fill="#C7D2D2"/>
<rect x="74.8151" y="154.42" width="76.3115" height="2.47138" transform="rotate(-40.9326 74.8151 154.42)" fill="#C7D2D2"/>
<path d="M73 169L114.5 133.5L116 136L73 172L73 169Z" fill="#D3A632"/>
<path d="M35.4499 109.544L75.2774 75.4939L77.5 77.5L35.5 112L35.4499 109.544Z" fill="#D3A632"/>
<path d="M112.615 133.976L110.5 107.5L112.5 107.5L116 136L112.615 133.976Z" fill="#D3A632"/>
<rect x="74.6962" y="150.162" width="65.8796" height="2.47138" transform="rotate(-40.9326 74.6962 150.162)" fill="#C7D2D2"/>
<path d="M71.6175 141.691L110.467 108L112.086 109.867L72.5 144L71.6175 141.691Z" fill="#D3A632"/>
<path d="M44 118.5L70.4886 94L72.1078 95.8671L45.5 120L44 118.5Z" fill="#D3A632"/>
<rect x="73.5086" y="89.3418" width="81.9585" height="3.03092" transform="rotate(42.3431 73.5086 89.3418)" fill="#C7D2D2"/>
<path d="M70 96L113.661 136.576L115.178 134.911L70.5 94.5L70 96Z" fill="#D3A632"/>
<path d="M75.5 78.5L110.069 109.165L112.5 107.5L77 77L75.5 78.5Z" fill="#D3A632"/>
<path d="M139.586 146L130.338 103.888L133.236 103L142.586 147L139.586 146Z" fill="#C7D2D2"/>
<defs>
<filter id="filter0_d_3_132" x="39.0061" y="118.281" width="20.005" height="10.376" filterUnits="userSpaceOnUse" color-interpolation-filters="sRGB">
<feFlood flood-opacity="0" result="BackgroundImageFix"/>
<feColorMatrix in="SourceAlpha" type="matrix" values="0 0 0 0 0 0 0 0 0 0 0 0 0 0 0 0 0 0 127 0" result="hardAlpha"/>
<feOffset dy="4"/>
<feGaussianBlur stdDeviation="2"/>
<feComposite in2="hardAlpha" operator="out"/>
<feColorMatrix type="matrix" values="0 0 0 0 0 0 0 0 0 0 0 0 0 0 0 0 0 0 0.25 0"/>
<feBlend mode="normal" in2="BackgroundImageFix" result="effect1_dropShadow_3_132"/>
<feBlend mode="normal" in="SourceGraphic" in2="effect1_dropShadow_3_132" result="shape"/>
</filter>
<filter id="filter1_d_3_132" x="49.9438" y="133" width="16.0672" height="18.4276" filterUnits="userSpaceOnUse" color-interpolation-filters="sRGB">
<feFlood flood-opacity="0" result="BackgroundImageFix"/>
<feColorMatrix in="SourceAlpha" type="matrix" values="0 0 0 0 0 0 0 0 0 0 0 0 0 0 0 0 0 0 127 0" result="hardAlpha"/>
<feOffset dy="4"/>
<feGaussianBlur stdDeviation="2"/>
<feComposite in2="hardAlpha" operator="out"/>
<feColorMatrix type="matrix" values="0 0 0 0 0 0 0 0 0 0 0 0 0 0 0 0 0 0 0.25 0"/>
<feBlend mode="normal" in2="BackgroundImageFix" result="effect1_dropShadow_3_132"/>
<feBlend mode="normal" in="SourceGraphic" in2="effect1_dropShadow_3_132" result="shape"/>
</filter>
<filter id="filter2_d_3_132" x="66.0402" y="136" width="10.5669" height="20.0049" filterUnits="userSpaceOnUse" color-interpolation-filters="sRGB">
<feFlood flood-opacity="0" result="BackgroundImageFix"/>
<feColorMatrix in="SourceAlpha" type="matrix" values="0 0 0 0 0 0 0 0 0 0 0 0 0 0 0 0 0 0 127 0" result="hardAlpha"/>
<feOffset dy="4"/>
<feGaussianBlur stdDeviation="2"/>
<feComposite in2="hardAlpha" operator="out"/>
<feColorMatrix type="matrix" values="0 0 0 0 0 0 0 0 0 0 0 0 0 0 0 0 0 0 0.25 0"/>
<feBlend mode="normal" in2="BackgroundImageFix" result="effect1_dropShadow_3_132"/>
<feBlend mode="normal" in="SourceGraphic" in2="effect1_dropShadow_3_132" result="shape"/>
</filter>
<filter id="filter3_d_3_132" x="78" y="133.043" width="15.7952" height="18.6347" filterUnits="userSpaceOnUse" color-interpolation-filters="sRGB">
<feFlood flood-opacity="0" result="BackgroundImageFix"/>
<feColorMatrix in="SourceAlpha" type="matrix" values="0 0 0 0 0 0 0 0 0 0 0 0 0 0 0 0 0 0 127 0" result="hardAlpha"/>
<feOffset dy="4"/>
<feGaussianBlur stdDeviation="2"/>
<feComposite in2="hardAlpha" operator="out"/>
<feColorMatrix type="matrix" values="0 0 0 0 0 0 0 0 0 0 0 0 0 0 0 0 0 0 0.25 0"/>
<feBlend mode="normal" in2="BackgroundImageFix" result="effect1_dropShadow_3_132"/>
<feBlend mode="normal" in="SourceGraphic" in2="effect1_dropShadow_3_132" result="shape"/>
</filter>
<filter id="filter4_d_3_132" x="86.0028" y="119.956" width="20.0079" height="10.322" filterUnits="userSpaceOnUse" color-interpolation-filters="sRGB">
<feFlood flood-opacity="0" result="BackgroundImageFix"/>
<feColorMatrix in="SourceAlpha" type="matrix" values="0 0 0 0 0 0 0 0 0 0 0 0 0 0 0 0 0 0 127 0" result="hardAlpha"/>
<feOffset dy="4"/>
<feGaussianBlur stdDeviation="2"/>
<feComposite in2="hardAlpha" operator="out"/>
<feColorMatrix type="matrix" values="0 0 0 0 0 0 0 0 0 0 0 0 0 0 0 0 0 0 0.25 0"/>
<feBlend mode="normal" in2="BackgroundImageFix" result="effect1_dropShadow_3_132"/>
<feBlend mode="normal" in="SourceGraphic" in2="effect1_dropShadow_3_132" result="shape"/>
</filter>
<filter id="filter5_d_3_132" x="81.0487" y="95.8829" width="17.1735" height="17.4023" filterUnits="userSpaceOnUse" color-interpolation-filters="sRGB">
<feFlood flood-opacity="0" result="BackgroundImageFix"/>
<feColorMatrix in="SourceAlpha" type="matrix" values="0 0 0 0 0 0 0 0 0 0 0 0 0 0 0 0 0 0 127 0" result="hardAlpha"/>
<feOffset dy="4"/>
<feGaussianBlur stdDeviation="2"/>
<feComposite in2="hardAlpha" operator="out"/>
<feColorMatrix type="matrix" values="0 0 0 0 0 0 0 0 0 0 0 0 0 0 0 0 0 0 0.25 0"/>
<feBlend mode="normal" in2="BackgroundImageFix" result="effect1_dropShadow_3_132"/>
<feBlend mode="normal" in="SourceGraphic" in2="effect1_dropShadow_3_132" result="shape"/>
</filter>
<filter id="filter6_d_3_132" x="58.4533" y="91.2671" width="12.7909" height="20.006" filterUnits="userSpaceOnUse" color-interpolation-filters="sRGB">
<feFlood flood-opacity="0" result="BackgroundImageFix"/>
<feColorMatrix in="SourceAlpha" type="matrix" values="0 0 0 0 0 0 0 0 0 0 0 0 0 0 0 0 0 0 127 0" result="hardAlpha"/>
<feOffset dy="4"/>
<feGaussianBlur stdDeviation="2"/>
<feComposite in2="hardAlpha" operator="out"/>
<feColorMatrix type="matrix" values="0 0 0 0 0 0 0 0 0 0 0 0 0 0 0 0 0 0 0.25 0"/>
<feBlend mode="normal" in2="BackgroundImageFix" result="effect1_dropShadow_3_132"/>
<feBlend mode="normal" in="SourceGraphic" in2="effect1_dropShadow_3_132" result="shape"/>
</filter>
<filter id="filter7_d_3_132" x="48.2747" y="100" width="46.0567" height="46" filterUnits="userSpaceOnUse" color-interpolation-filters="sRGB">
<feFlood flood-opacity="0" result="BackgroundImageFix"/>
<feColorMatrix in="SourceAlpha" type="matrix" values="0 0 0 0 0 0 0 0 0 0 0 0 0 0 0 0 0 0 127 0" result="hardAlpha"/>
<feOffset dy="4"/>
<feGaussianBlur stdDeviation="2"/>
<feComposite in2="hardAlpha" operator="out"/>
<feColorMatrix type="matrix" values="0 0 0 0 0 0 0 0 0 0 0 0 0 0 0 0 0 0 0.25 0"/>
<feBlend mode="normal" in2="BackgroundImageFix" result="effect1_dropShadow_3_132"/>
<feBlend mode="normal" in="SourceGraphic" in2="effect1_dropShadow_3_132" result="shape"/>
</filter>
<filter id="filter8_d_3_132" x="59" y="110" width="26.1333" height="25" filterUnits="userSpaceOnUse" color-interpolation-filters="sRGB">
<feFlood flood-opacity="0" result="BackgroundImageFix"/>
<feColorMatrix in="SourceAlpha" type="matrix" values="0 0 0 0 0 0 0 0 0 0 0 0 0 0 0 0 0 0 127 0" result="hardAlpha"/>
<feOffset dy="4"/>
<feGaussianBlur stdDeviation="2"/>
<feComposite in2="hardAlpha" operator="out"/>
<feColorMatrix type="matrix" values="0 0 0 0 0 0 0 0 0 0 0 0 0 0 0 0 0 0 0.25 0"/>
<feBlend mode="normal" in2="BackgroundImageFix" result="effect1_dropShadow_3_132"/>
<feBlend mode="normal" in="SourceGraphic" in2="effect1_dropShadow_3_132" result="shape"/>
</filter>
<filter id="filter9_d_3_132" x="63" y="114" width="17.6" height="17" filterUnits="userSpaceOnUse" color-interpolation-filters="sRGB">
<feFlood flood-opacity="0" result="BackgroundImageFix"/>
<feColorMatrix in="SourceAlpha" type="matrix" values="0 0 0 0 0 0 0 0 0 0 0 0 0 0 0 0 0 0 127 0" result="hardAlpha"/>
<feOffset dy="4"/>
<feGaussianBlur stdDeviation="2"/>
<feComposite in2="hardAlpha" operator="out"/>
<feColorMatrix type="matrix" values="0 0 0 0 0 0 0 0 0 0 0 0 0 0 0 0 0 0 0.25 0"/>
<feBlend mode="normal" in2="BackgroundImageFix" result="effect1_dropShadow_3_132"/>
<feBlend mode="normal" in="SourceGraphic" in2="effect1_dropShadow_3_132" result="shape"/>
</filter>
</defs>
</svg>
