<svg width="482" height="250" viewBox="0 0 482 250" fill="none" xmlns="http://www.w3.org/2000/svg">
<rect width="481.061" height="250" fill="#839BA0"/>
<path d="M146.787 64.9133C146.586 67.9551 146.787 70.4463 147.427 72.2877L185.226 200.702C185.857 202.976 187.329 204.718 189.642 206.117C191.784 207.415 194.212 208.13 196.696 208.193H313.248C323.36 208.193 329.362 205.152 331.465 199.077C332.306 196.694 332.306 194.844 331.36 193.436C330.413 192.136 328.836 191.486 326.514 191.486H216.813C209.015 191.486 203.548 189.97 200.604 187.036C197.651 184.112 194.593 177.378 191.544 167.089L156.899 49.2982C155.006 42.8897 155.847 37.2574 159.221 32.3743C162.585 27.5002 167.431 25 173.643 25H269.762C270.814 25 273.031 25.4333 276.194 26.1914L276.089 25.7582C278.044 25.2541 280.059 25.0354 282.073 25.1083C283.692 25.1631 285.262 25.6888 286.603 26.6247C287.863 27.4674 288.999 28.4917 289.976 29.6665C290.818 30.7496 291.554 32.0494 292.395 33.7824C293.134 35.3033 293.801 36.8606 294.393 38.4489C294.975 39.9904 295.609 41.5107 296.294 43.007C297.03 44.6317 297.661 45.9315 298.397 47.0146C298.922 47.6735 299.658 48.6393 300.5 49.7224C301.341 50.8146 302.191 51.8977 302.822 52.7642C303.353 53.4777 303.745 54.2898 303.978 55.1561C304.188 55.9143 304.083 57.1058 303.768 58.6222C303.452 60.1385 303.347 61.2307 303.347 61.9889C303.663 65.2383 304.819 69.4715 306.817 74.5713C308.824 79.662 310.611 83.3536 312.188 85.5199C313.058 86.5379 313.97 87.5167 314.922 88.4534C316.403 89.9698 317.349 91.2695 317.664 92.461C317.98 92.8942 317.98 94.0857 317.77 96.1526C317.454 98.1023 317.349 99.5103 317.454 100.269C317.77 103.202 318.821 107.101 320.609 111.984C322.065 116.095 323.825 120.084 325.875 123.917C326.085 124.458 326.821 125.433 327.977 126.95C329.143 128.466 329.879 129.657 330.08 130.641C330.299 131.291 330.194 132.591 329.984 134.324C329.774 136.066 329.774 137.366 330.089 138.232C330.72 141.482 331.982 145.498 333.874 150.165C335.776 154.822 337.668 158.73 339.57 162.088C340.095 162.964 340.717 163.939 341.672 165.13C342.514 166.321 343.25 167.296 343.775 168.163C344.277 168.995 344.633 169.912 344.827 170.871C344.908 171.728 344.762 172.592 344.406 173.371C344.091 174.562 343.986 175.429 343.986 176.196C344.091 177.387 344.196 179.012 344.511 180.962C344.722 182.911 344.932 184.112 344.932 184.437C346.825 189.636 346.719 195.178 344.722 200.918C342.408 207.643 338.194 213.392 332.192 218.059C326.19 222.716 319.873 225 313.45 225H196.906C191.43 225 186.269 223.15 181.424 219.359C176.578 215.568 173.319 210.901 171.741 205.368L136.991 87.5778C135.099 81.2957 135.94 75.7537 139.313 70.7713C141.101 68.0635 143.519 66.2131 146.787 64.9133Z" fill="#350E36"/>
<path d="M225.967 95.9297H220.678C220.582 95.2455 220.384 94.6378 220.087 94.1065C219.789 93.5672 219.406 93.1084 218.94 92.7301C218.473 92.3518 217.933 92.062 217.322 91.8608C216.718 91.6596 216.062 91.5589 215.354 91.5589C214.074 91.5589 212.959 91.8769 212.009 92.5128C211.059 93.1406 210.323 94.0582 209.8 95.2656C209.277 96.465 209.015 97.9219 209.015 99.6364C209.015 101.399 209.277 102.88 209.8 104.08C210.331 105.279 211.071 106.184 212.021 106.796C212.971 107.408 214.07 107.714 215.317 107.714C216.018 107.714 216.666 107.621 217.261 107.436C217.865 107.251 218.4 106.981 218.867 106.627C219.334 106.265 219.72 105.826 220.026 105.311C220.34 104.796 220.558 104.208 220.678 103.548L225.967 103.572C225.83 104.707 225.488 105.802 224.94 106.857C224.401 107.903 223.673 108.841 222.755 109.67C221.845 110.491 220.759 111.143 219.495 111.626C218.239 112.101 216.819 112.338 215.233 112.338C213.027 112.338 211.055 111.839 209.317 110.841C207.586 109.843 206.218 108.398 205.212 106.506C204.214 104.615 203.714 102.325 203.714 99.6364C203.714 96.9399 204.222 94.6458 205.236 92.7543C206.25 90.8627 207.626 89.4219 209.365 88.4318C211.104 87.4337 213.06 86.9347 215.233 86.9347C216.666 86.9347 217.994 87.1359 219.217 87.5384C220.449 87.9408 221.54 88.5284 222.489 89.3011C223.439 90.0658 224.212 91.0036 224.808 92.1143C225.411 93.2251 225.798 94.4969 225.967 95.9297ZM229.716 112V87.2727H234.944V98.1754H235.27L244.168 87.2727H250.434L241.258 98.3445L250.543 112H244.289L237.515 101.834L234.944 104.973V112H229.716ZM253.157 87.2727H259.604L266.414 103.886H266.704L273.513 87.2727H279.961V112H274.89V95.9055H274.685L268.286 111.879H264.832L258.433 95.8452H258.228V112H253.157V87.2727Z" fill="white"/>
</svg>
