<svg width="308" height="352" viewBox="0 0 308 352" fill="none" xmlns="http://www.w3.org/2000/svg">
<mask id="path-1-inside-1_7_135" fill="white">
<path d="M25 162H286V352H25V162Z"/>
</mask>
<path d="M25 162H286V352H25V162Z" fill="#202F7D"/>
<path d="M25 162V158H21V162H25ZM286 162H290V158H286V162ZM25 166H286V158H25V166ZM282 162V352H290V162H282ZM29 352V162H21V352H29Z" fill="#FFB783" mask="url(#path-1-inside-1_7_135)"/>
<path d="M154 66L170.454 38.25H137.546L154 66Z" fill="#476539"/>
<path d="M176 37L290.315 162.25H61.6846L176 37Z" fill="#FFFCF4"/>
<path d="M132 37L246.315 162.25H17.6846L132 37Z" fill="#FFFCF4"/>
<rect x="91" y="250" width="17" height="102" fill="#1C1313"/>
<rect x="211" y="250" width="17" height="102" fill="#1C1313"/>
<path d="M106 236.5L91.5 250H228L209.5 234L195 223.5L178.5 219L158.5 216L140.5 219L122 223.5L106 236.5Z" fill="#1C1313"/>
<rect x="108" y="250" width="103" height="102" fill="#1C1313"/>
<ellipse cx="155" cy="96" rx="30" ry="21" fill="#630808"/>
<ellipse cx="154.786" cy="96.5" rx="16.0714" ry="12.5" fill="#D9D9D9"/>
<ellipse cx="155" cy="96.5" rx="6.85714" ry="5.5" fill="#1E1E1E"/>
<path d="M29 152L36.7942 160.25H21.2058L29 152Z" fill="#CB2020"/>
<path d="M43 152L50.7942 160.25H35.2058L43 152Z" fill="#CB2020"/>
<path d="M43 152L50.7942 160.25H35.2058L43 152Z" fill="#CB2020"/>
<path d="M58 152L65.7942 160.25H50.2058L58 152Z" fill="#CB2020"/>
<path d="M69 152L76.7942 160.25H61.2058L69 152Z" fill="#CB2020"/>
<path d="M83 152L90.7942 160.25H75.2058L83 152Z" fill="#CB2020"/>
<path d="M97 152L104.794 160.25H89.2058L97 152Z" fill="#CB2020"/>
<path d="M97 152L104.794 160.25H89.2058L97 152Z" fill="#CB2020"/>
<path d="M112 152L119.794 160.25H104.206L112 152Z" fill="#CB2020"/>
<path d="M123 152L130.794 160.25H115.206L123 152Z" fill="#CB2020"/>
<path d="M45 136L52.7942 144.25H37.2058L45 136Z" fill="#476539"/>
<path d="M59 136L66.7942 144.25H51.2058L59 136Z" fill="#476539"/>
<path d="M59 136L66.7942 144.25H51.2058L59 136Z" fill="#476539"/>
<path d="M74 136L81.7942 144.25H66.2058L74 136Z" fill="#476539"/>
<path d="M85 136L92.7942 144.25H77.2058L85 136Z" fill="#476539"/>
<path d="M99 136L106.794 144.25H91.2058L99 136Z" fill="#476539"/>
<path d="M113 136L120.794 144.25H105.206L113 136Z" fill="#476539"/>
<path d="M113 136L120.794 144.25H105.206L113 136Z" fill="#476539"/>
<path d="M128 136L135.794 144.25H120.206L128 136Z" fill="#476539"/>
<path d="M139 136L146.794 144.25H131.206L139 136Z" fill="#476539"/>
<path d="M149 136L156.794 144.25H141.206L149 136Z" fill="#FFB783"/>
<path d="M163 136L170.794 144.25H155.206L163 136Z" fill="#FFB783"/>
<path d="M163 136L170.794 144.25H155.206L163 136Z" fill="#FFB783"/>
<path d="M178 136L185.794 144.25H170.206L178 136Z" fill="#FFB783"/>
<path d="M189 136L196.794 144.25H181.206L189 136Z" fill="#FFB783"/>
<path d="M203 136L210.794 144.25H195.206L203 136Z" fill="#FFB783"/>
<path d="M217 136L224.794 144.25H209.206L217 136Z" fill="#FFB783"/>
<path d="M217 136L224.794 144.25H209.206L217 136Z" fill="#FFB783"/>
<path d="M232 136L239.794 144.25H224.206L232 136Z" fill="#FFB783"/>
<path d="M243 136L250.794 144.25H235.206L243 136Z" fill="#FFB783"/>
<path d="M37 144L44.7942 152.25H29.2058L37 144Z" fill="#D9D9D9"/>
<path d="M51 144L58.7942 152.25H43.2058L51 144Z" fill="#D9D9D9"/>
<path d="M51 144L58.7942 152.25H43.2058L51 144Z" fill="#D9D9D9"/>
<path d="M66 144L73.7942 152.25H58.2058L66 144Z" fill="#D9D9D9"/>
<path d="M77 144L84.7942 152.25H69.2058L77 144Z" fill="#D9D9D9"/>
<path d="M91 144L98.7942 152.25H83.2058L91 144Z" fill="#D9D9D9"/>
<path d="M105 144L112.794 152.25H97.2058L105 144Z" fill="#D9D9D9"/>
<path d="M105 144L112.794 152.25H97.2058L105 144Z" fill="#D9D9D9"/>
<path d="M120 144L127.794 152.25H112.206L120 144Z" fill="#D9D9D9"/>
<path d="M131 144L138.794 152.25H123.206L131 144Z" fill="#D9D9D9"/>
<path d="M142 144L149.794 152.25H134.206L142 144Z" fill="#202F7D"/>
<path d="M156 144L163.794 152.25H148.206L156 144Z" fill="#202F7D"/>
<path d="M156 144L163.794 152.25H148.206L156 144Z" fill="#202F7D"/>
<path d="M171 144L178.794 152.25H163.206L171 144Z" fill="#202F7D"/>
<path d="M182 144L189.794 152.25H174.206L182 144Z" fill="#202F7D"/>
<path d="M196 144L203.794 152.25H188.206L196 144Z" fill="#202F7D"/>
<path d="M210 144L217.794 152.25H202.206L210 144Z" fill="#202F7D"/>
<path d="M210 144L217.794 152.25H202.206L210 144Z" fill="#202F7D"/>
<path d="M225 144L232.794 152.25H217.206L225 144Z" fill="#202F7D"/>
<path d="M236 144L243.794 152.25H228.206L236 144Z" fill="#202F7D"/>
<path d="M135 152L142.794 160.25H127.206L135 152Z" fill="#D9D9D9"/>
<path d="M149 152L156.794 160.25H141.206L149 152Z" fill="#D9D9D9"/>
<path d="M149 152L156.794 160.25H141.206L149 152Z" fill="#D9D9D9"/>
<path d="M164 152L171.794 160.25H156.206L164 152Z" fill="#D9D9D9"/>
<path d="M175 152L182.794 160.25H167.206L175 152Z" fill="#D9D9D9"/>
<path d="M189 152L196.794 160.25H181.206L189 152Z" fill="#D9D9D9"/>
<path d="M203 152L210.794 160.25H195.206L203 152Z" fill="#D9D9D9"/>
<path d="M203 152L210.794 160.25H195.206L203 152Z" fill="#D9D9D9"/>
<path d="M218 152L225.794 160.25H210.206L218 152Z" fill="#D9D9D9"/>
<path d="M229 152L236.794 160.25H221.206L229 152Z" fill="#D9D9D9"/>
<path d="M154.853 14L161.82 16.9602L166.126 24.7102V34.2898L161.82 42.0398L154.853 45L147.886 42.0398L143.58 34.2898V24.7102L147.886 16.9602L154.853 14Z" fill="#DDA412"/>
<path d="M156 0L184.962 8.2918H278.686L202.862 13.4164L231.824 21.7082L156 16.5836L80.1757 21.7082L109.138 13.4164L33.3137 8.2918H127.038L156 0Z" fill="#DDA412"/>
<rect x="33" y="8" width="1" height="73" fill="#DDA412"/>
<rect x="81" y="21" width="1" height="54" fill="#DDA412"/>
<rect x="231" y="21" width="1" height="60" fill="#DDA412"/>
<rect x="277" y="8" width="1" height="73" fill="#DDA412"/>
</svg>
