<svg width="482" height="250" viewBox="0 0 482 250" fill="none" xmlns="http://www.w3.org/2000/svg">
<rect width="481.061" height="250" fill="#83A08D"/>
<path d="M232.667 145.333C282.667 145.333 299.333 108.024 299.333 62H166C166 108.024 182.667 145.333 232.667 145.333Z" fill="#FF974B" stroke="black" stroke-width="2" stroke-linecap="round" stroke-linejoin="round"/>
<path d="M232.667 145.333V203.667V145.333Z" fill="#FF974B"/>
<path d="M232.667 145.333V203.667" stroke="black" stroke-width="2" stroke-linecap="round" stroke-linejoin="round"/>
<path d="M174.333 103.667H291H174.333Z" fill="#FF974B"/>
<path d="M174.333 103.667H291" stroke="black" stroke-width="2" stroke-linecap="round" stroke-linejoin="round"/>
<path d="M199.333 220.333H266L232.667 203.667L199.333 220.333Z" fill="#FF974B" stroke="black" stroke-width="2" stroke-linecap="round" stroke-linejoin="round"/>
<path d="M309.58 211V192.818H321.832V195.988H313.424V200.32H321.201V203.489H313.424V207.831H321.867V211H309.58ZM324.817 211V197.364H328.421V199.77H328.581C328.865 198.971 329.339 198.34 330.002 197.879C330.664 197.417 331.457 197.186 332.381 197.186C333.316 197.186 334.112 197.42 334.769 197.887C335.426 198.349 335.864 198.976 336.083 199.77H336.225C336.503 198.988 337.006 198.364 337.734 197.896C338.468 197.423 339.335 197.186 340.335 197.186C341.608 197.186 342.641 197.592 343.434 198.402C344.233 199.207 344.632 200.35 344.632 201.829V211H340.859V202.575C340.859 201.817 340.658 201.249 340.255 200.87C339.853 200.492 339.35 200.302 338.746 200.302C338.06 200.302 337.524 200.521 337.139 200.959C336.755 201.391 336.562 201.962 336.562 202.673V211H332.896V202.495C332.896 201.826 332.703 201.294 332.319 200.897C331.94 200.5 331.44 200.302 330.818 200.302C330.398 200.302 330.019 200.409 329.682 200.622C329.35 200.829 329.087 201.122 328.892 201.501C328.696 201.874 328.599 202.312 328.599 202.815V211H324.817ZM347.691 211V192.818H351.473V199.654H351.588C351.754 199.287 351.993 198.914 352.307 198.536C352.627 198.151 353.041 197.831 353.55 197.577C354.065 197.316 354.704 197.186 355.468 197.186C356.462 197.186 357.379 197.446 358.22 197.967C359.06 198.482 359.732 199.261 360.235 200.302C360.738 201.338 360.99 202.637 360.99 204.2C360.99 205.721 360.744 207.005 360.253 208.053C359.767 209.094 359.105 209.884 358.264 210.423C357.43 210.956 356.494 211.222 355.459 211.222C354.725 211.222 354.1 211.101 353.585 210.858C353.076 210.615 352.659 210.31 352.334 209.944C352.008 209.571 351.76 209.195 351.588 208.816H351.419V211H347.691ZM351.393 204.182C351.393 204.993 351.505 205.7 351.73 206.304C351.955 206.907 352.28 207.378 352.707 207.715C353.133 208.047 353.651 208.212 354.26 208.212C354.876 208.212 355.397 208.044 355.823 207.706C356.249 207.363 356.571 206.89 356.79 206.286C357.015 205.676 357.128 204.975 357.128 204.182C357.128 203.395 357.018 202.702 356.799 202.104C356.58 201.507 356.258 201.039 355.832 200.702C355.405 200.364 354.882 200.196 354.26 200.196C353.645 200.196 353.124 200.358 352.698 200.684C352.277 201.009 351.955 201.471 351.73 202.069C351.505 202.667 351.393 203.371 351.393 204.182ZM369.728 211.266C368.325 211.266 367.118 210.982 366.105 210.414C365.099 209.84 364.324 209.029 363.779 207.982C363.235 206.928 362.963 205.682 362.963 204.244C362.963 202.841 363.235 201.61 363.779 200.551C364.324 199.491 365.09 198.666 366.079 198.074C367.073 197.482 368.239 197.186 369.577 197.186C370.476 197.186 371.314 197.331 372.089 197.621C372.87 197.905 373.551 198.334 374.131 198.908C374.717 199.482 375.173 200.205 375.498 201.075C375.824 201.939 375.987 202.951 375.987 204.111V205.15H364.472V202.806H372.426C372.426 202.261 372.308 201.779 372.071 201.359C371.835 200.938 371.506 200.61 371.086 200.373C370.672 200.131 370.189 200.009 369.639 200.009C369.065 200.009 368.556 200.142 368.112 200.409C367.674 200.669 367.331 201.021 367.082 201.465C366.833 201.903 366.706 202.391 366.7 202.93V205.158C366.7 205.833 366.825 206.416 367.073 206.907C367.328 207.399 367.686 207.777 368.147 208.044C368.609 208.31 369.156 208.443 369.79 208.443C370.21 208.443 370.595 208.384 370.944 208.266C371.293 208.147 371.592 207.97 371.841 207.733C372.089 207.496 372.279 207.206 372.409 206.863L375.907 207.094C375.729 207.934 375.365 208.668 374.815 209.295C374.27 209.917 373.566 210.402 372.702 210.751C371.844 211.095 370.852 211.266 369.728 211.266ZM383.479 211.222C382.444 211.222 381.506 210.956 380.665 210.423C379.831 209.884 379.168 209.094 378.676 208.053C378.191 207.005 377.949 205.721 377.949 204.2C377.949 202.637 378.2 201.338 378.703 200.302C379.206 199.261 379.875 198.482 380.71 197.967C381.55 197.446 382.47 197.186 383.471 197.186C384.234 197.186 384.87 197.316 385.379 197.577C385.894 197.831 386.308 198.151 386.622 198.536C386.942 198.914 387.184 199.287 387.35 199.654H387.466V192.818H391.239V211H387.51V208.816H387.35C387.173 209.195 386.921 209.571 386.596 209.944C386.276 210.31 385.859 210.615 385.344 210.858C384.835 211.101 384.213 211.222 383.479 211.222ZM384.678 208.212C385.288 208.212 385.802 208.047 386.223 207.715C386.649 207.378 386.974 206.907 387.199 206.304C387.43 205.7 387.545 204.993 387.545 204.182C387.545 203.371 387.433 202.667 387.208 202.069C386.983 201.471 386.658 201.009 386.232 200.684C385.805 200.358 385.288 200.196 384.678 200.196C384.056 200.196 383.533 200.364 383.107 200.702C382.68 201.039 382.358 201.507 382.139 202.104C381.92 202.702 381.81 203.395 381.81 204.182C381.81 204.975 381.92 205.676 382.139 206.286C382.364 206.89 382.686 207.363 383.107 207.706C383.533 208.044 384.056 208.212 384.678 208.212ZM399.373 211.222C398.337 211.222 397.399 210.956 396.559 210.423C395.724 209.884 395.061 209.094 394.57 208.053C394.085 207.005 393.842 205.721 393.842 204.2C393.842 202.637 394.094 201.338 394.597 200.302C395.1 199.261 395.769 198.482 396.603 197.967C397.444 197.446 398.364 197.186 399.364 197.186C400.128 197.186 400.764 197.316 401.273 197.577C401.788 197.831 402.202 198.151 402.516 198.536C402.835 198.914 403.078 199.287 403.244 199.654H403.359V192.818H407.132V211H403.403V208.816H403.244C403.066 209.195 402.815 209.571 402.489 209.944C402.169 210.31 401.752 210.615 401.237 210.858C400.728 211.101 400.107 211.222 399.373 211.222ZM400.571 208.212C401.181 208.212 401.696 208.047 402.116 207.715C402.542 207.378 402.868 206.907 403.093 206.304C403.324 205.7 403.439 204.993 403.439 204.182C403.439 203.371 403.327 202.667 403.102 202.069C402.877 201.471 402.551 201.009 402.125 200.684C401.699 200.358 401.181 200.196 400.571 200.196C399.95 200.196 399.426 200.364 399 200.702C398.574 201.039 398.251 201.507 398.032 202.104C397.813 202.702 397.704 203.395 397.704 204.182C397.704 204.975 397.813 205.676 398.032 206.286C398.257 206.89 398.58 207.363 399 207.706C399.426 208.044 399.95 208.212 400.571 208.212ZM416.456 211.266C415.053 211.266 413.846 210.982 412.834 210.414C411.828 209.84 411.052 209.029 410.508 207.982C409.963 206.928 409.691 205.682 409.691 204.244C409.691 202.841 409.963 201.61 410.508 200.551C411.052 199.491 411.819 198.666 412.807 198.074C413.802 197.482 414.968 197.186 416.305 197.186C417.205 197.186 418.042 197.331 418.818 197.621C419.599 197.905 420.28 198.334 420.86 198.908C421.445 199.482 421.901 200.205 422.227 201.075C422.552 201.939 422.715 202.951 422.715 204.111V205.15H411.2V202.806H419.155C419.155 202.261 419.037 201.779 418.8 201.359C418.563 200.938 418.235 200.61 417.814 200.373C417.4 200.131 416.918 200.009 416.367 200.009C415.793 200.009 415.284 200.142 414.84 200.409C414.402 200.669 414.059 201.021 413.811 201.465C413.562 201.903 413.435 202.391 413.429 202.93V205.158C413.429 205.833 413.553 206.416 413.802 206.907C414.056 207.399 414.414 207.777 414.876 208.044C415.338 208.31 415.885 208.443 416.518 208.443C416.939 208.443 417.323 208.384 417.672 208.266C418.022 208.147 418.32 207.97 418.569 207.733C418.818 207.496 419.007 207.206 419.137 206.863L422.635 207.094C422.458 207.934 422.094 208.668 421.543 209.295C420.999 209.917 420.294 210.402 419.43 210.751C418.572 211.095 417.581 211.266 416.456 211.266ZM430.208 211.222C429.172 211.222 428.234 210.956 427.394 210.423C426.559 209.884 425.896 209.094 425.405 208.053C424.92 207.005 424.677 205.721 424.677 204.2C424.677 202.637 424.929 201.338 425.432 200.302C425.935 199.261 426.604 198.482 427.438 197.967C428.278 197.446 429.199 197.186 430.199 197.186C430.963 197.186 431.599 197.316 432.108 197.577C432.623 197.831 433.037 198.151 433.351 198.536C433.67 198.914 433.913 199.287 434.079 199.654H434.194V192.818H437.967V211H434.238V208.816H434.079C433.901 209.195 433.65 209.571 433.324 209.944C433.004 210.31 432.587 210.615 432.072 210.858C431.563 211.101 430.942 211.222 430.208 211.222ZM431.406 208.212C432.016 208.212 432.531 208.047 432.951 207.715C433.377 207.378 433.703 206.907 433.928 206.304C434.159 205.7 434.274 204.993 434.274 204.182C434.274 203.371 434.162 202.667 433.937 202.069C433.712 201.471 433.386 201.009 432.96 200.684C432.534 200.358 432.016 200.196 431.406 200.196C430.785 200.196 430.261 200.364 429.835 200.702C429.409 201.039 429.086 201.507 428.867 202.104C428.648 202.702 428.539 203.395 428.539 204.182C428.539 204.975 428.648 205.676 428.867 206.286C429.092 206.89 429.415 207.363 429.835 207.706C430.261 208.044 430.785 208.212 431.406 208.212ZM309.58 241V222.818H316.754C318.133 222.818 319.307 223.082 320.278 223.608C321.249 224.129 321.989 224.854 322.498 225.783C323.012 226.707 323.27 227.772 323.27 228.979C323.27 230.187 323.009 231.252 322.489 232.175C321.968 233.099 321.213 233.818 320.225 234.333C319.242 234.848 318.053 235.105 316.656 235.105H312.084V232.025H316.034C316.774 232.025 317.384 231.897 317.863 231.643C318.349 231.382 318.71 231.024 318.946 230.569C319.189 230.107 319.31 229.577 319.31 228.979C319.31 228.376 319.189 227.849 318.946 227.399C318.71 226.943 318.349 226.591 317.863 226.343C317.378 226.088 316.762 225.961 316.017 225.961H313.424V241H309.58ZM325.696 241V227.364H329.362V229.743H329.504C329.753 228.897 330.17 228.257 330.756 227.825C331.342 227.387 332.017 227.168 332.78 227.168C332.97 227.168 333.174 227.18 333.393 227.204C333.612 227.228 333.804 227.26 333.97 227.301V230.657C333.792 230.604 333.547 230.557 333.233 230.515C332.919 230.474 332.632 230.453 332.372 230.453C331.816 230.453 331.318 230.574 330.88 230.817C330.448 231.054 330.105 231.385 329.851 231.811C329.602 232.238 329.478 232.729 329.478 233.285V241H325.696ZM341.452 241.266C340.073 241.266 338.88 240.973 337.874 240.387C336.874 239.796 336.101 238.973 335.557 237.919C335.012 236.86 334.74 235.632 334.74 234.235C334.74 232.826 335.012 231.595 335.557 230.542C336.101 229.482 336.874 228.66 337.874 228.074C338.88 227.482 340.073 227.186 341.452 227.186C342.831 227.186 344.02 227.482 345.021 228.074C346.027 228.66 346.802 229.482 347.347 230.542C347.891 231.595 348.163 232.826 348.163 234.235C348.163 235.632 347.891 236.86 347.347 237.919C346.802 238.973 346.027 239.796 345.021 240.387C344.02 240.973 342.831 241.266 341.452 241.266ZM341.469 238.337C342.097 238.337 342.621 238.159 343.041 237.804C343.461 237.443 343.778 236.952 343.991 236.33C344.21 235.709 344.319 235.002 344.319 234.208C344.319 233.415 344.21 232.708 343.991 232.087C343.778 231.465 343.461 230.974 343.041 230.613C342.621 230.252 342.097 230.071 341.469 230.071C340.836 230.071 340.304 230.252 339.871 230.613C339.445 230.974 339.123 231.465 338.904 232.087C338.691 232.708 338.584 233.415 338.584 234.208C338.584 235.002 338.691 235.709 338.904 236.33C339.123 236.952 339.445 237.443 339.871 237.804C340.304 238.159 340.836 238.337 341.469 238.337ZM356.766 246.398C355.541 246.398 354.49 246.229 353.614 245.892C352.744 245.56 352.052 245.107 351.537 244.533C351.022 243.959 350.688 243.314 350.534 242.598L354.032 242.127C354.138 242.4 354.307 242.654 354.538 242.891C354.768 243.128 355.073 243.317 355.452 243.459C355.837 243.607 356.304 243.681 356.855 243.681C357.677 243.681 358.355 243.48 358.888 243.077C359.426 242.681 359.696 242.015 359.696 241.08V238.585H359.536C359.37 238.964 359.122 239.322 358.79 239.659C358.459 239.997 358.033 240.272 357.512 240.485C356.991 240.698 356.369 240.805 355.647 240.805C354.623 240.805 353.691 240.568 352.851 240.094C352.016 239.615 351.35 238.884 350.853 237.902C350.362 236.913 350.116 235.664 350.116 234.155C350.116 232.61 350.368 231.32 350.871 230.284C351.374 229.249 352.043 228.473 352.877 227.958C353.718 227.444 354.638 227.186 355.638 227.186C356.402 227.186 357.041 227.316 357.556 227.577C358.071 227.831 358.485 228.151 358.799 228.536C359.119 228.914 359.364 229.287 359.536 229.654H359.678V227.364H363.433V241.133C363.433 242.293 363.149 243.264 362.581 244.045C362.013 244.826 361.226 245.412 360.219 245.803C359.219 246.199 358.068 246.398 356.766 246.398ZM356.846 237.964C357.455 237.964 357.97 237.813 358.391 237.511C358.817 237.203 359.142 236.765 359.367 236.197C359.598 235.623 359.713 234.936 359.713 234.137C359.713 233.338 359.601 232.646 359.376 232.06C359.151 231.468 358.826 231.009 358.4 230.684C357.973 230.358 357.455 230.196 356.846 230.196C356.224 230.196 355.701 230.364 355.275 230.702C354.848 231.033 354.526 231.495 354.307 232.087C354.088 232.679 353.978 233.362 353.978 234.137C353.978 234.925 354.088 235.605 354.307 236.179C354.532 236.748 354.854 237.188 355.275 237.502C355.701 237.81 356.224 237.964 356.846 237.964ZM366.443 241V227.364H370.109V229.743H370.251C370.5 228.897 370.917 228.257 371.503 227.825C372.089 227.387 372.764 227.168 373.527 227.168C373.717 227.168 373.921 227.18 374.14 227.204C374.359 227.228 374.551 227.26 374.717 227.301V230.657C374.539 230.604 374.294 230.557 373.98 230.515C373.666 230.474 373.379 230.453 373.119 230.453C372.563 230.453 372.065 230.574 371.627 230.817C371.195 231.054 370.852 231.385 370.598 231.811C370.349 232.238 370.225 232.729 370.225 233.285V241H366.443ZM380.17 241.257C379.3 241.257 378.525 241.107 377.844 240.805C377.164 240.497 376.625 240.044 376.228 239.446C375.838 238.843 375.642 238.091 375.642 237.191C375.642 236.434 375.782 235.798 376.06 235.283C376.338 234.768 376.717 234.353 377.196 234.04C377.676 233.726 378.22 233.489 378.83 233.33C379.445 233.17 380.09 233.057 380.765 232.992C381.558 232.909 382.197 232.832 382.683 232.761C383.168 232.684 383.52 232.572 383.739 232.424C383.958 232.276 384.068 232.057 384.068 231.767V231.714C384.068 231.152 383.89 230.717 383.535 230.409C383.186 230.101 382.689 229.947 382.043 229.947C381.363 229.947 380.821 230.098 380.419 230.4C380.016 230.696 379.75 231.069 379.62 231.518L376.122 231.234C376.299 230.406 376.649 229.69 377.169 229.086C377.69 228.476 378.362 228.009 379.185 227.683C380.013 227.352 380.972 227.186 382.061 227.186C382.819 227.186 383.544 227.275 384.236 227.452C384.935 227.63 385.553 227.905 386.092 228.278C386.636 228.651 387.065 229.13 387.379 229.716C387.693 230.296 387.85 230.992 387.85 231.803V241H384.263V239.109H384.156C383.937 239.535 383.644 239.911 383.277 240.237C382.91 240.556 382.47 240.808 381.955 240.991C381.44 241.169 380.845 241.257 380.17 241.257ZM381.253 238.647C381.81 238.647 382.301 238.538 382.727 238.319C383.153 238.094 383.488 237.792 383.73 237.413C383.973 237.035 384.094 236.605 384.094 236.126V234.679C383.976 234.756 383.813 234.827 383.606 234.892C383.405 234.951 383.177 235.007 382.922 235.061C382.668 235.108 382.413 235.152 382.159 235.194C381.904 235.229 381.674 235.262 381.466 235.292C381.022 235.357 380.635 235.46 380.303 235.602C379.972 235.744 379.714 235.937 379.531 236.179C379.348 236.416 379.256 236.712 379.256 237.067C379.256 237.582 379.442 237.976 379.815 238.248C380.194 238.514 380.673 238.647 381.253 238.647ZM390.784 241V227.364H394.388V229.77H394.548C394.832 228.971 395.305 228.34 395.968 227.879C396.631 227.417 397.424 227.186 398.348 227.186C399.283 227.186 400.079 227.42 400.736 227.887C401.393 228.349 401.831 228.976 402.05 229.77H402.192C402.47 228.988 402.973 228.364 403.701 227.896C404.435 227.423 405.302 227.186 406.302 227.186C407.575 227.186 408.607 227.592 409.4 228.402C410.199 229.207 410.599 230.35 410.599 231.829V241H406.826V232.575C406.826 231.817 406.625 231.249 406.222 230.87C405.82 230.492 405.317 230.302 404.713 230.302C404.026 230.302 403.491 230.521 403.106 230.959C402.721 231.391 402.529 231.962 402.529 232.673V241H398.862V232.495C398.862 231.826 398.67 231.294 398.285 230.897C397.907 230.5 397.407 230.302 396.785 230.302C396.365 230.302 395.986 230.409 395.649 230.622C395.317 230.829 395.054 231.122 394.859 231.501C394.663 231.874 394.566 232.312 394.566 232.815V241H390.784ZM413.586 241V227.364H417.191V229.77H417.351C417.635 228.971 418.108 228.34 418.771 227.879C419.434 227.417 420.227 227.186 421.15 227.186C422.085 227.186 422.881 227.42 423.538 227.887C424.195 228.349 424.633 228.976 424.852 229.77H424.994C425.273 228.988 425.776 228.364 426.504 227.896C427.238 227.423 428.105 227.186 429.105 227.186C430.377 227.186 431.41 227.592 432.203 228.402C433.002 229.207 433.402 230.35 433.402 231.829V241H429.629V232.575C429.629 231.817 429.427 231.249 429.025 230.87C428.622 230.492 428.119 230.302 427.516 230.302C426.829 230.302 426.294 230.521 425.909 230.959C425.524 231.391 425.332 231.962 425.332 232.673V241H421.665V232.495C421.665 231.826 421.473 231.294 421.088 230.897C420.709 230.5 420.209 230.302 419.588 230.302C419.168 230.302 418.789 230.409 418.451 230.622C418.12 230.829 417.857 231.122 417.661 231.501C417.466 231.874 417.368 232.312 417.368 232.815V241H413.586ZM436.389 241V227.364H440.171V241H436.389ZM438.289 225.606C437.727 225.606 437.244 225.419 436.842 225.047C436.445 224.668 436.247 224.215 436.247 223.688C436.247 223.167 436.445 222.721 436.842 222.348C437.244 221.969 437.727 221.779 438.289 221.779C438.851 221.779 439.331 221.969 439.727 222.348C440.13 222.721 440.331 223.167 440.331 223.688C440.331 224.215 440.13 224.668 439.727 225.047C439.331 225.419 438.851 225.606 438.289 225.606ZM446.983 233.116V241H443.201V227.364H446.805V229.77H446.965C447.267 228.976 447.773 228.349 448.483 227.887C449.193 227.42 450.054 227.186 451.066 227.186C452.013 227.186 452.839 227.393 453.543 227.808C454.248 228.222 454.795 228.814 455.186 229.583C455.576 230.347 455.772 231.258 455.772 232.317V241H451.99V232.992C451.996 232.158 451.783 231.507 451.35 231.039C450.918 230.566 450.324 230.329 449.566 230.329C449.057 230.329 448.607 230.438 448.217 230.657C447.832 230.876 447.53 231.196 447.311 231.616C447.098 232.03 446.989 232.531 446.983 233.116ZM464.896 246.398C463.671 246.398 462.62 246.229 461.744 245.892C460.874 245.56 460.182 245.107 459.667 244.533C459.152 243.959 458.818 243.314 458.664 242.598L462.161 242.127C462.268 242.4 462.437 242.654 462.668 242.891C462.898 243.128 463.203 243.317 463.582 243.459C463.967 243.607 464.434 243.681 464.985 243.681C465.807 243.681 466.485 243.48 467.018 243.077C467.556 242.681 467.826 242.015 467.826 241.08V238.585H467.666C467.5 238.964 467.251 239.322 466.92 239.659C466.589 239.997 466.162 240.272 465.642 240.485C465.121 240.698 464.499 240.805 463.777 240.805C462.753 240.805 461.821 240.568 460.981 240.094C460.146 239.615 459.48 238.884 458.983 237.902C458.492 236.913 458.246 235.664 458.246 234.155C458.246 232.61 458.498 231.32 459.001 230.284C459.504 229.249 460.173 228.473 461.007 227.958C461.848 227.444 462.768 227.186 463.768 227.186C464.532 227.186 465.171 227.316 465.686 227.577C466.201 227.831 466.615 228.151 466.929 228.536C467.248 228.914 467.494 229.287 467.666 229.654H467.808V227.364H471.563V241.133C471.563 242.293 471.279 243.264 470.711 244.045C470.143 244.826 469.355 245.412 468.349 245.803C467.349 246.199 466.198 246.398 464.896 246.398ZM464.976 237.964C465.585 237.964 466.1 237.813 466.521 237.511C466.947 237.203 467.272 236.765 467.497 236.197C467.728 235.623 467.843 234.936 467.843 234.137C467.843 233.338 467.731 232.646 467.506 232.06C467.281 231.468 466.956 231.009 466.529 230.684C466.103 230.358 465.585 230.196 464.976 230.196C464.354 230.196 463.831 230.364 463.404 230.702C462.978 231.033 462.656 231.495 462.437 232.087C462.218 232.679 462.108 233.362 462.108 234.137C462.108 234.925 462.218 235.605 462.437 236.179C462.662 236.748 462.984 237.188 463.404 237.502C463.831 237.81 464.354 237.964 464.976 237.964Z" fill="white"/>
</svg>
