<svg width="482" height="250" viewBox="0 0 482 250" fill="none" xmlns="http://www.w3.org/2000/svg">
<rect width="481.061" height="250" fill="#A08583"/>
<path d="M146.787 64.9133C146.586 67.9551 146.787 70.4463 147.427 72.2877L185.226 200.702C185.857 202.976 187.329 204.718 189.642 206.117C191.784 207.415 194.212 208.13 196.696 208.193H313.248C323.36 208.193 329.362 205.152 331.465 199.077C332.306 196.694 332.306 194.844 331.36 193.436C330.413 192.136 328.836 191.486 326.514 191.486H216.813C209.015 191.486 203.548 189.97 200.604 187.036C197.651 184.112 194.593 177.378 191.544 167.089L156.899 49.2982C155.006 42.8897 155.847 37.2574 159.221 32.3743C162.585 27.5002 167.431 25 173.643 25H269.762C270.814 25 273.031 25.4333 276.194 26.1914L276.089 25.7582C278.044 25.2541 280.059 25.0354 282.073 25.1083C283.692 25.1631 285.262 25.6888 286.603 26.6247C287.863 27.4674 288.999 28.4917 289.976 29.6665C290.818 30.7496 291.554 32.0494 292.395 33.7824C293.134 35.3033 293.801 36.8606 294.393 38.4489C294.975 39.9904 295.609 41.5107 296.294 43.007C297.03 44.6317 297.661 45.9315 298.397 47.0146C298.922 47.6735 299.658 48.6393 300.5 49.7224C301.341 50.8146 302.191 51.8977 302.822 52.7642C303.353 53.4777 303.745 54.2898 303.978 55.1561C304.188 55.9143 304.083 57.1058 303.768 58.6222C303.452 60.1385 303.347 61.2307 303.347 61.9889C303.663 65.2383 304.819 69.4715 306.817 74.5713C308.824 79.662 310.611 83.3536 312.188 85.5199C313.058 86.5379 313.97 87.5167 314.922 88.4534C316.403 89.9698 317.349 91.2695 317.664 92.461C317.98 92.8942 317.98 94.0857 317.77 96.1526C317.454 98.1023 317.349 99.5103 317.454 100.269C317.77 103.202 318.821 107.101 320.609 111.984C322.065 116.095 323.825 120.084 325.875 123.917C326.085 124.458 326.821 125.433 327.977 126.95C329.143 128.466 329.879 129.657 330.08 130.641C330.299 131.291 330.194 132.591 329.984 134.324C329.774 136.066 329.774 137.366 330.089 138.232C330.72 141.482 331.982 145.498 333.874 150.165C335.776 154.822 337.668 158.73 339.57 162.088C340.095 162.964 340.717 163.939 341.672 165.13C342.514 166.321 343.25 167.296 343.775 168.163C344.277 168.995 344.633 169.912 344.827 170.871C344.908 171.728 344.762 172.592 344.406 173.371C344.091 174.562 343.986 175.429 343.986 176.196C344.091 177.387 344.196 179.012 344.511 180.962C344.722 182.911 344.932 184.112 344.932 184.437C346.825 189.636 346.719 195.178 344.722 200.918C342.408 207.643 338.194 213.392 332.192 218.059C326.19 222.716 319.873 225 313.45 225H196.906C191.43 225 186.269 223.15 181.424 219.359C176.578 215.568 173.319 210.901 171.741 205.368L136.991 87.5778C135.099 81.2957 135.94 75.7537 139.313 70.7713C141.101 68.0635 143.519 66.2131 146.787 64.9133Z" fill="white"/>
<rect x="-0.640386" y="0.652977" width="65.5413" height="103.159" transform="matrix(-0.999953 0.00973454 0.00973454 0.999953 279.747 58.7934)" fill="#FDDF92" stroke="#8C2525" stroke-width="1.29342"/>
<rect x="223.653" y="151.924" width="4.49442" height="9.63555" transform="rotate(-0.557757 223.653 151.924)" fill="#8C2525" stroke="#8C2525" stroke-width="0.646712"/>
<path d="M223.952 80.1709L223.874 72.1443L225.618 72.1273L227.887 77.8069C227.951 77.9688 227.996 78.1309 228.023 78.2932C228.049 78.4555 228.07 78.6178 228.084 78.7803L227.99 78.7812C228.026 78.6183 228.056 78.4554 228.079 78.2927C228.102 78.1299 228.145 77.9669 228.205 77.8038L230.4 72.0807L232.126 72.0639L232.204 80.0905L230.91 80.1031L230.863 75.3209C230.858 74.7708 230.854 74.3145 230.85 73.9519C230.846 73.5768 230.85 73.2955 230.861 73.1078L231.064 72.862L228.547 80.1261L227.515 80.1362L224.744 72.9235L224.934 73.0905C224.999 73.4024 225.046 73.7521 225.075 74.1394C225.104 74.5142 225.12 74.9205 225.125 75.358L225.171 80.159L223.952 80.1709ZM220.834 83.521L220.692 68.968L235.245 68.8264L235.387 83.3793L220.834 83.521ZM221.855 82.4795L234.345 82.3579L234.224 69.8679L221.734 69.9895L221.855 82.4795ZM244.544 79.9892L244.466 71.9438L249.229 71.8974L249.239 72.9289L245.77 72.9627L245.792 75.2694L249.074 75.2374L249.084 76.2314L245.802 76.2633L245.828 78.9451L249.297 78.9113L249.308 79.9428L244.544 79.9892ZM239.588 83.3384L239.446 68.7855L253.999 68.6438L254.141 83.1967L239.588 83.3384ZM240.609 82.2969L253.099 82.1753L252.978 69.6853L240.488 69.8069L240.609 82.2969ZM264.929 79.772L264.862 72.8331L262.349 72.8575L262.338 71.7698L268.677 71.7081L268.687 72.7958L266.174 72.8203L266.242 79.7592L264.929 79.772ZM258.341 83.1558L258.2 68.6029L272.753 68.4612L272.894 83.0142L258.341 83.1558ZM259.363 82.1143L271.853 81.9927L271.731 69.5027L259.241 69.6243L259.363 82.1143ZM225.479 102.176L225.401 94.1304L227.802 94.1071C228.539 94.0999 229.134 94.1754 229.586 94.3335C230.05 94.4916 230.39 94.7446 230.606 95.0926C230.822 95.4281 230.932 95.8646 230.937 96.4022C230.942 96.9023 230.803 97.3288 230.518 97.6817C230.247 98.0219 229.837 98.301 229.289 98.5189L231.593 102.116L230.093 102.131L228.129 98.8678L226.741 98.8813L226.773 102.163L225.479 102.176ZM226.732 97.8874L227.838 97.8766C228.426 97.8709 228.862 97.7478 229.148 97.5075C229.445 97.267 229.592 96.9155 229.587 96.4529C229.582 95.9278 229.416 95.5793 229.09 95.4074C228.775 95.2229 228.324 95.1335 227.737 95.1393L226.705 95.1493L226.732 97.8874ZM221.048 105.52L220.906 90.967L235.459 90.8253L235.601 105.378L221.048 105.52ZM222.07 104.478L234.56 104.357L234.438 91.8668L221.948 91.9884L222.07 104.478ZM247.029 102.154C245.792 102.166 244.831 101.806 244.149 101.075C243.479 100.331 243.138 99.2906 243.125 97.9528C243.112 96.6026 243.439 95.5616 244.107 94.8298C244.775 94.0856 245.728 93.7075 246.966 93.6954C247.766 93.6877 248.449 93.8498 249.015 94.1819C249.593 94.5139 250.042 94.9909 250.36 95.613C250.679 96.2351 250.843 96.9899 250.851 97.8776C250.86 98.7528 250.717 99.5107 250.423 100.151C250.129 100.792 249.697 101.284 249.125 101.627C248.553 101.97 247.854 102.146 247.029 102.154ZM247.019 101.141C247.795 101.133 248.405 100.852 248.849 100.298C249.294 99.7308 249.511 98.9285 249.501 97.8908C249.492 96.9531 249.284 96.1861 248.878 95.5899C248.473 94.9937 247.838 94.6997 246.976 94.7081C246.113 94.7165 245.478 95.0228 245.071 95.6269C244.677 96.231 244.485 97.0018 244.494 97.9395C244.503 98.8897 244.717 99.6628 245.135 100.259C245.554 100.855 246.182 101.149 247.019 101.141ZM239.802 105.337L239.66 90.7844L254.213 90.6428L254.355 105.196L239.802 105.337ZM240.823 104.296L253.313 104.174L253.192 91.6843L240.702 91.8058L240.823 104.296ZM263.662 101.804L263.584 93.7587L265.834 93.7368C266.884 93.7266 267.674 93.9252 268.203 94.3327C268.732 94.7277 269.001 95.3315 269.009 96.1441C269.014 96.7068 268.894 97.1831 268.647 97.5731C268.401 97.9506 268.029 98.2418 267.531 98.4467C267.045 98.639 266.427 98.7388 265.677 98.7461L264.926 98.7534L264.956 101.792L263.662 101.804ZM264.917 97.7407L265.554 97.7345C266.092 97.7292 266.51 97.6752 266.809 97.5722C267.108 97.4568 267.319 97.2859 267.442 97.0597C267.577 96.8333 267.643 96.545 267.64 96.195C267.635 95.7199 267.476 95.3651 267.161 95.1306C266.846 94.8836 266.376 94.7631 265.75 94.7692L264.888 94.7776L264.917 97.7407ZM258.556 105.155L258.414 90.6019L272.967 90.4602L273.109 105.013L258.556 105.155ZM259.577 104.113L272.067 103.992L271.945 91.5017L259.455 91.6233L259.577 104.113ZM228.49 124.335C227.252 124.347 226.292 123.988 225.61 123.257C224.94 122.513 224.598 121.472 224.585 120.134C224.572 118.784 224.899 117.743 225.568 117.011C226.235 116.267 227.188 115.889 228.426 115.877C229.226 115.869 229.909 116.031 230.475 116.363C231.054 116.695 231.502 117.172 231.821 117.794C232.139 118.417 232.303 119.171 232.312 120.059C232.32 120.934 232.178 121.692 231.884 122.333C231.59 122.973 231.157 123.465 230.585 123.808C230.013 124.151 229.315 124.327 228.49 124.335ZM228.48 123.322C229.255 123.315 229.865 123.034 230.31 122.479C230.754 121.912 230.972 121.11 230.961 120.072C230.952 119.135 230.745 118.368 230.339 117.771C229.933 117.175 229.299 116.881 228.436 116.89C227.573 116.898 226.939 117.204 226.532 117.808C226.138 118.412 225.945 119.183 225.954 120.121C225.963 121.071 226.177 121.844 226.596 122.44C227.014 123.037 227.642 123.331 228.48 123.322ZM221.262 127.519L221.121 112.966L235.674 112.824L235.815 127.377L221.262 127.519ZM222.284 126.477L234.774 126.356L234.652 113.866L222.162 113.987L222.284 126.477ZM245.422 123.964L245.344 115.937L246.638 115.925L246.706 122.882L250.194 122.848L250.205 123.917L245.422 123.964ZM240.016 127.336L239.874 112.783L254.427 112.642L254.569 127.195L240.016 127.336ZM241.037 126.295L253.527 126.173L253.406 113.683L240.916 113.805L241.037 126.295ZM264.364 123.78L264.356 123.011L265.348 122.795L265.289 116.737L264.293 116.503L264.285 115.753L267.605 115.721L267.612 116.471L266.602 116.724L266.661 122.782L267.676 122.978L267.683 123.747L264.364 123.78ZM258.77 127.154L258.628 112.601L273.181 112.459L273.323 127.012L258.77 127.154ZM259.791 126.112L272.281 125.991L272.16 113.501L259.67 113.622L259.791 126.112ZM247.345 146.115C246.895 146.119 246.469 146.086 246.068 146.015C245.668 145.944 245.285 145.835 244.921 145.689L244.91 144.507C245.324 144.691 245.738 144.83 246.152 144.926C246.565 145.01 246.972 145.05 247.372 145.046C247.922 145.04 248.334 144.936 248.607 144.734C248.88 144.531 249.014 144.236 249.011 143.848C249.008 143.548 248.893 143.299 248.666 143.101C248.439 142.891 248.149 142.712 247.798 142.566C247.459 142.407 247.107 142.254 246.743 142.107C246.203 141.875 245.781 141.579 245.478 141.219C245.174 140.847 245.02 140.386 245.014 139.836C245.008 139.211 245.247 138.702 245.731 138.31C246.214 137.905 246.875 137.698 247.713 137.69C248.125 137.686 248.532 137.726 248.933 137.81C249.346 137.881 249.748 137.996 250.137 138.154L249.771 139.152C249.457 139.017 249.138 138.914 248.812 138.842C248.499 138.77 248.167 138.736 247.817 138.74C247.342 138.744 246.98 138.835 246.732 139.013C246.496 139.19 246.38 139.46 246.383 139.823C246.386 140.098 246.451 140.322 246.577 140.496C246.704 140.67 246.906 140.83 247.182 140.978C247.471 141.112 247.848 141.278 248.312 141.473C249.015 141.754 249.531 142.074 249.86 142.433C250.201 142.78 250.374 143.216 250.379 143.741C250.383 144.229 250.263 144.649 250.016 145.001C249.769 145.354 249.416 145.626 248.955 145.818C248.507 146.01 247.97 146.109 247.345 146.115ZM240.23 149.335L240.089 134.782L254.641 134.641L254.783 149.194L240.23 149.335ZM241.252 148.294L253.742 148.172L253.62 135.682L241.13 135.804L241.252 148.294Z" fill="#8C2525"/>
<circle cx="224.647" cy="156.854" r="0.365217" transform="rotate(-0.557757 224.647 156.854)" fill="#D9D9D9"/>
<rect x="268.099" y="43.208" width="2.1913" height="15.7043" transform="rotate(-0.557757 268.099 43.208)" fill="#8C2525"/>
<rect width="17.7296" height="2.59443" transform="matrix(0.86673 0.498778 -0.445956 0.895055 261.925 38.1548)" fill="#8C2525"/>
<rect width="17.7296" height="2.59443" transform="matrix(-0.856855 0.515557 0.463296 0.886203 276.025 38.0176)" fill="#8C2525"/>
</svg>
