<svg width="415" height="494" viewBox="0 0 415 494" fill="none" xmlns="http://www.w3.org/2000/svg">
<path d="M9.5 241.5V241.452L9.491 241.406L2.00612 202.484L11.9941 124.578L25.4522 52.8013L57.2357 31.9433L94.1632 16.4737L152.567 0.5H231.451L261.383 6.48651L296.858 16.4793L296.864 16.4813L328.822 25.9688L357.6 39.3653L382.514 108.627L394.507 181.082L394.545 181.312L394.746 181.431L403.108 186.349L410.513 203.135L413.996 230.995L408.51 268.896L395.571 315.176L373.738 328.574L373.63 328.641L373.566 328.751L344.131 380.138L323.244 392.57L323.205 392.594L323.17 392.624L266.193 442.604L214.282 478.043L162.436 493.497L104.579 491.502L59.8069 478.568L51.4509 466.772L46.9743 453.342L46.9674 453.321L46.9585 453.301L41.9747 441.838L22.9891 366.894L12.996 310.933L9.5 272.477V241.5Z" stroke="black"/>
<path d="M63.5 384.5L57 397.5L52.5 406L55 414L62.5 419L72 420.5H76.5H85.5L93.5 422.5L107 425L124 427.5L131.5 430H141L153 427.5H168.5L181 422.5L184.5 416.5V412L181 409L177 402.5L171 397.5L165.5 394.5L156 389.5L146.5 387L135 384.5H118.5H110L99 387L93.5 384.5L85.5 379H80.5H68.5L63.5 384.5Z" fill="#D3A632" stroke="black"/>
<path d="M65.5 400.5L71.5 394.5L94.5 397.5H109.5H133.5H148L162 400.5L172.5 406.5L178.5 412L172.5 414L158 416.5L146.5 417L133.5 416.5L114 414L98 412H82.5H74.5L68.5 406.5L65.5 403" stroke="black"/>
<path d="M41.5 197L29 54H25.5L22.5 69.5L12.5 122L3.5 196L41.5 197Z" stroke="black"/>
<path d="M135.354 197.016L197.5 49L211.5 200L207 199.5L193.5 198H181.5H161L134.926 197" stroke="black"/>
<path d="M26 54L131 51L198.5 49H289H329L360 45.5L358 40" stroke="black"/>
<path d="M346.5 47L364.5 117L371 156L376.5 184.5L277.5 248.5L263.5 259M263.5 259V241.5L254 229L245 219.5L232 209L221 200.5H210.5L199.5 198.5L186 197.5H160.5L143 196.5H135L117.5 209L107 227V239.5V265M263.5 259L236 282L214 306.5H205L152.5 296L124 278.5L107 265M107 265L101.5 286.5L89.5 327M61 325.5L74.5 289.5M74.5 289.5L83.5 267L85 246L81 230.5L68.5 211L51.5 201L41 196.5H25.5H16H10H4L1.5 200.5L4 216.5L10 233V239.5L7.5 249.5L10 275V286.5L13 306.5L16 311L46 302L74.5 289.5Z" stroke="black"/>
<path d="M377 213.5L382.5 207L387 205L391.5 206L394.5 207L399 209.5L400 215V229L399 243.5L395.5 260L393 275L387 284L381 287L379 282V271.5V252L377 213.5Z" stroke="black"/>
<path d="M65.5 312.5L61 325.5L64 328.5H87.5L97.5 325.5L108.5 321L119 316L129 312.5H136L153 328.5L134 341.5L132 339L124.5 337H113.5L97.5 341.5L94 348.5L87.5 350L75 352L61 348.5L60 341.5L46.5 337L44.5 328.5L43 318L65.5 312.5Z" stroke="black"/>
<path d="M108.5 337.5L97 342.5C98.3333 343.5 103.6 342.5 106 342.5H112H120.5L134 341.5L131.5 339L127.5 337.5L124 336H116L108.5 337.5Z" fill="black" stroke="black"/>
<path d="M139 302.5L189.5 320.5L211.5 323.5L223 364L233 408V445.5V465.5" stroke="black"/>
<path d="M295 237L235 381L230.5 397.5" stroke="black"/>
<path d="M233 254C233 272.225 210.614 287 183 287C155.386 287 133 272.225 133 254C133 235.775 155.386 221 183 221C210.614 221 233 235.775 233 254Z" fill="#D9D9D9" fill-opacity="0.4"/>
<path d="M233 254C233 272.225 210.614 287 183 287C155.386 287 133 272.225 133 254C133 235.775 155.386 221 183 221C210.614 221 233 235.775 233 254Z" stroke="black"/>
<path d="M80 250C80 266.016 65.2254 279 47 279C28.7746 279 14 266.016 14 250C14 233.984 28.7746 221 47 221C65.2254 221 80 233.984 80 250Z" fill="#D9D9D9" fill-opacity="0.4"/>
<path d="M80 250C80 266.016 65.2254 279 47 279C28.7746 279 14 266.016 14 250C14 233.984 28.7746 221 47 221C65.2254 221 80 233.984 80 250Z" stroke="black"/>
<ellipse cx="178.5" cy="255.5" rx="27.5" ry="11.5" fill="white" fill-opacity="0.3"/>
<ellipse cx="49.5" cy="250.5" rx="27.5" ry="11.5" fill="white" fill-opacity="0.3"/>
<ellipse cx="188.5" cy="255.5" rx="10.5" ry="8.5" fill="#D9D9D9"/>
<ellipse cx="191" cy="255.5" rx="6" ry="4.5" fill="#B33636"/>
<ellipse cx="62.5" cy="250.5" rx="10.5" ry="8.5" fill="#D9D9D9"/>
<ellipse cx="65" cy="250.5" rx="6" ry="4.5" fill="#9B6EFA"/>
</svg>
