<svg width="1890" height="839" viewBox="0 0 1890 839" fill="none" xmlns="http://www.w3.org/2000/svg">
<path d="M1319.1 445.936H1176.57V315.429H1319.1V445.936Z" fill="#8C86D3"/>
<path d="M465.653 239.872H323.125V109.365H465.653V239.872Z" fill="#D3A632"/>
<path d="M1147.38 652H1004.85V521.493H1147.38V652Z" fill="#8C2525"/>
<path d="M389.066 207.646C376.244 207.646 366.8 204.212 360.732 197.343C354.665 190.474 351.631 181.087 351.631 169.181C351.631 157.16 354.951 147.773 361.591 141.019C368.231 134.15 377.274 130.716 388.722 130.716C392.844 130.716 396.679 131.116 400.228 131.918C403.891 132.605 407.268 133.749 410.359 135.352L406.066 144.11C403.433 142.85 400.628 141.935 397.652 141.362C394.79 140.675 391.756 140.332 388.551 140.332C380.995 140.332 375.042 142.85 370.692 147.888C366.342 152.925 364.166 160.08 364.166 169.352C364.166 188.471 372.581 198.03 389.409 198.03C392.844 198.03 396.049 197.801 399.026 197.343C402.117 196.885 404.921 196.198 407.44 195.282V204.899C404.921 205.7 402.117 206.387 399.026 206.959C396.049 207.417 392.729 207.646 389.066 207.646ZM317.459 236.323V103.069H450.713V236.323H317.459ZM326.903 226.879H441.269V112.513H326.903V226.879ZM521.634 206.101L551.341 132.433H561.129L590.494 206.101H578.817L569.887 183.777H542.068L533.311 206.101H521.634ZM545.846 174.504H566.624L558.897 153.554C558.554 152.41 558.21 151.265 557.867 150.12C557.523 148.975 557.237 147.83 557.008 146.686C556.779 145.541 556.607 144.396 556.493 143.251H555.806C555.806 144.281 555.692 145.369 555.463 146.514C555.348 147.544 555.119 148.689 554.776 149.948C554.547 151.093 554.146 152.295 553.574 153.554L545.846 174.504ZM489.179 236.323V103.069H622.434V236.323H489.179ZM498.623 226.879H612.989V112.513H498.623V226.879ZM707.95 206.101V132.433H728.557C738.173 132.433 745.385 134.322 750.193 138.1C755.001 141.763 757.405 147.315 757.405 154.756C757.405 159.908 756.261 164.258 753.971 167.807C751.681 171.241 748.247 173.874 743.668 175.706C739.203 177.423 733.536 178.282 726.668 178.282H719.799V206.101H707.95ZM719.799 169.009H725.637C730.56 169.009 734.395 168.551 737.143 167.635C739.89 166.605 741.836 165.059 742.981 162.999C744.24 160.938 744.87 158.305 744.87 155.1C744.87 150.75 743.439 147.487 740.577 145.312C737.715 143.022 733.422 141.877 727.698 141.877H719.799V169.009ZM660.899 236.323V103.069H794.154V236.323H660.899ZM670.343 226.879H784.709V112.513H670.343V226.879ZM898.044 207.474C893.923 207.474 890.031 207.131 886.367 206.444C882.704 205.757 879.212 204.727 875.892 203.353V192.535C879.67 194.252 883.448 195.568 887.226 196.484C891.004 197.286 894.724 197.686 898.388 197.686C903.425 197.686 907.203 196.77 909.721 194.939C912.24 193.107 913.499 190.417 913.499 186.868C913.499 184.12 912.469 181.831 910.408 179.999C908.348 178.053 905.714 176.393 902.509 175.019C899.418 173.531 896.213 172.1 892.893 170.726C887.97 168.551 884.135 165.804 881.387 162.484C878.64 159.049 877.266 154.814 877.266 149.777C877.266 144.053 879.499 139.416 883.963 135.867C888.428 132.204 894.495 130.372 902.166 130.372C905.943 130.372 909.664 130.773 913.327 131.574C917.105 132.261 920.769 133.349 924.317 134.837L920.883 143.938C918.021 142.679 915.102 141.706 912.125 141.019C909.263 140.332 906.23 139.988 903.024 139.988C898.674 139.988 895.354 140.79 893.064 142.393C890.889 143.995 889.802 146.457 889.802 149.777C889.802 152.295 890.374 154.356 891.519 155.958C892.664 157.561 894.495 159.049 897.014 160.423C899.647 161.682 903.081 163.228 907.317 165.059C913.728 167.693 918.422 170.669 921.398 173.989C924.489 177.194 926.035 181.201 926.035 186.009C926.035 190.474 924.89 194.309 922.6 197.515C920.311 200.72 917.048 203.181 912.812 204.899C908.691 206.616 903.768 207.474 898.044 207.474ZM832.619 236.323V103.069H965.874V236.323H832.619ZM842.064 226.879H956.429V112.513H842.064V226.879ZM1070.97 207.646C1061.12 207.646 1053.68 205.356 1048.64 200.777C1043.72 196.084 1041.26 189.158 1041.26 179.999V132.433H1053.11V180.343C1053.11 186.181 1054.6 190.589 1057.57 193.565C1060.55 196.427 1065.01 197.858 1070.97 197.858C1077.15 197.858 1081.61 196.255 1084.36 193.05C1087.22 189.844 1088.65 185.609 1088.65 180.343V132.433H1100.5V180.343C1100.5 189.386 1098.04 196.198 1093.12 200.777C1088.2 205.356 1080.81 207.646 1070.97 207.646ZM1004.34 236.323V103.069H1137.59V236.323H1004.34ZM1013.78 226.879H1128.15V112.513H1013.78V226.879ZM1225.86 205.929V132.433H1237.71V196.141H1269.65V205.929H1225.86ZM1176.06 236.323V103.069H1309.31V236.323H1176.06ZM1185.5 226.879H1299.87V112.513H1185.5V226.879ZM1393.46 206.101V132.433H1437.07V141.877H1405.31V162.999H1435.36V172.1H1405.31V196.656H1437.07V206.101H1393.46ZM1347.78 236.323V103.069H1481.03V236.323H1347.78ZM1357.22 226.879H1471.59V112.513H1357.22V226.879ZM1584.92 207.474C1580.8 207.474 1576.91 207.131 1573.25 206.444C1569.58 205.757 1566.09 204.727 1562.77 203.353V192.535C1566.55 194.252 1570.33 195.568 1574.11 196.484C1577.88 197.286 1581.6 197.686 1585.27 197.686C1590.31 197.686 1594.08 196.77 1596.6 194.939C1599.12 193.107 1600.38 190.417 1600.38 186.868C1600.38 184.12 1599.35 181.831 1597.29 179.999C1595.23 178.053 1592.59 176.393 1589.39 175.019C1586.3 173.531 1583.09 172.1 1579.77 170.726C1574.85 168.551 1571.02 165.804 1568.27 162.484C1565.52 159.049 1564.15 154.814 1564.15 149.777C1564.15 144.053 1566.38 139.416 1570.84 135.867C1575.31 132.204 1581.38 130.372 1589.05 130.372C1592.82 130.372 1596.54 130.773 1600.21 131.574C1603.99 132.261 1607.65 133.349 1611.2 134.837L1607.76 143.938C1604.9 142.679 1601.98 141.706 1599.01 141.019C1596.14 140.332 1593.11 139.988 1589.9 139.988C1585.55 139.988 1582.23 140.79 1579.94 142.393C1577.77 143.995 1576.68 146.457 1576.68 149.777C1576.68 152.295 1577.25 154.356 1578.4 155.958C1579.54 157.561 1581.38 159.049 1583.89 160.423C1586.53 161.682 1589.96 163.228 1594.2 165.059C1600.61 167.693 1605.3 170.669 1608.28 173.989C1611.37 177.194 1612.92 181.201 1612.92 186.009C1612.92 190.474 1611.77 194.309 1609.48 197.515C1607.19 200.72 1603.93 203.181 1599.69 204.899C1595.57 206.616 1590.65 207.474 1584.92 207.474ZM1519.5 236.323V103.069H1652.75V236.323H1519.5ZM1528.94 226.879H1643.31V112.513H1528.94V226.879ZM732.506 413.646C719.684 413.646 710.24 410.212 704.172 403.343C698.105 396.474 695.071 387.087 695.071 375.181C695.071 363.16 698.391 353.773 705.031 347.019C711.671 340.15 720.715 336.715 732.163 336.715C736.284 336.715 740.119 337.116 743.668 337.917C747.331 338.604 750.708 339.749 753.799 341.352L749.506 350.11C746.873 348.85 744.069 347.935 741.092 347.362C738.23 346.675 735.196 346.332 731.991 346.332C724.435 346.332 718.482 348.85 714.132 353.887C709.782 358.925 707.607 366.08 707.607 375.352C707.607 394.471 716.021 404.03 732.85 404.03C736.284 404.03 739.489 403.801 742.466 403.343C745.557 402.885 748.362 402.198 750.88 401.282V410.899C748.362 411.7 745.557 412.387 742.466 412.959C739.489 413.417 736.169 413.646 732.506 413.646ZM660.899 442.323V309.069H794.154V442.323H660.899ZM670.343 432.879H784.709V318.513H670.343V432.879ZM899.246 413.646C889.401 413.646 881.96 411.356 876.923 406.777C872 402.084 869.539 395.158 869.539 385.999V338.433H881.387V386.343C881.387 392.181 882.876 396.589 885.852 399.565C888.829 402.427 893.293 403.858 899.246 403.858C905.428 403.858 909.893 402.255 912.64 399.05C915.502 395.844 916.933 391.609 916.933 386.343V338.433H928.782V386.343C928.782 395.386 926.321 402.198 921.398 406.777C916.476 411.356 909.092 413.646 899.246 413.646ZM832.619 442.323V309.069H965.874V442.323H832.619ZM842.063 432.879H956.429V318.513H842.063V432.879ZM1045.21 412.101V338.433H1067.19C1073.94 338.433 1079.38 339.177 1083.5 340.665C1087.74 342.153 1090.83 344.5 1092.77 347.706C1094.72 350.796 1095.69 354.803 1095.69 359.726C1095.69 364.305 1094.38 368.197 1091.74 371.403C1089.23 374.494 1085.45 377.012 1080.41 378.959L1101.19 412.101H1087.45L1069.76 382.05H1057.06V412.101H1045.21ZM1057.06 372.948H1067.19C1072.57 372.948 1076.58 371.861 1079.21 369.686C1081.96 367.511 1083.33 364.305 1083.33 360.069C1083.33 355.261 1081.84 352.056 1078.87 350.453C1076 348.736 1071.88 347.877 1066.5 347.877H1057.06V372.948ZM1004.34 442.323V309.069H1137.59V442.323H1004.34ZM1013.78 432.879H1128.15V318.513H1013.78V432.879ZM1221.74 412.101V338.433H1265.35V347.877H1233.59V368.999H1263.64V378.1H1233.59V402.656H1265.35V412.101H1221.74ZM1176.06 442.323V309.069H1309.31V442.323H1176.06ZM1185.5 432.879H1299.87V318.513H1185.5V432.879ZM174.588 617.929V544.433H190.557L210.82 596.636C211.393 598.124 211.794 599.612 212.022 601.1C212.251 602.589 212.423 604.077 212.538 605.565H211.679C212.022 604.077 212.309 602.589 212.538 601.1C212.767 599.612 213.167 598.124 213.74 596.636L234.346 544.433H250.144V617.929H238.296V574.14C238.296 569.103 238.296 564.925 238.296 561.605C238.296 558.17 238.353 555.594 238.467 553.877L240.356 551.645L216.659 617.929H207.214L182.487 551.645L184.204 553.19C184.776 556.052 185.177 559.258 185.406 562.807C185.635 566.241 185.749 569.962 185.749 573.969V617.929H174.588ZM145.739 648.323V515.069H278.993V648.323H145.739ZM155.183 638.879H269.549V524.513H155.183V638.879ZM363.136 618.101V544.433H406.753V553.877H374.985V574.999H405.036V584.1H374.985V608.656H406.753V618.101H363.136ZM317.459 648.323V515.069H450.713V648.323H317.459ZM326.903 638.879H441.269V524.513H326.903V638.879ZM549.796 617.929V554.392H526.785V544.433H584.827V554.392H561.816V617.929H549.796ZM489.179 648.323V515.069H622.434V648.323H489.179ZM498.623 638.879H612.989V524.513H498.623V638.879ZM701.768 618.101V544.433H723.748C730.503 544.433 735.941 545.177 740.062 546.665C744.298 548.153 747.389 550.5 749.335 553.706C751.281 556.796 752.254 560.803 752.254 565.726C752.254 570.305 750.937 574.197 748.304 577.403C745.786 580.494 742.008 583.012 736.971 584.959L757.749 618.101H744.011L726.324 588.05H713.617V618.101H701.768ZM713.617 578.948H723.748C729.129 578.948 733.136 577.861 735.769 575.686C738.516 573.511 739.89 570.305 739.89 566.069C739.89 561.261 738.402 558.056 735.425 556.453C732.563 554.736 728.442 553.877 723.062 553.877H713.617V578.948ZM660.899 648.323V515.069H794.154V648.323H660.899ZM670.343 638.879H784.709V524.513H670.343V638.879ZM899.075 619.818C887.741 619.818 878.983 616.441 872.801 609.686C866.734 602.817 863.7 593.258 863.7 581.009C863.7 568.645 866.791 559.143 872.973 552.504C879.155 545.749 887.913 542.372 899.246 542.372C906.573 542.372 912.812 543.917 917.964 547.008C923.23 550.099 927.294 554.507 930.156 560.231C933.018 565.955 934.449 572.881 934.449 581.009C934.449 589.023 933.075 595.949 930.328 601.787C927.58 607.626 923.573 612.09 918.307 615.181C913.041 618.272 906.63 619.818 899.075 619.818ZM899.075 610.545C906.172 610.545 911.782 608.026 915.903 602.989C920.024 597.838 922.085 590.511 922.085 581.009C922.085 572.423 920.253 565.383 916.59 559.887C912.927 554.392 907.145 551.645 899.246 551.645C891.347 551.645 885.509 554.392 881.731 559.887C878.068 565.383 876.236 572.423 876.236 581.009C876.236 589.71 878.125 596.807 881.903 602.302C885.68 607.797 891.404 610.545 899.075 610.545ZM832.619 648.323V515.069H965.874V648.323H832.619ZM842.064 638.879H956.429V524.513H842.064V638.879ZM1051.39 618.101V544.433H1072C1081.61 544.433 1088.83 546.322 1093.63 550.099C1098.44 553.763 1100.85 559.315 1100.85 566.756C1100.85 571.908 1099.7 576.258 1097.41 579.807C1095.12 583.241 1091.69 585.874 1087.11 587.706C1082.64 589.423 1076.98 590.282 1070.11 590.282H1063.24V618.101H1051.39ZM1063.24 581.009H1069.08C1074 581.009 1077.84 580.551 1080.58 579.635C1083.33 578.605 1085.28 577.059 1086.42 574.999C1087.68 572.938 1088.31 570.305 1088.31 567.1C1088.31 562.749 1086.88 559.487 1084.02 557.312C1081.16 555.022 1076.86 553.877 1071.14 553.877H1063.24V581.009ZM1004.34 648.323V515.069H1137.59V648.323H1004.34ZM1013.78 638.879H1128.15V524.513H1013.78V638.879ZM1242.51 619.818C1231.18 619.818 1222.42 616.441 1216.24 609.686C1210.17 602.817 1207.14 593.258 1207.14 581.009C1207.14 568.645 1210.23 559.143 1216.41 552.504C1222.6 545.749 1231.35 542.372 1242.69 542.372C1250.01 542.372 1256.25 543.917 1261.4 547.008C1266.67 550.099 1270.73 554.507 1273.6 560.231C1276.46 565.955 1277.89 572.881 1277.89 581.009C1277.89 589.023 1276.52 595.949 1273.77 601.787C1271.02 607.626 1267.01 612.09 1261.75 615.181C1256.48 618.272 1250.07 619.818 1242.51 619.818ZM1242.51 610.545C1249.61 610.545 1255.22 608.026 1259.34 602.989C1263.46 597.838 1265.53 590.511 1265.53 581.009C1265.53 572.423 1263.69 565.383 1260.03 559.887C1256.37 554.392 1250.59 551.645 1242.69 551.645C1234.79 551.645 1228.95 554.392 1225.17 559.887C1221.51 565.383 1219.68 572.423 1219.68 581.009C1219.68 589.71 1221.57 596.807 1225.34 602.302C1229.12 607.797 1234.84 610.545 1242.51 610.545ZM1176.06 648.323V515.069H1309.31V648.323H1176.06ZM1185.5 638.879H1299.87V524.513H1185.5V638.879ZM1397.58 617.929V544.433H1409.43V608.141H1441.37V617.929H1397.58ZM1347.78 648.323V515.069H1481.03V648.323H1347.78ZM1357.22 638.879H1471.59V524.513H1357.22V638.879ZM1571.02 617.929V610.888L1580.12 608.999V553.534L1571.02 551.301V544.433H1601.41V551.301L1592.14 553.534V608.999L1601.41 610.888V617.929H1571.02ZM1519.5 648.323V515.069H1652.75V648.323H1519.5ZM1528.94 638.879H1643.31V524.513H1528.94V638.879ZM1756.64 619.474C1752.52 619.474 1748.63 619.131 1744.97 618.444C1741.3 617.757 1737.81 616.727 1734.49 615.353V604.535C1738.27 606.252 1742.05 607.568 1745.83 608.484C1749.6 609.286 1753.32 609.686 1756.99 609.686C1762.03 609.686 1765.8 608.77 1768.32 606.939C1770.84 605.107 1772.1 602.417 1772.1 598.868C1772.1 596.12 1771.07 593.831 1769.01 591.999C1766.95 590.053 1764.32 588.393 1761.11 587.019C1758.02 585.531 1754.81 584.1 1751.49 582.726C1746.57 580.551 1742.74 577.804 1739.99 574.484C1737.24 571.049 1735.87 566.814 1735.87 561.776C1735.87 556.052 1738.1 551.416 1742.56 547.867C1747.03 544.204 1753.1 542.372 1760.77 542.372C1764.54 542.372 1768.26 542.773 1771.93 543.574C1775.71 544.261 1779.37 545.348 1782.92 546.837L1779.48 555.938C1776.62 554.679 1773.7 553.706 1770.73 553.019C1767.86 552.332 1764.83 551.988 1761.62 551.988C1757.27 551.988 1753.95 552.79 1751.66 554.392C1749.49 555.995 1748.4 558.456 1748.4 561.776C1748.4 564.295 1748.97 566.356 1750.12 567.958C1751.26 569.561 1753.1 571.049 1755.61 572.423C1758.25 573.682 1761.68 575.228 1765.92 577.059C1772.33 579.693 1777.02 582.669 1780 585.989C1783.09 589.194 1784.64 593.201 1784.64 598.009C1784.64 602.474 1783.49 606.309 1781.2 609.515C1778.91 612.72 1775.65 615.181 1771.41 616.899C1767.29 618.616 1762.37 619.474 1756.64 619.474ZM1691.22 648.323V515.069H1824.47V648.323H1691.22ZM1700.66 638.879H1815.03V524.513H1700.66V638.879Z" fill="#142E29"/>
<path d="M1702.72 426.501H1683.15V451.818H1702.72V426.501Z" fill="#142E29"/>
<path d="M1728.81 426.501H1709.24V451.818H1728.81V426.501Z" fill="#142E29"/>
<path d="M1754.89 426.501H1735.32V451.818H1754.89V426.501Z" fill="#142E29"/>
<path d="M1728.81 456.882H1709.24V482.199H1728.81V456.882Z" fill="#142E29"/>
<path d="M1728.81 487.263H1709.24V512.58H1728.81V487.263Z" fill="#142E29"/>
<path d="M1780.98 426.501H1761.41V451.818H1780.98V426.501Z" fill="#142E29"/>
<path d="M1807.07 426.501H1787.5V451.818H1807.07V426.501Z" fill="#142E29"/>
<path d="M1807.07 456.882H1787.5V482.199H1807.07V456.882Z" fill="#142E29"/>
<path d="M1807.07 487.263H1787.5V512.58H1807.07V487.263Z" fill="#142E29"/>
<path d="M1807.07 396.12H1787.5V421.438H1807.07V396.12Z" fill="#142E29"/>
<path d="M1780.98 396.12H1761.41V421.438H1780.98V396.12Z" fill="#8C2525"/>
<path d="M1780.98 456.882H1761.41V482.199H1780.98V456.882Z" fill="#191369"/>
<path d="M1780.98 487.263H1761.41V512.58H1780.98V487.263Z" fill="#191369"/>
<path d="M1754.89 487.263H1735.32V512.58H1754.89V487.263Z" fill="#191369"/>
<path d="M1780.98 365.739H1761.41V391.056H1780.98V365.739Z" fill="#142E29"/>
<path d="M1767.94 335.358H1748.37V360.675H1767.94V335.358Z" fill="#142E29"/>
<path d="M1754.89 396.12H1735.32V421.438H1754.89V396.12Z" fill="#142E29"/>
<path d="M1754.89 456.882H1735.32V482.199H1754.89V456.882Z" fill="#142E29"/>
<path d="M1728.81 396.12H1709.24V421.438H1728.81V396.12Z" fill="#142E29"/>
<path d="M1754.89 365.739H1735.32V391.056H1754.89V365.739Z" fill="#D3A632"/>
<path d="M1833.15 426.501H1813.58V451.818H1833.15V426.501Z" fill="#142E29"/>
<path d="M1854.87 425.417V422.521H1695.6V425.417H1854.87Z" fill="#8C2525"/>
<path d="M1759.89 270.782H1756.99V465.958H1759.89V270.782Z" fill="#8C2525"/>
<path d="M144.333 700L185.667 670H103L144.333 700Z" fill="#8C2525"/>
<path d="M600 326H601.93L623.644 371.763L601.93 416H600V326Z" fill="#D3A632"/>
</svg>
