<svg width="93" height="174" viewBox="0 0 93 174" fill="none" xmlns="http://www.w3.org/2000/svg">
<rect x="-0.898288" y="0.898288" width="91.0372" height="143.288" transform="matrix(-1 0 0 1 91.0373 28.9155)" fill="#FDDF92" stroke="#8C2525" stroke-width="1.79658"/>
<rect x="11.8749" y="157.502" width="6.24278" height="13.3838" fill="#8C2525" stroke="#8C2525" stroke-width="0.898288"/>
<path d="M13.2613 58.2841V47.1346H15.684L18.7579 55.0539C18.8447 55.2796 18.9055 55.5054 18.9403 55.7312C18.975 55.9569 19.001 56.1827 19.0184 56.4085H18.8882C18.9403 56.1827 18.9837 55.9569 19.0184 55.7312C19.0531 55.5054 19.1139 55.2796 19.2008 55.0539L22.3268 47.1346H24.7234V58.2841H22.926V51.6413C22.926 50.8771 22.926 50.2432 22.926 49.7396C22.926 49.2186 22.9346 48.8278 22.952 48.5673L23.2386 48.2287L19.6436 58.2841H18.2108L14.4596 48.2287L14.7201 48.4631C14.8069 48.8973 14.8677 49.3836 14.9025 49.922C14.9372 50.443 14.9546 51.0074 14.9546 51.6152V58.2841H13.2613ZM8.88482 62.895V42.68H29.0999V62.895H8.88482ZM10.3176 61.4623H27.6671V44.1127H10.3176V61.4623ZM41.8646 58.3102V47.1346H48.4813V48.5673H43.662V51.7715H48.2208V53.1522H43.662V56.8774H48.4813V58.3102H41.8646ZM34.9352 62.895V42.68H55.1502V62.895H34.9352ZM36.3679 61.4623H53.7175V44.1127H36.3679V61.4623ZM70.1813 58.2841V48.6455H66.6905V47.1346H75.4955V48.6455H72.0048V58.2841H70.1813ZM60.9855 62.895V42.68H81.2006V62.895H60.9855ZM62.4183 61.4623H79.7678V44.1127H62.4183V61.4623ZM15.0848 89.3102V78.1346H18.4192C19.4439 78.1346 20.2688 78.2475 20.894 78.4732C21.5366 78.699 22.0055 79.055 22.3007 79.5413C22.596 80.0102 22.7436 80.618 22.7436 81.3648C22.7436 82.0595 22.5439 82.65 22.1444 83.1362C21.7624 83.6051 21.1893 83.9872 20.4251 84.2824L23.5772 89.3102H21.4932L18.81 84.7514H16.8823V89.3102H15.0848ZM16.8823 83.3707H18.4192C19.2355 83.3707 19.8433 83.2057 20.2428 82.8757C20.6596 82.5458 20.868 82.0595 20.868 81.4169C20.868 80.6875 20.6422 80.2012 20.1907 79.9581C19.7565 79.6976 19.1313 79.5673 18.315 79.5673H16.8823V83.3707ZM8.88482 93.895V73.68H29.0999V93.895H8.88482ZM10.3176 92.4623H27.6671V75.1127H10.3176V92.4623ZM45.0166 89.5707C43.2973 89.5707 41.9688 89.0583 41.0309 88.0337C40.1105 86.9917 39.6503 85.5415 39.6503 83.6833C39.6503 81.8077 40.1192 80.3662 41.057 79.3589C41.9948 78.3343 43.3234 77.822 45.0427 77.822C46.1542 77.822 47.1007 78.0564 47.8822 78.5253C48.6811 78.9942 49.2976 79.6629 49.7318 80.5312C50.1659 81.3995 50.383 82.4502 50.383 83.6833C50.383 84.899 50.1746 85.9497 49.7578 86.8354C49.341 87.7211 48.7332 88.3984 47.9343 88.8673C47.1354 89.3362 46.1629 89.5707 45.0166 89.5707ZM45.0166 88.1639C46.0934 88.1639 46.9444 87.7819 47.5696 87.0177C48.1948 86.2362 48.5074 85.1247 48.5074 83.6833C48.5074 82.3808 48.2295 81.3127 47.6738 80.4791C47.118 79.6455 46.241 79.2287 45.0427 79.2287C43.8444 79.2287 42.9587 79.6455 42.3856 80.4791C41.8298 81.3127 41.552 82.3808 41.552 83.6833C41.552 85.0032 41.8385 86.0799 42.4116 86.9135C42.9847 87.7471 43.8531 88.1639 45.0166 88.1639ZM34.9352 93.895V73.68H55.1502V93.895H34.9352ZM36.3679 92.4623H53.7175V75.1127H36.3679V92.4623ZM68.1233 89.3102V78.1346H71.2493C72.7082 78.1346 73.8023 78.4211 74.5317 78.9942C75.2611 79.55 75.6258 80.3923 75.6258 81.5211C75.6258 82.3026 75.4521 82.9626 75.1048 83.5009C74.7575 84.0219 74.2364 84.4214 73.5418 84.6993C72.8645 84.9598 72.0048 85.09 70.9628 85.09H69.9208V89.3102H68.1233ZM69.9208 83.6833H70.8065C71.5533 83.6833 72.1351 83.6138 72.5519 83.4749C72.9687 83.3186 73.2639 83.0841 73.4376 82.7715C73.6286 82.4589 73.7241 82.0595 73.7241 81.5732C73.7241 80.9133 73.507 80.4183 73.0729 80.0883C72.6387 79.741 71.9874 79.5673 71.1191 79.5673H69.9208V83.6833ZM60.9855 93.895V73.68H81.2006V93.895H60.9855ZM62.4183 92.4623H79.7678V75.1127H62.4183V92.4623ZM18.9663 120.571C17.247 120.571 15.9184 120.058 14.9806 119.034C14.0602 117.992 13.5999 116.542 13.5999 114.683C13.5999 112.808 14.0688 111.366 15.0067 110.359C15.9445 109.334 17.273 108.822 18.9924 108.822C20.1038 108.822 21.0503 109.056 21.8318 109.525C22.6307 109.994 23.2472 110.663 23.6814 111.531C24.1156 112.4 24.3327 113.45 24.3327 114.683C24.3327 115.899 24.1243 116.95 23.7075 117.835C23.2907 118.721 22.6828 119.398 21.8839 119.867C21.0851 120.336 20.1125 120.571 18.9663 120.571ZM18.9663 119.164C20.0431 119.164 20.894 118.782 21.5192 118.018C22.1444 117.236 22.457 116.125 22.457 114.683C22.457 113.381 22.1792 112.313 21.6234 111.479C21.0677 110.645 20.1907 110.229 18.9924 110.229C17.794 110.229 16.9083 110.645 16.3352 111.479C15.7795 112.313 15.5016 113.381 15.5016 114.683C15.5016 116.003 15.7882 117.08 16.3613 117.914C16.9344 118.747 17.8027 119.164 18.9663 119.164ZM8.88482 124.895V104.68H29.0999V124.895H8.88482ZM10.3176 123.462H27.6671V106.113H10.3176V123.462ZM42.4898 120.284V109.135H44.2872V118.799H49.1326V120.284H42.4898ZM34.9352 124.895V104.68H55.1502V124.895H34.9352ZM36.3679 123.462H53.7175V106.113H36.3679V123.462ZM68.8006 120.284V119.216L70.1813 118.929V110.515L68.8006 110.177V109.135H73.4115V110.177L72.0048 110.515V118.929L73.4115 119.216V120.284H68.8006ZM60.9855 124.895V104.68H81.2006V124.895H60.9855ZM62.4183 123.462H79.7678V106.113H62.4183V123.462ZM44.8603 151.519C44.2351 151.519 43.6447 151.466 43.0889 151.362C42.5332 151.258 42.0035 151.102 41.4999 150.893V149.252C42.073 149.513 42.6461 149.712 43.2192 149.851C43.7923 149.973 44.3567 150.034 44.9124 150.034C45.6766 150.034 46.2497 149.895 46.6318 149.617C47.0138 149.339 47.2049 148.931 47.2049 148.393C47.2049 147.976 47.0486 147.628 46.736 147.351C46.4234 147.055 46.0239 146.803 45.5377 146.595C45.0687 146.369 44.5825 146.152 44.0788 145.944C43.3321 145.614 42.7503 145.197 42.3335 144.693C41.9167 144.172 41.7083 143.53 41.7083 142.766C41.7083 141.897 42.0469 141.194 42.7242 140.656C43.4015 140.1 44.322 139.822 45.4856 139.822C46.0587 139.822 46.6231 139.883 47.1788 140.004C47.7519 140.109 48.3077 140.274 48.846 140.499L48.325 141.88C47.8909 141.689 47.448 141.541 46.9965 141.437C46.5623 141.333 46.1021 141.281 45.6158 141.281C44.9559 141.281 44.4522 141.402 44.1049 141.645C43.7749 141.889 43.6099 142.262 43.6099 142.766C43.6099 143.148 43.6968 143.46 43.8704 143.703C44.0441 143.947 44.322 144.172 44.704 144.381C45.1035 144.572 45.6245 144.806 46.2671 145.084C47.2396 145.484 47.9517 145.935 48.4032 146.439C48.8721 146.925 49.1066 147.533 49.1066 148.262C49.1066 148.94 48.9329 149.521 48.5855 150.008C48.2382 150.494 47.7433 150.867 47.1007 151.128C46.4755 151.388 45.7287 151.519 44.8603 151.519ZM34.9352 155.895V135.68H55.1502V155.895H34.9352ZM36.3679 154.462H53.7175V137.113H36.3679V154.462Z" fill="#8C2525"/>
<circle cx="13.1895" cy="164.362" r="0.507289" fill="#D9D9D9"/>
<rect x="75.0788" y="7.10204" width="3.04373" height="21.8134" fill="#8C2525"/>
<rect width="24.6265" height="3.60368" transform="matrix(0.861833 0.507192 -0.454648 0.890671 66.5714 0)" fill="#8C2525"/>
<rect width="24.6265" height="3.60368" transform="matrix(-0.861833 0.507192 0.454648 0.890671 86.1569 0)" fill="#8C2525"/>
</svg>
