<svg width="160" height="728" viewBox="0 0 160 728" fill="none" xmlns="http://www.w3.org/2000/svg">
<path d="M80.6364 357.65L17 342L104 430.006L54.7041 517.784L84.4769 572L80.6364 357.65Z" fill="#839BA0"/>
<path d="M77.6364 189.65L14 174L101 262.006L51.7041 349.784L81.4769 404L77.6364 189.65Z" fill="#839BA0"/>
<path d="M72.3636 15.6501L136 0L49 88.0055L98.2959 175.784L68.5231 230L72.3636 15.6501Z" fill="#839BA0"/>
<path d="M0 572H160L126.5 635L160 690H0L41.5 635L0 572Z" fill="#8C2525"/>
<path d="M53.818 593.438C53.194 593.438 52.6047 593.386 52.05 593.282C51.4953 593.178 50.9667 593.022 50.464 592.814V591.176C51.036 591.436 51.608 591.635 52.18 591.774C52.752 591.895 53.3153 591.956 53.87 591.956C54.6327 591.956 55.2047 591.817 55.586 591.54C55.9673 591.263 56.158 590.855 56.158 590.318C56.158 589.902 56.002 589.555 55.69 589.278C55.378 588.983 54.9793 588.732 54.494 588.524C54.026 588.299 53.5407 588.082 53.038 587.874C52.2927 587.545 51.712 587.129 51.296 586.626C50.88 586.106 50.672 585.465 50.672 584.702C50.672 583.835 51.01 583.133 51.686 582.596C52.362 582.041 53.2807 581.764 54.442 581.764C55.014 581.764 55.5773 581.825 56.132 581.946C56.704 582.05 57.2587 582.215 57.796 582.44L57.276 583.818C56.8427 583.627 56.4007 583.48 55.95 583.376C55.5167 583.272 55.0573 583.22 54.572 583.22C53.9133 583.22 53.4107 583.341 53.064 583.584C52.7347 583.827 52.57 584.199 52.57 584.702C52.57 585.083 52.6567 585.395 52.83 585.638C53.0033 585.881 53.2807 586.106 53.662 586.314C54.0607 586.505 54.5807 586.739 55.222 587.016C56.1927 587.415 56.9033 587.865 57.354 588.368C57.822 588.853 58.056 589.46 58.056 590.188C58.056 590.864 57.8827 591.445 57.536 591.93C57.1893 592.415 56.6953 592.788 56.054 593.048C55.43 593.308 54.6847 593.438 53.818 593.438ZM43.912 597.806V577.63H64.088V597.806H43.912ZM45.342 596.376H62.658V579.06H45.342V596.376ZM76.828 593.23V582.076H83.432V583.506H78.622V586.704H83.172V588.082H78.622V591.8H83.432V593.23H76.828ZM69.912 597.806V577.63H90.088V597.806H69.912ZM71.342 596.376H88.658V579.06H71.342V596.376ZM102.828 593.23V582.076H109.432V583.506H104.622V586.704H109.172V588.082H104.622V591.8H109.432V593.23H102.828ZM95.912 597.806V577.63H116.088V597.806H95.912ZM97.342 596.376H114.658V579.06H97.342V596.376ZM53.116 624.204V619.914L49.372 613.076H51.244L54 618.406L56.782 613.076H58.576L54.884 619.836V624.204H53.116ZM43.912 628.806V608.63H64.088V628.806H43.912ZM45.342 627.376H62.658V610.06H45.342V627.376ZM79.974 624.49C78.258 624.49 76.932 623.979 75.996 622.956C75.0773 621.916 74.618 620.469 74.618 618.614C74.618 616.742 75.086 615.303 76.022 614.298C76.958 613.275 78.284 612.764 80 612.764C81.1093 612.764 82.054 612.998 82.834 613.466C83.6313 613.934 84.2467 614.601 84.68 615.468C85.1133 616.335 85.33 617.383 85.33 618.614C85.33 619.827 85.122 620.876 84.706 621.76C84.29 622.644 83.6833 623.32 82.886 623.788C82.0887 624.256 81.118 624.49 79.974 624.49ZM79.974 623.086C81.0487 623.086 81.898 622.705 82.522 621.942C83.146 621.162 83.458 620.053 83.458 618.614C83.458 617.314 83.1807 616.248 82.626 615.416C82.0713 614.584 81.196 614.168 80 614.168C78.804 614.168 77.92 614.584 77.348 615.416C76.7933 616.248 76.516 617.314 76.516 618.614C76.516 619.931 76.802 621.006 77.374 621.838C77.946 622.67 78.8127 623.086 79.974 623.086ZM69.912 628.806V608.63H90.088V628.806H69.912ZM71.342 627.376H88.658V610.06H71.342V627.376ZM106 624.464C104.509 624.464 103.383 624.117 102.62 623.424C101.875 622.713 101.502 621.665 101.502 620.278V613.076H103.296V620.33C103.296 621.214 103.521 621.881 103.972 622.332C104.423 622.765 105.099 622.982 106 622.982C106.936 622.982 107.612 622.739 108.028 622.254C108.461 621.769 108.678 621.127 108.678 620.33V613.076H110.472V620.33C110.472 621.699 110.099 622.731 109.354 623.424C108.609 624.117 107.491 624.464 106 624.464ZM95.912 628.806V608.63H116.088V628.806H95.912ZM97.342 627.376H114.658V610.06H97.342V627.376ZM15.754 655.464C13.8127 655.464 12.3827 654.944 11.464 653.904C10.5453 652.864 10.086 651.443 10.086 649.64C10.086 647.82 10.5887 646.399 11.594 645.376C12.5993 644.336 13.9687 643.816 15.702 643.816C16.326 643.816 16.9067 643.877 17.444 643.998C17.9987 644.102 18.51 644.275 18.978 644.518L18.328 645.844C17.9293 645.653 17.5047 645.515 17.054 645.428C16.6207 645.324 16.1613 645.272 15.676 645.272C14.532 645.272 13.6307 645.653 12.972 646.416C12.3133 647.179 11.984 648.262 11.984 649.666C11.984 652.561 13.258 654.008 15.806 654.008C16.326 654.008 16.8113 653.973 17.262 653.904C17.73 653.835 18.1547 653.731 18.536 653.592V655.048C18.1547 655.169 17.73 655.273 17.262 655.36C16.8113 655.429 16.3087 655.464 15.754 655.464ZM4.912 659.806V639.63H25.088V659.806H4.912ZM6.342 658.376H23.658V641.06H6.342V658.376ZM36.528 655.204V644.076H38.322V648.574H43.678V644.076H45.472V655.204H43.678V650.082H38.322V655.204H36.528ZM30.912 659.806V639.63H51.088V659.806H30.912ZM32.342 658.376H49.658V641.06H32.342V658.376ZM67 655.464C65.5093 655.464 64.3827 655.117 63.62 654.424C62.8747 653.713 62.502 652.665 62.502 651.278V644.076H64.296V651.33C64.296 652.214 64.5213 652.881 64.972 653.332C65.4227 653.765 66.0987 653.982 67 653.982C67.936 653.982 68.612 653.739 69.028 653.254C69.4613 652.769 69.678 652.127 69.678 651.33V644.076H71.472V651.33C71.472 652.699 71.0993 653.731 70.354 654.424C69.6087 655.117 68.4907 655.464 67 655.464ZM56.912 659.806V639.63H77.088V659.806H56.912ZM58.342 658.376H75.658V641.06H58.342V658.376ZM87.28 655.204V644.076H89.698L92.766 651.98C92.8527 652.205 92.9133 652.431 92.948 652.656C92.9827 652.881 93.0087 653.107 93.026 653.332H92.896C92.948 653.107 92.9913 652.881 93.026 652.656C93.0607 652.431 93.1213 652.205 93.208 651.98L96.328 644.076H98.72V655.204H96.926V648.574C96.926 647.811 96.926 647.179 96.926 646.676C96.926 646.156 96.9347 645.766 96.952 645.506L97.238 645.168L93.65 655.204H92.22L88.476 645.168L88.736 645.402C88.8227 645.835 88.8833 646.321 88.918 646.858C88.9527 647.378 88.97 647.941 88.97 648.548V655.204H87.28ZM82.912 659.806V639.63H103.088V659.806H82.912ZM84.342 658.376H101.658V641.06H84.342V658.376ZM116.036 655.23V644.076H119.156C120.612 644.076 121.704 644.362 122.432 644.934C123.16 645.489 123.524 646.329 123.524 647.456C123.524 648.236 123.351 648.895 123.004 649.432C122.657 649.952 122.137 650.351 121.444 650.628C120.768 650.888 119.91 651.018 118.87 651.018H117.83V655.23H116.036ZM117.83 649.614H118.714C119.459 649.614 120.04 649.545 120.456 649.406C120.872 649.25 121.167 649.016 121.34 648.704C121.531 648.392 121.626 647.993 121.626 647.508C121.626 646.849 121.409 646.355 120.976 646.026C120.543 645.679 119.893 645.506 119.026 645.506H117.83V649.614ZM108.912 659.806V639.63H129.088V659.806H108.912ZM110.342 658.376H127.658V641.06H110.342V658.376ZM144.818 655.438C144.194 655.438 143.605 655.386 143.05 655.282C142.495 655.178 141.967 655.022 141.464 654.814V653.176C142.036 653.436 142.608 653.635 143.18 653.774C143.752 653.895 144.315 653.956 144.87 653.956C145.633 653.956 146.205 653.817 146.586 653.54C146.967 653.263 147.158 652.855 147.158 652.318C147.158 651.902 147.002 651.555 146.69 651.278C146.378 650.983 145.979 650.732 145.494 650.524C145.026 650.299 144.541 650.082 144.038 649.874C143.293 649.545 142.712 649.129 142.296 648.626C141.88 648.106 141.672 647.465 141.672 646.702C141.672 645.835 142.01 645.133 142.686 644.596C143.362 644.041 144.281 643.764 145.442 643.764C146.014 643.764 146.577 643.825 147.132 643.946C147.704 644.05 148.259 644.215 148.796 644.44L148.276 645.818C147.843 645.627 147.401 645.48 146.95 645.376C146.517 645.272 146.057 645.22 145.572 645.22C144.913 645.22 144.411 645.341 144.064 645.584C143.735 645.827 143.57 646.199 143.57 646.702C143.57 647.083 143.657 647.395 143.83 647.638C144.003 647.881 144.281 648.106 144.662 648.314C145.061 648.505 145.581 648.739 146.222 649.016C147.193 649.415 147.903 649.865 148.354 650.368C148.822 650.853 149.056 651.46 149.056 652.188C149.056 652.864 148.883 653.445 148.536 653.93C148.189 654.415 147.695 654.788 147.054 655.048C146.43 655.308 145.685 655.438 144.818 655.438ZM134.912 659.806V639.63H155.088V659.806H134.912ZM136.342 658.376H153.658V641.06H136.342V658.376ZM25.1429 686.49C23.4269 686.49 22.1009 685.979 21.1649 684.956C20.2463 683.916 19.7869 682.469 19.7869 680.614C19.7869 678.742 20.2549 677.303 21.1909 676.298C22.1269 675.275 23.4529 674.764 25.1689 674.764C26.2783 674.764 27.2229 674.998 28.0029 675.466C28.8003 675.934 29.4156 676.601 29.8489 677.468C30.2823 678.335 30.4989 679.383 30.4989 680.614C30.4989 681.827 30.2909 682.876 29.8749 683.76C29.4589 684.644 28.8523 685.32 28.0549 685.788C27.2576 686.256 26.2869 686.49 25.1429 686.49ZM25.1429 685.086C26.2176 685.086 27.0669 684.705 27.6909 683.942C28.3149 683.162 28.6269 682.053 28.6269 680.614C28.6269 679.314 28.3496 678.248 27.7949 677.416C27.2403 676.584 26.3649 676.168 25.1689 676.168C23.9729 676.168 23.0889 676.584 22.5169 677.416C21.9623 678.248 21.6849 679.314 21.6849 680.614C21.6849 681.931 21.9709 683.006 22.5429 683.838C23.1149 684.67 23.9816 685.086 25.1429 685.086ZM15.0809 690.806V670.63H35.2569V690.806H15.0809ZM16.5109 689.376H33.8269V672.06H16.5109V689.376ZM46.6709 686.204V675.076H48.5689L54.3149 684.15L54.0029 684.046C54.0029 683.647 53.9943 683.249 53.9769 682.85C53.9596 682.434 53.9509 682.027 53.9509 681.628V675.076H55.6669V686.204H53.7689L47.9969 677.078L48.3089 677.182C48.3263 677.615 48.3436 678.04 48.3609 678.456C48.3783 678.872 48.3869 679.288 48.3869 679.704V686.204H46.6709ZM41.0809 690.806V670.63H61.2569V690.806H41.0809ZM42.5109 689.376H59.8269V672.06H42.5109V689.376ZM81.9211 686.204V676.584H78.4371V675.076H87.2251V676.584H83.7411V686.204H81.9211ZM72.7431 690.806V670.63H92.9191V690.806H72.7431ZM74.1731 689.376H91.4891V672.06H74.1731V689.376ZM108.805 686.49C107.089 686.49 105.763 685.979 104.827 684.956C103.908 683.916 103.449 682.469 103.449 680.614C103.449 678.742 103.917 677.303 104.853 676.298C105.789 675.275 107.115 674.764 108.831 674.764C109.94 674.764 110.885 674.998 111.665 675.466C112.462 675.934 113.078 676.601 113.511 677.468C113.944 678.335 114.161 679.383 114.161 680.614C114.161 681.827 113.953 682.876 113.537 683.76C113.121 684.644 112.514 685.32 111.717 685.788C110.92 686.256 109.949 686.49 108.805 686.49ZM108.805 685.086C109.88 685.086 110.729 684.705 111.353 683.942C111.977 683.162 112.289 682.053 112.289 680.614C112.289 679.314 112.012 678.248 111.457 677.416C110.902 676.584 110.027 676.168 108.831 676.168C107.635 676.168 106.751 676.584 106.179 677.416C105.624 678.248 105.347 679.314 105.347 680.614C105.347 681.931 105.633 683.006 106.205 683.838C106.777 684.67 107.644 685.086 108.805 685.086ZM98.7431 690.806V670.63H118.919V690.806H98.7431ZM100.173 689.376H117.489V672.06H100.173V689.376ZM131.867 686.23V675.076H134.987C136.443 675.076 137.535 675.362 138.263 675.934C138.991 676.489 139.355 677.329 139.355 678.456C139.355 679.236 139.182 679.895 138.835 680.432C138.488 680.952 137.968 681.351 137.275 681.628C136.599 681.888 135.741 682.018 134.701 682.018H133.661V686.23H131.867ZM133.661 680.614H134.545C135.29 680.614 135.871 680.545 136.287 680.406C136.703 680.25 136.998 680.016 137.171 679.704C137.362 679.392 137.457 678.993 137.457 678.508C137.457 677.849 137.24 677.355 136.807 677.026C136.374 676.679 135.724 676.506 134.857 676.506H133.661V680.614ZM124.743 690.806V670.63H144.919V690.806H124.743ZM126.173 689.376H143.489V672.06H126.173V689.376Z" fill="#839BA0"/>
<rect x="27" y="668.804" width="109" height="58.3929" fill="#D3A632" fill-opacity="0.29"/>
</svg>
