<svg width="607" height="309" viewBox="0 0 607 309" fill="none" xmlns="http://www.w3.org/2000/svg">
<rect width="607" height="309" fill="#D5CEB6"/>
<path d="M299 52.5558C239.434 52.5558 190.954 98.6286 190.954 155.188C190.954 211.748 239.457 257.821 299 257.821C358.543 257.821 407.046 211.748 407.046 155.188C407.046 98.6286 358.543 52.5558 299 52.5558ZM298.84 61.6748C300.687 61.7202 302.443 62.4517 303.733 63.7131C305.022 64.9745 305.743 66.6662 305.743 68.4272C305.743 70.2181 304.994 71.9356 303.661 73.2019C302.328 74.4682 300.52 75.1796 298.634 75.1796C296.749 75.1796 294.941 74.4682 293.608 73.2019C292.275 71.9356 291.526 70.2181 291.526 68.4272C291.525 67.5238 291.716 66.6295 292.086 65.7972C292.456 64.965 292.998 64.2117 293.68 63.5821C294.362 62.9525 295.17 62.4592 296.056 62.1316C296.943 61.804 297.889 61.6486 298.84 61.6748ZM315.114 72.7913C327.593 75.0116 339.414 79.7857 349.756 86.782C360.097 93.7783 368.711 102.829 375 113.306L366.611 131.283C365.171 134.388 366.657 138.036 369.903 139.425L386.04 146.221C386.541 151.013 386.602 155.837 386.223 160.638H377.24C376.349 160.638 375.983 161.203 375.983 162.028V165.936C375.983 175.142 370.52 177.161 365.72 177.66C361.149 178.16 356.097 175.836 355.457 173.188C352.76 158.793 348.28 155.731 341.194 150.412C349.994 145.114 359.137 137.276 359.137 126.811C359.137 115.499 350.977 108.377 345.423 104.882C337.606 99.9965 328.966 99.0194 326.634 99.0194H233.834C246.666 85.4025 263.866 76.184 282.771 72.7913L293.72 83.6908C296.189 86.1442 300.28 86.2528 302.863 83.8862L315.114 72.7913ZM214.086 122.772C215.935 122.823 217.691 123.557 218.98 124.818C220.269 126.079 220.989 127.767 220.989 129.525C220.989 131.316 220.24 133.033 218.907 134.299C217.573 135.566 215.765 136.277 213.88 136.277C211.995 136.277 210.187 135.566 208.853 134.299C207.52 133.033 206.771 131.316 206.771 129.525C206.771 128.621 206.961 127.727 207.332 126.895C207.702 126.063 208.244 125.309 208.926 124.68C209.608 124.05 210.416 123.557 211.302 123.229C212.189 122.902 213.135 122.746 214.086 122.772ZM383.571 123.076C385.421 123.127 387.177 123.861 388.465 125.122C389.754 126.383 390.475 128.071 390.474 129.829C390.474 131.62 389.725 133.337 388.392 134.603C387.059 135.87 385.251 136.581 383.366 136.581C381.48 136.581 379.672 135.87 378.339 134.603C377.006 133.337 376.257 131.62 376.257 129.829C376.257 128.925 376.447 128.031 376.817 127.199C377.187 126.367 377.729 125.613 378.411 124.984C379.093 124.354 379.902 123.861 380.788 123.533C381.674 123.206 382.621 123.05 383.571 123.076ZM227.48 124.162H239.869V177.226H214.863C211.775 166.925 210.812 156.153 212.029 145.505L227.343 139.035C230.611 137.645 232.097 134.019 230.634 130.914L227.48 124.162ZM279.183 124.726H308.691C310.223 124.726 319.457 126.398 319.457 132.977C319.457 138.427 312.371 140.381 306.543 140.381H279.16L279.183 124.726ZM279.183 162.853H301.789C303.846 162.853 312.829 163.417 315.686 174.317C316.577 177.66 318.566 188.56 319.914 192.055C321.263 195.963 326.726 203.78 332.554 203.78H369.446C366.973 206.925 364.269 209.9 361.354 212.682L346.337 209.62C342.84 208.904 339.389 211.032 338.634 214.354L335.069 230.16C323.602 235.094 311.15 237.619 298.563 237.563C285.975 237.506 273.548 234.87 262.131 229.834L258.566 214.028C257.811 210.706 254.383 208.578 250.886 209.295L236.189 212.291C233.461 209.619 230.926 206.775 228.6 203.78H300.074C300.874 203.78 301.423 203.65 301.423 202.933V178.92C301.423 178.225 300.874 178.073 300.074 178.073H279.16L279.183 162.853ZM246.2 217.849C248.049 217.9 249.805 218.634 251.094 219.895C252.383 221.156 253.104 222.844 253.103 224.602C253.103 226.392 252.354 228.11 251.021 229.376C249.688 230.643 247.88 231.354 245.994 231.354C244.109 231.354 242.301 230.643 240.968 229.376C239.635 228.11 238.886 226.392 238.886 224.602C238.885 223.698 239.076 222.804 239.446 221.972C239.816 221.139 240.358 220.386 241.04 219.756C241.722 219.127 242.53 218.634 243.416 218.306C244.303 217.978 245.249 217.823 246.2 217.849ZM351.457 218.153C353.307 218.204 355.062 218.938 356.351 220.199C357.64 221.459 358.361 223.148 358.36 224.906C358.36 226.696 357.611 228.414 356.278 229.68C354.945 230.947 353.137 231.658 351.251 231.658C349.366 231.658 347.558 230.947 346.225 229.68C344.892 228.414 344.143 226.696 344.143 224.906C344.142 224.002 344.333 223.108 344.703 222.276C345.073 221.443 345.615 220.69 346.297 220.06C346.979 219.431 347.787 218.938 348.674 218.61C349.56 218.282 350.506 218.127 351.457 218.153Z" fill="black"/>
<path fill-rule="evenodd" clip-rule="evenodd" d="M401.011 155.188C401.011 180.888 390.264 205.535 371.133 223.707C352.002 241.88 326.055 252.089 299 252.089C271.945 252.089 245.998 241.88 226.867 223.707C207.736 205.535 196.989 180.888 196.989 155.188C196.989 129.489 207.736 104.842 226.867 86.6693C245.998 68.4969 271.945 58.2877 299 58.2877C326.055 58.2877 352.002 68.4969 371.133 86.6693C390.264 104.842 401.011 129.489 401.011 155.188ZM399.091 145.83L415 155.188L399.091 164.546L412.76 176.683L395.251 182.915L406.177 197.353L387.686 200.219L395.457 216.416L376.737 215.787L381.034 233.113L362.794 229.031L363.457 246.813L346.406 239.431L343.389 256.996L328.189 246.618L321.629 263.249L308.851 250.265L299 265.377L289.149 250.265L276.371 263.249L269.811 246.618L254.611 256.996L251.594 239.431L234.543 246.813L235.206 229.031L216.966 233.113L221.263 215.787L202.543 216.416L210.314 200.219L191.823 197.353L202.749 182.915L185.24 176.683L198.909 164.546L183 155.188L198.909 145.83L185.24 133.693L202.749 127.462L191.823 113.024L210.314 110.158L202.543 93.9605L221.263 94.5902L216.966 77.264L235.206 81.3459L234.543 63.5638L251.594 70.9458L254.611 53.3808L269.811 63.7592L276.371 47.1278L289.149 60.1115L299 45L308.851 60.1115L321.629 47.1278L328.189 63.7592L343.389 53.3808L346.406 70.9458L363.457 63.5638L362.794 81.3459L381.034 77.264L376.737 94.5902L395.457 93.9605L387.686 110.158L406.177 113.024L395.251 127.462L412.76 133.693L399.091 145.83Z" fill="black" stroke="black" stroke-width="3" stroke-linecap="round" stroke-linejoin="round"/>
</svg>
