<svg width="482" height="250" viewBox="0 0 482 250" fill="none" xmlns="http://www.w3.org/2000/svg">
<rect width="481.061" height="250" fill="#8F8D8F"/>
<path d="M163.333 180.556H152.222C139.949 180.556 130 170.607 130 158.333V47.2222C130 34.9492 139.949 25 152.222 25H330C342.273 25 352.222 34.9492 352.222 47.2222V158.333C352.222 170.607 342.273 180.556 330 180.556H318.889" fill="#8F8D8F"/>
<path d="M163.333 180.556H152.222C139.949 180.556 130 170.607 130 158.333V47.2222C130 34.9492 139.949 25 152.222 25H330C342.273 25 352.222 34.9492 352.222 47.2222V158.333C352.222 170.607 342.273 180.556 330 180.556H318.889" stroke="black" stroke-width="2" stroke-linecap="round" stroke-linejoin="round"/>
<path d="M241.111 169.444L307.778 225H174.444L241.111 169.444Z" fill="#8F8D8F" stroke="black" stroke-width="2" stroke-linecap="round" stroke-linejoin="round"/>
<path d="M17.4435 198.047C17.3725 197.331 17.0677 196.775 16.5291 196.378C15.9905 195.982 15.2596 195.783 14.3363 195.783C13.7089 195.783 13.1792 195.872 12.7472 196.05C12.3151 196.221 11.9837 196.461 11.7528 196.769C11.5279 197.077 11.4155 197.426 11.4155 197.816C11.4036 198.142 11.4717 198.426 11.6197 198.669C11.7736 198.911 11.9837 199.121 12.25 199.299C12.5163 199.471 12.8241 199.622 13.1733 199.752C13.5225 199.876 13.8954 199.983 14.2919 200.071L15.9254 200.462C16.7185 200.64 17.4465 200.876 18.1094 201.172C18.7723 201.468 19.3464 201.832 19.8317 202.264C20.317 202.696 20.6928 203.205 20.9592 203.791C21.2314 204.377 21.3705 205.049 21.3764 205.806C21.3705 206.919 21.0864 207.884 20.5241 208.701C19.9678 209.511 19.1629 210.142 18.1094 210.592C17.0618 211.036 15.7982 211.257 14.3185 211.257C12.8507 211.257 11.5723 211.033 10.4833 210.583C9.40021 210.133 8.55386 209.467 7.94425 208.585C7.34055 207.697 7.02391 206.6 6.99432 205.292H10.7141C10.7556 205.901 10.9302 206.41 11.2379 206.819C11.5516 207.221 11.9689 207.526 12.4897 207.733C13.0165 207.934 13.6113 208.035 14.2741 208.035C14.9252 208.035 15.4904 207.94 15.9698 207.751C16.4551 207.561 16.831 207.298 17.0973 206.961C17.3636 206.623 17.4968 206.236 17.4968 205.798C17.4968 205.389 17.3755 205.046 17.1328 204.768C16.8961 204.49 16.5469 204.253 16.0852 204.058C15.6295 203.862 15.0702 203.685 14.4073 203.525L12.4276 203.028C10.8946 202.655 9.6843 202.072 8.79652 201.279C7.90874 200.486 7.4678 199.417 7.47372 198.074C7.4678 196.973 7.76077 196.011 8.35263 195.189C8.9504 194.366 9.77012 193.724 10.8118 193.262C11.8535 192.8 13.0372 192.57 14.3629 192.57C15.7124 192.57 16.8902 192.8 17.8963 193.262C18.9084 193.724 19.6955 194.366 20.2578 195.189C20.8201 196.011 21.1101 196.964 21.1278 198.047H17.4435ZM30.0523 211.266C28.6733 211.266 27.4807 210.973 26.4745 210.387C25.4743 209.796 24.7019 208.973 24.1574 207.919C23.6129 206.86 23.3406 205.632 23.3406 204.235C23.3406 202.826 23.6129 201.595 24.1574 200.542C24.7019 199.482 25.4743 198.66 26.4745 198.074C27.4807 197.482 28.6733 197.186 30.0523 197.186C31.4313 197.186 32.6209 197.482 33.6212 198.074C34.6273 198.66 35.4027 199.482 35.9472 200.542C36.4917 201.595 36.7639 202.826 36.7639 204.235C36.7639 205.632 36.4917 206.86 35.9472 207.919C35.4027 208.973 34.6273 209.796 33.6212 210.387C32.6209 210.973 31.4313 211.266 30.0523 211.266ZM30.07 208.337C30.6974 208.337 31.2212 208.159 31.6414 207.804C32.0616 207.443 32.3783 206.952 32.5914 206.33C32.8103 205.709 32.9198 205.002 32.9198 204.208C32.9198 203.415 32.8103 202.708 32.5914 202.087C32.3783 201.465 32.0616 200.974 31.6414 200.613C31.2212 200.252 30.6974 200.071 30.07 200.071C29.4368 200.071 28.9041 200.252 28.472 200.613C28.0459 200.974 27.7233 201.465 27.5044 202.087C27.2913 202.708 27.1847 203.415 27.1847 204.208C27.1847 205.002 27.2913 205.709 27.5044 206.33C27.7233 206.952 28.0459 207.443 28.472 207.804C28.9041 208.159 29.4368 208.337 30.07 208.337ZM46.5562 197.364V200.205H38.14V197.364H46.5562ZM40.0665 211V196.378C40.0665 195.39 40.2588 194.57 40.6436 193.919C41.0342 193.268 41.5669 192.78 42.2416 192.454C42.9163 192.129 43.6827 191.966 44.5409 191.966C45.1209 191.966 45.6507 192.01 46.1301 192.099C46.6154 192.188 46.9764 192.268 47.2132 192.339L46.5384 195.18C46.3905 195.132 46.207 195.088 45.988 195.047C45.7749 195.005 45.556 194.984 45.3311 194.984C44.7747 194.984 44.387 195.115 44.1681 195.375C43.9491 195.629 43.8396 195.988 43.8396 196.449V211H40.0665ZM56.1199 197.364V200.205H47.9078V197.364H56.1199ZM49.7722 194.097H53.5542V206.81C53.5542 207.159 53.6074 207.431 53.714 207.626C53.8205 207.816 53.9685 207.949 54.1578 208.026C54.3532 208.103 54.5781 208.141 54.8326 208.141C55.0101 208.141 55.1877 208.127 55.3652 208.097C55.5428 208.061 55.6789 208.035 55.7736 208.017L56.3684 210.831C56.179 210.891 55.9127 210.959 55.5694 211.036C55.2261 211.118 54.8089 211.169 54.3176 211.186C53.4062 211.222 52.6072 211.101 51.9206 210.822C51.24 210.544 50.7103 210.112 50.3315 209.526C49.9527 208.94 49.7663 208.201 49.7722 207.307V194.097ZM61.2734 211L57.5625 197.364H61.3888L63.5018 206.526H63.6261L65.8278 197.364H69.5831L71.8203 206.472H71.9357L74.0131 197.364H77.8306L74.1286 211H70.1246L67.7809 202.424H67.6122L65.2685 211H61.2734ZM83.7366 211.257C82.8666 211.257 82.0912 211.107 81.4106 210.805C80.73 210.497 80.1914 210.044 79.7948 209.446C79.4042 208.843 79.2089 208.091 79.2089 207.191C79.2089 206.434 79.348 205.798 79.6262 205.283C79.9043 204.768 80.2831 204.353 80.7625 204.04C81.2419 203.726 81.7864 203.489 82.396 203.33C83.0116 203.17 83.6567 203.057 84.3314 202.992C85.1245 202.909 85.7637 202.832 86.249 202.761C86.7343 202.684 87.0865 202.572 87.3055 202.424C87.5245 202.276 87.634 202.057 87.634 201.767V201.714C87.634 201.152 87.4564 200.717 87.1013 200.409C86.7521 200.101 86.2549 199.947 85.6098 199.947C84.9292 199.947 84.3876 200.098 83.9852 200.4C83.5827 200.696 83.3164 201.069 83.1862 201.518L79.6883 201.234C79.8659 200.406 80.2151 199.69 80.7359 199.086C81.2567 198.476 81.9285 198.009 82.7512 197.683C83.5798 197.352 84.5386 197.186 85.6276 197.186C86.3852 197.186 87.1102 197.275 87.8026 197.452C88.501 197.63 89.1195 197.905 89.6581 198.278C90.2026 198.651 90.6317 199.13 90.9454 199.716C91.2591 200.296 91.4159 200.992 91.4159 201.803V211H87.8293V209.109H87.7227C87.5038 209.535 87.2108 209.911 86.8438 210.237C86.4769 210.556 86.036 210.808 85.521 210.991C85.0061 211.169 84.4113 211.257 83.7366 211.257ZM84.8197 208.647C85.376 208.647 85.8673 208.538 86.2934 208.319C86.7195 208.094 87.0539 207.792 87.2966 207.413C87.5393 207.035 87.6606 206.605 87.6606 206.126V204.679C87.5422 204.756 87.3795 204.827 87.1723 204.892C86.9711 204.951 86.7432 205.007 86.4887 205.061C86.2342 205.108 85.9797 205.152 85.7252 205.194C85.4707 205.229 85.2399 205.262 85.0328 205.292C84.5889 205.357 84.2012 205.46 83.8698 205.602C83.5383 205.744 83.2809 205.937 83.0974 206.179C82.9139 206.416 82.8222 206.712 82.8222 207.067C82.8222 207.582 83.0086 207.976 83.3815 208.248C83.7603 208.514 84.2397 208.647 84.8197 208.647ZM94.3501 211V197.364H98.0166V199.743H98.1586C98.4072 198.897 98.8245 198.257 99.4104 197.825C99.9964 197.387 100.671 197.168 101.435 197.168C101.624 197.168 101.828 197.18 102.047 197.204C102.266 197.228 102.458 197.26 102.624 197.301V200.657C102.447 200.604 102.201 200.557 101.887 200.515C101.574 200.474 101.287 200.453 101.026 200.453C100.47 200.453 99.9727 200.574 99.5347 200.817C99.1027 201.054 98.7594 201.385 98.5049 201.811C98.2563 202.238 98.132 202.729 98.132 203.285V211H94.3501ZM110.159 211.266C108.757 211.266 107.549 210.982 106.537 210.414C105.531 209.84 104.756 209.029 104.211 207.982C103.667 206.928 103.394 205.682 103.394 204.244C103.394 202.841 103.667 201.61 104.211 200.551C104.756 199.491 105.522 198.666 106.51 198.074C107.505 197.482 108.671 197.186 110.008 197.186C110.908 197.186 111.745 197.331 112.521 197.621C113.302 197.905 113.983 198.334 114.563 198.908C115.149 199.482 115.604 200.205 115.93 201.075C116.255 201.939 116.418 202.951 116.418 204.111V205.15H104.904V202.806H112.858C112.858 202.261 112.74 201.779 112.503 201.359C112.266 200.938 111.938 200.61 111.518 200.373C111.103 200.131 110.621 200.009 110.07 200.009C109.496 200.009 108.987 200.142 108.544 200.409C108.106 200.669 107.762 201.021 107.514 201.465C107.265 201.903 107.138 202.391 107.132 202.93V205.158C107.132 205.833 107.256 206.416 107.505 206.907C107.759 207.399 108.117 207.777 108.579 208.044C109.041 208.31 109.588 208.443 110.221 208.443C110.642 208.443 111.026 208.384 111.376 208.266C111.725 208.147 112.024 207.97 112.272 207.733C112.521 207.496 112.71 207.206 112.84 206.863L116.338 207.094C116.161 207.934 115.797 208.668 115.246 209.295C114.702 209.917 113.997 210.402 113.133 210.751C112.275 211.095 111.284 211.266 110.159 211.266ZM7.58026 241V222.818H14.7536C16.1326 222.818 17.3074 223.082 18.2781 223.608C19.2487 224.129 19.9885 224.854 20.4975 225.783C21.0124 226.707 21.2699 227.772 21.2699 228.979C21.2699 230.187 21.0095 231.252 20.4886 232.175C19.9678 233.099 19.2132 233.818 18.2248 234.333C17.2423 234.848 16.0527 235.105 14.6559 235.105H10.0838V232.025H14.0344C14.7743 232.025 15.3839 231.897 15.8633 231.643C16.3486 231.382 16.7096 231.024 16.9464 230.569C17.189 230.107 17.3104 229.577 17.3104 228.979C17.3104 228.376 17.189 227.849 16.9464 227.399C16.7096 226.943 16.3486 226.591 15.8633 226.343C15.378 226.088 14.7624 225.961 14.0167 225.961H11.4244V241H7.58026ZM29.6373 241.266C28.2582 241.266 27.0656 240.973 26.0595 240.387C25.0592 239.796 24.2869 238.973 23.7424 237.919C23.1979 236.86 22.9256 235.632 22.9256 234.235C22.9256 232.826 23.1979 231.595 23.7424 230.542C24.2869 229.482 25.0592 228.66 26.0595 228.074C27.0656 227.482 28.2582 227.186 29.6373 227.186C31.0163 227.186 32.2059 227.482 33.2061 228.074C34.2123 228.66 34.9876 229.482 35.5321 230.542C36.0766 231.595 36.3489 232.826 36.3489 234.235C36.3489 235.632 36.0766 236.86 35.5321 237.919C34.9876 238.973 34.2123 239.796 33.2061 240.387C32.2059 240.973 31.0163 241.266 29.6373 241.266ZM29.655 238.337C30.2824 238.337 30.8062 238.159 31.2264 237.804C31.6466 237.443 31.9632 236.952 32.1763 236.33C32.3953 235.709 32.5048 235.002 32.5048 234.208C32.5048 233.415 32.3953 232.708 32.1763 232.087C31.9632 231.465 31.6466 230.974 31.2264 230.613C30.8062 230.252 30.2824 230.071 29.655 230.071C29.0217 230.071 28.4891 230.252 28.057 230.613C27.6309 230.974 27.3083 231.465 27.0893 232.087C26.8762 232.708 26.7697 233.415 26.7697 234.208C26.7697 235.002 26.8762 235.709 27.0893 236.33C27.3083 236.952 27.6309 237.443 28.057 237.804C28.4891 238.159 29.0217 238.337 29.655 238.337ZM38.8081 241V227.364H42.4746V229.743H42.6167C42.8652 228.897 43.2825 228.257 43.8684 227.825C44.4544 227.387 45.1291 227.168 45.8926 227.168C46.082 227.168 46.2862 227.18 46.5051 227.204C46.7241 227.228 46.9165 227.26 47.0822 227.301V230.657C46.9047 230.604 46.659 230.557 46.3453 230.515C46.0317 230.474 45.7446 230.453 45.4842 230.453C44.9279 230.453 44.4307 230.574 43.9927 230.817C43.5607 231.054 43.2174 231.385 42.9629 231.811C42.7143 232.238 42.59 232.729 42.59 233.285V241H38.8081ZM56.9743 227.364V230.205H48.7623V227.364H56.9743ZM50.6267 224.097H54.4086V236.81C54.4086 237.159 54.4619 237.431 54.5684 237.626C54.675 237.816 54.8229 237.949 55.0123 238.026C55.2077 238.103 55.4326 238.141 55.6871 238.141C55.8646 238.141 56.0422 238.127 56.2197 238.097C56.3973 238.061 56.5334 238.035 56.6281 238.017L57.2229 240.831C57.0335 240.891 56.7672 240.959 56.4239 241.036C56.0806 241.118 55.6634 241.169 55.1721 241.186C54.2607 241.222 53.4617 241.101 52.7751 240.822C52.0945 240.544 51.5648 240.112 51.186 239.526C50.8072 238.94 50.6208 238.201 50.6267 237.307V224.097ZM66.771 227.364V230.205H58.3548V227.364H66.771ZM60.2813 241V226.378C60.2813 225.39 60.4737 224.57 60.8584 223.919C61.249 223.268 61.7817 222.78 62.4564 222.454C63.1311 222.129 63.8976 221.966 64.7558 221.966C65.3358 221.966 65.8655 222.01 66.3449 222.099C66.8302 222.188 67.1913 222.268 67.428 222.339L66.7533 225.18C66.6053 225.132 66.4218 225.088 66.2029 225.047C65.9898 225.005 65.7708 224.984 65.5459 224.984C64.9896 224.984 64.6019 225.115 64.3829 225.375C64.1639 225.629 64.0544 225.988 64.0544 226.449V241H60.2813ZM74.7544 241.266C73.3754 241.266 72.1828 240.973 71.1767 240.387C70.1764 239.796 69.4041 238.973 68.8596 237.919C68.315 236.86 68.0428 235.632 68.0428 234.235C68.0428 232.826 68.315 231.595 68.8596 230.542C69.4041 229.482 70.1764 228.66 71.1767 228.074C72.1828 227.482 73.3754 227.186 74.7544 227.186C76.1335 227.186 77.3231 227.482 78.3233 228.074C79.3295 228.66 80.1048 229.482 80.6493 230.542C81.1938 231.595 81.4661 232.826 81.4661 234.235C81.4661 235.632 81.1938 236.86 80.6493 237.919C80.1048 238.973 79.3295 239.796 78.3233 240.387C77.3231 240.973 76.1335 241.266 74.7544 241.266ZM74.7722 238.337C75.3996 238.337 75.9234 238.159 76.3436 237.804C76.7638 237.443 77.0804 236.952 77.2935 236.33C77.5125 235.709 77.622 235.002 77.622 234.208C77.622 233.415 77.5125 232.708 77.2935 232.087C77.0804 231.465 76.7638 230.974 76.3436 230.613C75.9234 230.252 75.3996 230.071 74.7722 230.071C74.1389 230.071 73.6062 230.252 73.1742 230.613C72.748 230.974 72.4255 231.465 72.2065 232.087C71.9934 232.708 71.8869 233.415 71.8869 234.208C71.8869 235.002 71.9934 235.709 72.2065 236.33C72.4255 236.952 72.748 237.443 73.1742 237.804C73.6062 238.159 74.1389 238.337 74.7722 238.337ZM87.7072 222.818V241H83.9252V222.818H87.7072ZM90.7368 241V227.364H94.5187V241H90.7368ZM92.6366 225.606C92.0744 225.606 91.592 225.419 91.1895 225.047C90.793 224.668 90.5947 224.215 90.5947 223.688C90.5947 223.167 90.793 222.721 91.1895 222.348C91.592 221.969 92.0744 221.779 92.6366 221.779C93.1989 221.779 93.6783 221.969 94.0748 222.348C94.4773 222.721 94.6785 223.167 94.6785 223.688C94.6785 224.215 94.4773 224.668 94.0748 225.047C93.6783 225.419 93.1989 225.606 92.6366 225.606ZM103.71 241.266C102.33 241.266 101.138 240.973 100.132 240.387C99.1315 239.796 98.3591 238.973 97.8146 237.919C97.2701 236.86 96.9979 235.632 96.9979 234.235C96.9979 232.826 97.2701 231.595 97.8146 230.542C98.3591 229.482 99.1315 228.66 100.132 228.074C101.138 227.482 102.33 227.186 103.71 227.186C105.089 227.186 106.278 227.482 107.278 228.074C108.285 228.66 109.06 229.482 109.604 230.542C110.149 231.595 110.421 232.826 110.421 234.235C110.421 235.632 110.149 236.86 109.604 237.919C109.06 238.973 108.285 239.796 107.278 240.387C106.278 240.973 105.089 241.266 103.71 241.266ZM103.727 238.337C104.355 238.337 104.878 238.159 105.299 237.804C105.719 237.443 106.036 236.952 106.249 236.33C106.468 235.709 106.577 235.002 106.577 234.208C106.577 233.415 106.468 232.708 106.249 232.087C106.036 231.465 105.719 230.974 105.299 230.613C104.878 230.252 104.355 230.071 103.727 230.071C103.094 230.071 102.561 230.252 102.129 230.613C101.703 230.974 101.381 231.465 101.162 232.087C100.949 232.708 100.842 233.415 100.842 234.208C100.842 235.002 100.949 235.709 101.162 236.33C101.381 236.952 101.703 237.443 102.129 237.804C102.561 238.159 103.094 238.337 103.727 238.337Z" fill="white"/>
<path d="M338.712 101.411C338.678 100.642 338.625 99.8944 338.566 99.1334V99.1202V99.1071C337.837 90.8515 335.11 83.1254 330.482 76.1472C328.417 73.0353 326.053 70.2081 323.411 67.673C319.551 63.9592 315.082 60.8866 310.044 58.4574C302.463 54.8357 294.089 53.0086 285.151 53.0086C284.277 53.0086 283.364 53.0216 282.443 53.055C276.166 53.3396 270.096 54.5313 264.389 56.6301C258.636 58.7077 253.623 61.4549 249.525 64.7518C248.691 65.4143 247.784 66.2282 246.811 67.1223L246.109 67.8108L245.149 68.8304H245.162L244.712 69.274L244.493 69.5122L243.348 70.717C242.501 71.6705 241.693 72.624 240.939 73.5572L240.932 73.5442L240.906 73.5181C239.337 75.4251 237.887 77.3974 236.821 79.1724C236.095 80.3183 235.393 81.4792 234.716 82.6544L225.361 101.569L225.374 101.582L224.883 102.542L223.851 104.635C221.799 108.786 219.6 112.924 217.144 116.34C211.669 122.345 205.479 125.285 197.52 125.285C196.964 125.285 196.395 125.259 195.812 125.225C191.019 125.034 186.907 123.901 183.26 121.743C182.875 121.516 182.498 121.277 182.127 121.028C179.149 119.048 176.864 116.506 175.156 113.335C173.229 109.74 172.375 106.066 172.494 102.172C172.5 102.066 172.507 101.973 172.507 101.888C172.766 95.6909 175.129 90.871 179.889 86.7068C181.047 85.7067 182.26 84.8594 183.524 84.1049C183.699 84.0003 183.878 83.9011 184.06 83.8071C187.595 81.8805 191.62 80.9203 196.235 80.9203L197.671 80.9602C205 81.2383 210.655 83.5287 215.163 87.998L229.304 62.608C225.921 60.3437 222.101 58.3975 217.891 56.815C217.732 56.7555 217.566 56.6894 217.4 56.6363C216.897 56.4577 216.4 56.2725 215.884 56.107C211.408 54.6111 206.714 53.6902 201.881 53.2733C201.764 53.2521 201.632 53.2389 201.513 53.2252C200.772 53.1796 200.016 53.0865 199.275 53.053C198.467 53.0195 197.653 53.0066 196.858 53H196.401C187.51 53.0335 179.247 54.8541 171.693 58.4627C163.232 62.5412 156.373 68.4794 151.289 76.133C146.218 83.7866 143.45 92.2804 143.053 101.397C143.02 102.179 143 102.953 143 103.715C142.994 116.466 147.641 127.681 156.884 137.096C166.53 146.974 179.076 152.297 194.138 152.926C195.104 152.966 196.058 152.992 197.011 152.992C205.532 152.992 213.417 151.476 220.488 148.444C222.255 147.689 223.97 146.802 225.724 145.816C226.678 145.266 227.579 144.684 228.472 144.061L229.134 143.617L230.247 142.856C231.584 141.896 232.836 140.857 234.053 139.751L234.477 139.347C235.192 138.666 235.907 137.977 236.582 137.268L239.118 134.402L240.085 133.191L240.535 132.528L240.985 131.88C244.752 125.551 257.014 102.517 257.014 102.517V102.471L257.742 101.067L258.351 99.9686C260.159 96.6781 261.463 94.3411 263.191 91.8852L263.237 91.8127C267.269 85.9666 274.201 81.8027 282.371 81.1004C296.075 79.9216 308.085 88.9261 309.191 101.214C310.289 113.501 300.067 124.419 286.363 125.604C283.51 125.849 280.735 125.657 278.12 125.082L278.054 125.108C267.998 123.015 261.595 115.68 258.437 112.402L245.249 136.654C245.249 136.654 249.347 140.785 252.155 142.85C254.969 144.909 258.603 146.935 261.503 148.193C268.541 151.199 276.195 153 284.649 153C285.629 153 285.431 153 286.45 152.96C301.499 152.331 314.912 146.564 324.585 136.686C333.748 127.305 338.721 116.593 338.767 103.914V103.537C338.758 102.828 338.74 102.119 338.712 101.411L338.712 101.411Z" fill="#B5E9FF"/>
</svg>
