<svg width="482" height="250" viewBox="0 0 482 250" fill="none" xmlns="http://www.w3.org/2000/svg">
<rect width="481.061" height="250" fill="#632B28"/>
<path d="M73 28L74.5828 35.8382C76.8922 47.2745 85.0128 56.671 95.9938 60.6131L98 61.3333L95.9938 62.0536C85.0128 65.9957 76.8922 75.3922 74.5828 86.8284L73 94.6667L71.4172 86.8284C69.1077 75.3922 60.9872 65.9957 50.0062 62.0536L48 61.3333L50.0062 60.6131C60.9872 56.671 69.1077 47.2745 71.4172 35.8382L73 28Z" fill="#FFED47" stroke="black" stroke-width="2" stroke-linecap="round" stroke-linejoin="round"/>
<path d="M98 144.667L99.909 155.302C100.921 160.941 104.759 165.665 110.072 167.811L114.667 169.667L110.072 171.522C104.759 173.668 100.921 178.392 99.909 184.032L98 194.667L96.091 184.032C95.0788 178.392 91.2407 173.668 85.9279 171.522L81.3333 169.667L85.9279 167.811C91.2406 165.665 95.0788 160.941 96.091 155.302L98 144.667Z" fill="#FFED47" stroke="black" stroke-width="2" stroke-linecap="round" stroke-linejoin="round"/>
<path d="M164.667 36.3334L169.298 58.4477C174.101 81.3849 190.595 100.116 212.74 107.782L223 111.333L212.74 114.885C190.595 122.551 174.101 141.282 169.298 164.219L164.667 186.333L160.036 164.219C155.233 141.282 138.738 122.551 116.593 114.885L106.333 111.333L116.593 107.782C138.738 100.116 155.233 81.3849 160.036 58.4477L164.667 36.3334Z" fill="#FFED47" stroke="black" stroke-width="2" stroke-linecap="round" stroke-linejoin="round"/>
<path d="M396 28L394.417 35.8382C392.108 47.2745 383.987 56.671 373.006 60.6131L371 61.3333L373.006 62.0536C383.987 65.9957 392.108 75.3922 394.417 86.8284L396 94.6667L397.583 86.8284C399.892 75.3922 408.013 65.9957 418.994 62.0536L421 61.3333L418.994 60.6131C408.013 56.671 399.892 47.2745 397.583 35.8382L396 28Z" fill="#FFED47" stroke="black" stroke-width="2" stroke-linecap="round" stroke-linejoin="round"/>
<path d="M371 144.667L369.091 155.302C368.079 160.941 364.241 165.665 358.928 167.811L354.333 169.667L358.928 171.522C364.241 173.668 368.079 178.392 369.091 184.032L371 194.667L372.909 184.032C373.921 178.392 377.759 173.668 383.072 171.522L387.667 169.667L383.072 167.811C377.759 165.665 373.921 160.941 372.909 155.302L371 144.667Z" fill="#FFED47" stroke="black" stroke-width="2" stroke-linecap="round" stroke-linejoin="round"/>
<path d="M304.333 36.3334L299.703 58.4477C294.899 81.3849 278.405 100.116 256.26 107.782L246 111.333L256.26 114.885C278.405 122.551 294.899 141.282 299.703 164.219L304.333 186.333L308.964 164.219C313.768 141.282 330.262 122.551 352.407 114.885L362.667 111.333L352.407 107.782C330.262 100.116 313.768 81.3849 308.964 58.4477L304.333 36.3334Z" fill="#FFED47" stroke="black" stroke-width="2" stroke-linecap="round" stroke-linejoin="round"/>
<path d="M381.714 210H377.595L383.871 191.818H388.825L395.093 210H390.974L386.419 195.973H386.277L381.714 210ZM381.457 202.853H391.187V205.854H381.457V202.853ZM397.21 210V196.364H400.877V198.743H401.019C401.268 197.897 401.685 197.257 402.271 196.825C402.857 196.387 403.531 196.168 404.295 196.168C404.484 196.168 404.689 196.18 404.907 196.204C405.126 196.228 405.319 196.26 405.485 196.301V199.657C405.307 199.604 405.061 199.557 404.748 199.515C404.434 199.474 404.147 199.453 403.887 199.453C403.33 199.453 402.833 199.574 402.395 199.817C401.963 200.054 401.62 200.385 401.365 200.811C401.117 201.238 400.992 201.729 400.992 202.285V210H397.21ZM415.377 196.364V199.205H407.165V196.364H415.377ZM409.029 193.097H412.811V205.81C412.811 206.159 412.864 206.431 412.971 206.626C413.077 206.816 413.225 206.949 413.415 207.026C413.61 207.103 413.835 207.141 414.089 207.141C414.267 207.141 414.445 207.127 414.622 207.097C414.8 207.061 414.936 207.035 415.03 207.017L415.625 209.831C415.436 209.891 415.17 209.959 414.826 210.036C414.483 210.118 414.066 210.169 413.574 210.186C412.663 210.222 411.864 210.101 411.177 209.822C410.497 209.544 409.967 209.112 409.588 208.526C409.21 207.94 409.023 207.201 409.029 206.307V193.097ZM427.542 191.818V210H423.697V191.818H427.542ZM433.803 191.818V193.736C433.803 194.28 433.696 194.837 433.483 195.405C433.276 195.967 432.998 196.5 432.649 197.003C432.299 197.5 431.918 197.923 431.503 198.272L429.834 197.287C430.13 196.819 430.391 196.301 430.616 195.733C430.846 195.165 430.962 194.505 430.962 193.754V191.818H433.803ZM449.621 196.364L444.853 210H440.592L435.825 196.364H439.82L442.652 206.12H442.794L445.617 196.364H449.621ZM457.331 210.266C455.928 210.266 454.721 209.982 453.709 209.414C452.703 208.84 451.927 208.029 451.383 206.982C450.838 205.928 450.566 204.682 450.566 203.244C450.566 201.841 450.838 200.61 451.383 199.551C451.927 198.491 452.694 197.666 453.682 197.074C454.677 196.482 455.843 196.186 457.18 196.186C458.08 196.186 458.917 196.331 459.693 196.621C460.474 196.905 461.155 197.334 461.735 197.908C462.32 198.482 462.776 199.205 463.102 200.075C463.427 200.939 463.59 201.951 463.59 203.111V204.15H452.075V201.806H460.03C460.03 201.261 459.912 200.779 459.675 200.359C459.438 199.938 459.11 199.61 458.689 199.373C458.275 199.131 457.793 199.009 457.242 199.009C456.668 199.009 456.159 199.142 455.715 199.409C455.277 199.669 454.934 200.021 454.686 200.465C454.437 200.903 454.31 201.391 454.304 201.93V204.158C454.304 204.833 454.428 205.416 454.677 205.907C454.931 206.399 455.289 206.777 455.751 207.044C456.213 207.31 456.76 207.443 457.393 207.443C457.814 207.443 458.198 207.384 458.547 207.266C458.897 207.147 459.195 206.97 459.444 206.733C459.693 206.496 459.882 206.206 460.012 205.863L463.51 206.094C463.333 206.934 462.969 207.668 462.418 208.295C461.874 208.917 461.169 209.402 460.305 209.751C459.447 210.095 458.456 210.266 457.331 210.266ZM378.58 240V221.818H390.832V224.988H382.424V229.32H390.201V232.489H382.424V236.831H390.867V240H378.58ZM397.599 232.116V240H393.817V226.364H397.421V228.77H397.581C397.883 227.976 398.389 227.349 399.099 226.887C399.809 226.42 400.671 226.186 401.683 226.186C402.63 226.186 403.455 226.393 404.16 226.808C404.864 227.222 405.411 227.814 405.802 228.583C406.193 229.347 406.388 230.258 406.388 231.317V240H402.606V231.992C402.612 231.158 402.399 230.507 401.967 230.039C401.535 229.566 400.94 229.329 400.182 229.329C399.673 229.329 399.223 229.438 398.833 229.657C398.448 229.876 398.146 230.196 397.927 230.616C397.714 231.03 397.605 231.531 397.599 232.116ZM409.369 226.364H413.151V240.675C413.151 241.728 412.943 242.58 412.529 243.232C412.115 243.883 411.52 244.359 410.745 244.661C409.975 244.963 409.055 245.114 407.984 245.114C407.853 245.114 407.729 245.111 407.611 245.105C407.487 245.105 407.356 245.102 407.22 245.096V242.14C407.321 242.145 407.41 242.148 407.487 242.148C407.558 242.154 407.634 242.157 407.717 242.157C408.327 242.157 408.753 242.027 408.996 241.767C409.244 241.512 409.369 241.127 409.369 240.613V226.364ZM411.251 224.606C410.694 224.606 410.215 224.419 409.812 224.047C409.41 223.668 409.209 223.215 409.209 222.688C409.209 222.167 409.41 221.721 409.812 221.348C410.215 220.969 410.694 220.779 411.251 220.779C411.819 220.779 412.301 220.969 412.698 221.348C413.1 221.721 413.301 222.167 413.301 222.688C413.301 223.215 413.1 223.668 412.698 224.047C412.301 224.419 411.819 224.606 411.251 224.606ZM422.341 240.266C420.962 240.266 419.77 239.973 418.764 239.387C417.763 238.796 416.991 237.973 416.446 236.919C415.902 235.86 415.63 234.632 415.63 233.235C415.63 231.826 415.902 230.595 416.446 229.542C416.991 228.482 417.763 227.66 418.764 227.074C419.77 226.482 420.962 226.186 422.341 226.186C423.72 226.186 424.91 226.482 425.91 227.074C426.916 227.66 427.692 228.482 428.236 229.542C428.781 230.595 429.053 231.826 429.053 233.235C429.053 234.632 428.781 235.86 428.236 236.919C427.692 237.973 426.916 238.796 425.91 239.387C424.91 239.973 423.72 240.266 422.341 240.266ZM422.359 237.337C422.986 237.337 423.51 237.159 423.93 236.804C424.351 236.443 424.667 235.952 424.88 235.33C425.099 234.709 425.209 234.002 425.209 233.208C425.209 232.415 425.099 231.708 424.88 231.087C424.667 230.465 424.351 229.974 423.93 229.613C423.51 229.252 422.986 229.071 422.359 229.071C421.726 229.071 421.193 229.252 420.761 229.613C420.335 229.974 420.012 230.465 419.793 231.087C419.58 231.708 419.474 232.415 419.474 233.208C419.474 234.002 419.58 234.709 419.793 235.33C420.012 235.952 420.335 236.443 420.761 236.804C421.193 237.159 421.726 237.337 422.359 237.337ZM433.408 245.114C432.928 245.114 432.478 245.075 432.058 244.998C431.644 244.927 431.301 244.835 431.028 244.723L431.881 241.9C432.324 242.036 432.724 242.11 433.079 242.122C433.44 242.134 433.751 242.051 434.011 241.873C434.278 241.696 434.494 241.394 434.659 240.968L434.881 240.391L429.99 226.364H433.967L436.79 236.378H436.932L439.782 226.364H443.786L438.486 241.474C438.231 242.208 437.885 242.847 437.447 243.391C437.015 243.942 436.467 244.365 435.805 244.661C435.142 244.963 434.343 245.114 433.408 245.114ZM451.496 240.266C450.093 240.266 448.886 239.982 447.874 239.414C446.868 238.84 446.093 238.029 445.548 236.982C445.004 235.928 444.731 234.682 444.731 233.244C444.731 231.841 445.004 230.61 445.548 229.551C446.093 228.491 446.859 227.666 447.847 227.074C448.842 226.482 450.008 226.186 451.345 226.186C452.245 226.186 453.082 226.331 453.858 226.621C454.639 226.905 455.32 227.334 455.9 227.908C456.486 228.482 456.941 229.205 457.267 230.075C457.592 230.939 457.755 231.951 457.755 233.111V234.15H446.241V231.806H454.195C454.195 231.261 454.077 230.779 453.84 230.359C453.603 229.938 453.275 229.61 452.854 229.373C452.44 229.131 451.958 229.009 451.407 229.009C450.833 229.009 450.324 229.142 449.88 229.409C449.442 229.669 449.099 230.021 448.851 230.465C448.602 230.903 448.475 231.391 448.469 231.93V234.158C448.469 234.833 448.593 235.416 448.842 235.907C449.096 236.399 449.454 236.777 449.916 237.044C450.378 237.31 450.925 237.443 451.558 237.443C451.979 237.443 452.363 237.384 452.712 237.266C453.062 237.147 453.361 236.97 453.609 236.733C453.858 236.496 454.047 236.206 454.177 235.863L457.675 236.094C457.498 236.934 457.134 237.668 456.583 238.295C456.039 238.917 455.334 239.402 454.47 239.751C453.612 240.095 452.621 240.266 451.496 240.266ZM465.248 240.222C464.212 240.222 463.274 239.956 462.434 239.423C461.599 238.884 460.936 238.094 460.445 237.053C459.96 236.005 459.717 234.721 459.717 233.2C459.717 231.637 459.969 230.338 460.472 229.302C460.975 228.261 461.644 227.482 462.478 226.967C463.319 226.446 464.239 226.186 465.239 226.186C466.003 226.186 466.639 226.316 467.148 226.577C467.663 226.831 468.077 227.151 468.391 227.536C468.71 227.914 468.953 228.287 469.119 228.654H469.234V221.818H473.007V240H469.278V237.816H469.119C468.941 238.195 468.69 238.571 468.364 238.944C468.044 239.31 467.627 239.615 467.112 239.858C466.603 240.101 465.982 240.222 465.248 240.222ZM466.446 237.212C467.056 237.212 467.571 237.047 467.991 236.715C468.417 236.378 468.743 235.907 468.968 235.304C469.199 234.7 469.314 233.993 469.314 233.182C469.314 232.371 469.202 231.667 468.977 231.069C468.752 230.471 468.426 230.009 468 229.684C467.574 229.358 467.056 229.196 466.446 229.196C465.825 229.196 465.301 229.364 464.875 229.702C464.449 230.039 464.126 230.507 463.907 231.104C463.688 231.702 463.579 232.395 463.579 233.182C463.579 233.975 463.688 234.676 463.907 235.286C464.132 235.89 464.455 236.363 464.875 236.706C465.301 237.044 465.825 237.212 466.446 237.212Z" fill="white"/>
</svg>
