<svg width="1822" height="1024" viewBox="0 0 1822 1024" fill="none" xmlns="http://www.w3.org/2000/svg">
<path d="M0.000244141 1024H1821.33V-3.05176e-05H0.000244141V1024Z" fill="#EF9F9C"/>
<mask id="mask0_66_19" style="mask-type:luminance" maskUnits="userSpaceOnUse" x="0" y="0" width="1822" height="1024">
<path d="M0.000244141 -3.05176e-05H1821.33V1024H0.000244141V-3.05176e-05Z" fill="white"/>
</mask>
<g mask="url(#mask0_66_19)">
<path d="M863.328 411.201C863.328 441.656 845.637 466.344 823.816 466.344C801.995 466.344 784.305 441.656 784.305 411.201C784.305 380.747 801.995 356.059 823.816 356.059C845.637 356.059 863.328 380.747 863.328 411.201Z" fill="#E64827"/>
<path d="M1037.03 411.201C1037.03 441.656 1019.34 466.344 997.517 466.344C975.695 466.344 958.005 441.656 958.005 411.201C958.005 380.747 975.695 356.059 997.517 356.059C1019.34 356.059 1037.03 380.747 1037.03 411.201Z" fill="#E64827"/>
<path d="M910.664 563.815C860.608 563.815 812.061 549.268 770.249 521.738L769.889 521.5C765.007 518.283 763.657 511.715 766.875 506.834C770.092 501.951 776.659 500.602 781.541 503.819L781.899 504.055C820.237 529.298 864.761 542.64 910.665 542.64H910.872C956.849 542.6 1001.43 529.178 1039.78 503.827C1044.66 500.603 1051.23 501.944 1054.45 506.822C1057.68 511.7 1056.33 518.268 1051.46 521.492C1009.63 549.136 961.025 563.771 910.891 563.815H910.664Z" fill="#E64827"/>
<path d="M1137.5 555.759C1125.1 585.072 1107.35 611.4 1084.74 634.01C1062.13 656.62 1035.8 674.37 1006.49 686.77C976.141 699.606 943.903 706.114 910.667 706.114C877.432 706.114 845.193 699.606 814.845 686.77C785.531 674.37 759.203 656.62 736.593 634.01C713.984 611.4 696.233 585.072 683.835 555.759C670.999 525.411 664.489 493.172 664.489 459.936C664.489 426.702 670.999 394.462 683.835 364.115C696.233 334.8 713.984 308.472 736.593 285.863C759.203 263.254 785.531 245.503 814.845 233.104C845.193 220.268 877.432 213.759 910.667 213.759C943.903 213.759 976.141 220.268 1006.49 233.104C1035.8 245.503 1062.13 263.254 1084.74 285.863C1107.35 308.472 1125.1 334.8 1137.5 364.115C1150.34 394.462 1156.84 426.702 1156.84 459.936C1156.84 493.172 1150.34 525.411 1137.5 555.759ZM1166.07 567.843C1176.99 542.011 1183.85 514.976 1186.55 487.17L1239.18 459.936L1186.55 432.703C1183.85 404.898 1176.99 377.862 1166.07 352.031C1165.15 349.855 1164.2 347.694 1163.22 345.546L1195.17 295.679L1135.98 298.412C1127.22 286.211 1117.44 274.694 1106.67 263.93C1095.91 253.167 1084.39 243.386 1072.19 234.62L1074.92 175.435L1025.06 207.379C1022.91 206.407 1020.75 205.458 1018.57 204.536C993.711 194.022 967.732 187.29 941.025 184.391C949.061 180.756 956.308 175.739 962.588 169.459C969.3 162.748 974.569 154.932 978.249 146.231C982.061 137.22 983.993 127.648 983.993 117.783C983.993 117.163 983.491 116.66 982.871 116.66C973.061 116.66 963.544 118.572 954.579 122.34C954.723 120.52 954.801 118.691 954.808 116.854C954.851 107.07 952.944 97.4937 949.139 88.3911C948.901 87.8191 948.243 87.5498 947.671 87.7885C939.311 91.2818 931.81 96.1871 925.341 102.379C921.822 95.2418 917.171 88.7564 911.461 83.0458C911.023 82.6084 910.311 82.6084 909.873 83.0458C904.164 88.7564 899.511 95.2418 895.993 102.379C889.523 96.1871 882.024 91.2818 873.664 87.7885C873.091 87.5498 872.433 87.8191 872.195 88.3911C868.391 97.4937 866.483 107.07 866.527 116.854C866.533 118.691 866.612 120.52 866.756 122.34C857.791 118.572 848.273 116.66 838.464 116.66C837.844 116.66 837.341 117.163 837.341 117.783C837.341 127.648 839.273 137.22 843.084 146.231C846.765 154.932 852.035 162.748 858.747 169.459C865.027 175.739 872.273 180.756 880.308 184.391C853.603 187.29 827.624 194.022 802.761 204.536C800.584 205.458 798.424 206.407 796.277 207.379L746.411 175.435L749.143 234.62C736.941 243.386 725.424 253.167 714.661 263.93C703.897 274.694 694.116 286.211 685.349 298.412L626.165 295.679L658.109 345.546C657.137 347.694 656.188 349.855 655.267 352.031C644.343 377.862 637.488 404.898 634.789 432.703L582.152 459.936L634.789 487.17C637.488 514.976 644.343 542.011 655.267 567.843C656.188 570.019 657.137 572.179 658.109 574.328L626.165 624.194L685.349 621.46C694.116 633.663 703.897 645.179 714.661 655.943C725.424 666.706 736.941 676.488 749.143 685.254L746.411 744.439L796.276 712.495C798.423 713.467 800.584 714.415 802.761 715.336C828.592 726.262 855.628 733.115 883.435 735.815L910.667 788.452L937.9 735.815C965.706 733.115 992.743 726.262 1018.57 715.336C1020.75 714.415 1022.91 713.467 1025.06 712.495L1074.92 744.439L1072.19 685.254C1084.39 676.488 1095.91 666.707 1106.67 655.943C1117.44 645.179 1127.22 633.663 1135.98 621.46L1195.17 624.194L1163.22 574.328C1164.2 572.179 1165.15 570.019 1166.07 567.843Z" fill="#E64827"/>
<path d="M536.085 874.178C536.085 874.178 540.454 858.978 540.454 846.817C540.454 842.446 539.885 832.946 539.123 828.386C534.945 829.148 527.343 835.986 522.974 840.357V820.216H573.706V840.357C569.145 835.986 561.734 829.148 557.365 828.386C556.415 833.517 556.225 842.826 556.225 847.577C556.225 859.548 559.645 874.178 559.645 874.178H536.085Z" fill="#E64827"/>
<path d="M578.398 874.178C578.398 874.178 583.149 859.928 583.529 850.237C583.908 840.737 578.398 820.216 578.398 820.216H603.48C603.48 820.216 598.729 828.766 597.398 841.117C598.538 842.257 601.578 843.588 605.569 843.588C609.558 843.588 612.029 842.257 613.169 841.117C611.648 828.766 606.898 820.216 606.898 820.216H631.98C631.98 820.216 626.47 840.737 626.849 850.237C627.229 859.928 632.169 874.178 632.169 874.178H606.14C606.14 874.178 612.218 864.677 613.36 850.997C612.789 850.617 609.938 848.528 605.569 848.528C601.009 848.528 597.398 850.808 597.018 850.997C598.158 864.677 604.048 874.178 604.048 874.178H578.398Z" fill="#E64827"/>
<path d="M635.323 858.978C635.323 853.658 637.412 848.527 641.593 845.867C638.363 843.587 636.843 839.786 636.843 835.037C637.032 824.966 645.013 819.267 656.604 819.267C664.395 819.267 669.904 821.926 671.804 824.777L667.243 828.006C665.913 826.866 664.963 826.297 662.873 826.297C658.504 826.297 655.463 830.286 655.463 834.657C655.463 839.407 658.504 842.447 662.873 842.066C664.963 841.877 665.913 841.307 667.433 840.737V849.477C666.295 848.907 664.015 848.147 662.684 848.147C657.363 848.147 653.753 850.807 653.753 855.747C653.753 860.498 656.795 864.109 662.115 864.109C665.913 864.109 667.813 861.638 668.764 860.307L673.133 863.347C671.615 869.238 665.153 874.939 654.893 874.939C641.972 874.939 635.323 868.287 635.323 858.978Z" fill="#E64827"/>
<path d="M700.685 874.178C700.685 874.178 705.435 859.928 705.815 850.237C706.194 840.737 700.685 820.216 700.685 820.216H725.766C725.766 820.216 721.015 828.766 719.685 841.117C720.825 842.257 723.865 843.588 727.855 843.588C731.845 843.588 734.315 842.257 735.455 841.117C733.934 828.766 729.185 820.216 729.185 820.216H754.266C754.266 820.216 748.757 840.737 749.135 850.237C749.515 859.928 754.455 874.178 754.455 874.178H728.426C728.426 874.178 734.505 864.677 735.646 850.997C735.075 850.617 732.225 848.528 727.855 848.528C723.295 848.528 719.685 850.808 719.305 850.997C720.445 864.677 726.334 874.178 726.334 874.178H700.685Z" fill="#E64827"/>
<path d="M791.316 849.477L786.186 830.477L781.056 849.477C781.816 850.237 784.287 851.187 786.186 851.187C788.086 851.187 790.556 850.237 791.316 849.477ZM758.255 874.178C767.186 858.787 773.266 836.558 768.326 820.217H804.047C799.296 836.558 805.187 858.787 814.118 874.178H787.898C790.556 870.187 791.126 865.627 790.936 862.018C790.746 858.598 788.466 856.127 786.186 856.127C783.716 856.127 781.816 858.787 781.626 862.018C781.246 865.627 781.816 870.187 784.476 874.178H758.255Z" fill="#E64827"/>
<path d="M854.056 839.217C854.056 831.996 850.256 828.387 846.265 828.387C841.705 828.387 839.616 831.427 839.236 836.936C839.045 840.927 839.045 842.827 839.045 847.387C840.755 849.856 842.847 850.997 845.696 850.997C850.636 850.997 854.056 847.007 854.056 839.217ZM873.816 838.837C873.816 850.427 865.267 858.027 852.347 858.027C847.027 858.027 842.085 856.888 839.236 854.797C840.565 864.677 843.225 874.179 843.225 874.179H819.095C819.095 874.179 824.416 855.747 823.845 843.017C822.896 830.476 817.955 820.216 817.955 820.216H840.755C840.755 820.216 839.996 822.305 839.616 825.536C842.847 821.547 847.787 819.267 854.247 819.267C866.407 819.267 873.816 827.436 873.816 838.837Z" fill="#E64827"/>
<path d="M912.501 839.217C912.501 831.996 908.7 828.387 904.711 828.387C900.151 828.387 898.061 831.427 897.681 836.936C897.491 840.927 897.491 842.827 897.491 847.387C899.2 849.856 901.291 850.997 904.14 850.997C909.081 850.997 912.501 847.007 912.501 839.217ZM932.261 838.837C932.261 850.427 923.711 858.027 910.792 858.027C905.472 858.027 900.531 856.888 897.681 854.797C899.011 864.677 901.671 874.179 901.671 874.179H877.54C877.54 874.179 882.861 855.747 882.291 843.017C881.34 830.476 876.4 820.216 876.4 820.216H899.2C899.2 820.216 898.44 822.305 898.061 825.536C901.291 821.547 906.231 819.267 912.692 819.267C924.852 819.267 932.261 827.436 932.261 838.837Z" fill="#E64827"/>
<path d="M944.63 874.178C946.72 870.568 950.521 865.437 950.521 859.738C950.521 843.588 936.27 828.386 931.33 820.216H956.79C956.79 820.216 956.032 824.586 956.032 831.996C956.032 838.077 960.021 844.726 960.021 844.726C960.021 844.726 964.012 838.077 964.202 831.996C964.39 824.586 963.252 820.216 963.252 820.216H988.713C983.772 828.386 969.521 843.588 969.521 859.738C969.521 865.437 973.322 870.568 975.412 874.178H944.63Z" fill="#E64827"/>
<path d="M1012.18 849.857C1012.18 829.717 1024.53 819.267 1037.45 819.267C1043.53 819.267 1048.47 821.357 1050.37 824.775L1045.81 828.006C1044.67 826.866 1043.15 826.107 1041.25 826.107C1034.98 826.107 1030.61 834.846 1030.61 845.487C1030.61 856.127 1034.79 863.918 1040.87 863.918C1044.1 863.918 1046.19 861.638 1047.14 860.307L1051.51 863.347C1050.18 869.238 1043.91 874.939 1034.6 874.939C1022.63 874.939 1012.18 865.818 1012.18 849.857Z" fill="#E64827"/>
<path d="M1087.02 849.477L1081.89 830.477L1076.76 849.477C1077.52 850.237 1079.99 851.187 1081.89 851.187C1083.79 851.187 1086.26 850.237 1087.02 849.477ZM1053.96 874.178C1062.89 858.787 1068.97 836.558 1064.03 820.217H1099.75C1095 836.558 1100.89 858.787 1109.82 874.178H1083.6C1086.26 870.187 1086.83 865.627 1086.64 862.018C1086.45 858.598 1084.17 856.127 1081.89 856.127C1079.42 856.127 1077.52 858.787 1077.33 862.018C1076.95 865.627 1077.52 870.187 1080.18 874.178H1053.96Z" fill="#E64827"/>
<path d="M1110.64 849.857C1110.64 829.717 1122.99 819.267 1135.91 819.267C1141.99 819.267 1146.93 821.357 1148.83 824.775L1144.27 828.006C1143.13 826.866 1141.61 826.107 1139.71 826.107C1133.44 826.107 1129.07 834.846 1129.07 845.487C1129.07 856.127 1133.25 863.918 1139.33 863.918C1142.56 863.918 1144.65 861.638 1145.6 860.307L1149.97 863.347C1148.64 869.238 1142.37 874.939 1133.06 874.939C1121.09 874.939 1110.64 865.818 1110.64 849.857Z" fill="#E64827"/>
<path d="M1166.93 874.178C1166.93 874.178 1171.3 858.978 1171.3 846.817C1171.3 842.446 1170.73 832.946 1169.97 828.386C1165.79 829.148 1158.19 835.986 1153.82 840.357V820.216H1204.56V840.357C1200 835.986 1192.59 829.148 1188.21 828.386C1187.27 833.517 1187.07 842.826 1187.07 847.577C1187.07 859.548 1190.49 874.178 1190.49 874.178H1166.93Z" fill="#E64827"/>
<path d="M1212.04 851.187C1212.04 846.057 1212.42 839.977 1212.04 836.177C1211.28 828.957 1208.62 820.215 1208.62 820.215H1231.8C1229.14 828.957 1227.62 836.937 1227.62 849.287C1227.62 854.797 1228.76 859.927 1233.7 859.927C1238.45 859.927 1239.4 854.797 1239.59 849.287C1239.97 836.937 1238.45 828.957 1235.41 820.215H1258.59C1258.59 820.215 1255.93 828.767 1255.17 836.177C1254.79 839.977 1255.17 846.057 1255.17 851.187C1255.17 861.638 1250.42 875.127 1233.7 875.127C1216.98 875.127 1212.04 862.397 1212.04 851.187Z" fill="#E64827"/>
<path d="M1262.45 863.348L1266.63 860.308C1267.96 862.588 1270.62 865.248 1274.23 865.248C1277.08 865.248 1279.17 862.968 1279.17 859.358C1279.17 855.177 1276.13 851.758 1271.57 846.248C1267.39 841.308 1264.73 838.077 1264.73 831.996C1264.73 825.346 1270.81 819.266 1282.78 819.266C1290 819.266 1295.13 822.496 1297.03 825.726L1292.66 828.957C1291.71 827.817 1289.81 825.917 1287.34 825.917C1283.73 825.917 1282.02 828.197 1282.02 831.237C1282.02 834.656 1286.58 839.217 1290.19 843.208C1296.08 849.666 1298.36 853.848 1298.36 859.548C1298.36 867.528 1291.71 874.938 1281.07 874.938C1271.38 874.938 1263.97 869.238 1262.45 863.348Z" fill="#E64827"/>
<path d="M769.221 916.098L764.229 901.01L759.237 916.098H769.221ZM771.465 922.884H756.993L754.245 931.242H746L759.125 892.259H769.277L782.404 931.242H774.213L771.465 922.884Z" fill="#E64827"/>
<path d="M810.056 916.49C810.056 911.779 806.86 908.3 802.482 908.3C797.884 908.3 794.8 911.667 794.8 916.49C794.8 921.314 797.884 924.624 802.482 924.624C806.86 924.624 810.056 921.202 810.056 916.49ZM818.302 916.49C818.302 925.296 812.132 931.971 803.605 931.971C800.128 931.971 797.266 930.85 795.136 928.775V941.283H786.834V901.683H794.518V904.935C796.762 902.411 799.96 901.01 803.829 901.01C812.356 901.01 818.302 907.628 818.302 916.49Z" fill="#E64827"/>
<path d="M846.514 916.434C846.514 911.723 843.486 908.412 838.886 908.412C834.286 908.412 831.202 911.723 831.202 916.49C831.202 921.202 834.286 924.568 838.886 924.568C843.374 924.568 846.514 921.202 846.514 916.434ZM822.843 916.49C822.843 907.628 829.463 901.01 838.83 901.01C848.142 901.01 854.817 907.628 854.817 916.49C854.817 925.296 848.142 931.971 838.83 931.971C829.463 931.971 822.843 925.296 822.843 916.49Z" fill="#E64827"/>
<path d="M862.725 920.193V908.75H857.677V901.682H860.2C862.22 901.682 863.23 900.615 863.23 898.485V893.886H871.308V901.682H878.486V908.75H871.026V919.182C871.026 922.325 872.653 924.006 875.57 924.006H878.71V931.242H873.83C866.482 931.242 862.725 926.867 862.725 920.193Z" fill="#E64827"/>
<path d="M912.31 912.62V931.242H904.063V914.246C904.063 910.488 901.596 908.357 898.23 908.357C894.922 908.357 892.34 910.712 892.284 913.742V931.242H883.984V890.24H892.284V903.981C894.304 902.188 897.222 900.953 900.755 900.953C907.823 900.953 912.31 905.72 912.31 912.62Z" fill="#E64827"/>
<path d="M940.467 913.573C939.681 909.704 937.102 907.292 933.287 907.292C929.473 907.292 926.667 909.536 925.827 913.573H940.467ZM933.847 925.072C937.494 925.072 939.345 923.782 940.635 921.426L946.973 925.633C944.673 928.998 940.859 931.972 933.623 931.972C924.033 931.972 917.806 925.297 917.806 916.49C917.806 907.909 924.593 901.009 933.062 901.009C942.598 901.009 948.263 908.469 948.263 915.874C948.263 917.162 948.207 918.285 948.095 919.014H925.939C926.893 922.884 929.922 925.072 933.847 925.072Z" fill="#E64827"/>
<path d="M952.582 916.547C952.582 907.796 959.201 901.01 968.175 901.01C976.197 901.01 981.133 906.282 982.423 910.712L975.018 913.63C974.177 910.544 971.822 908.412 968.343 908.412C964.193 908.412 960.941 911.555 960.941 916.49C960.941 921.426 964.193 924.568 968.343 924.568C971.878 924.568 974.345 922.436 975.187 919.408L982.591 922.38C981.301 926.699 976.365 931.971 968.175 931.971C959.314 931.971 952.582 925.296 952.582 916.547Z" fill="#E64827"/>
<path d="M1009.79 916.49C1009.79 911.667 1006.71 908.3 1002.17 908.3C997.736 908.3 994.538 911.779 994.538 916.49C994.538 921.202 997.736 924.624 1002.17 924.624C1006.71 924.624 1009.79 921.314 1009.79 916.49ZM1017.76 901.683V931.242H1010.08V927.988C1007.94 930.514 1004.86 931.971 1000.99 931.971C992.462 931.971 986.293 925.296 986.293 916.49C986.293 907.628 992.462 901.515 1000.99 901.515C1004.86 901.515 1007.94 902.859 1010.08 905.272V901.683H1017.76Z" fill="#E64827"/>
<path d="M1041.37 900.953V908.75C1036.33 908.75 1033.35 911.049 1033.35 914.976V931.242H1025.05V901.682H1032.9V904.542C1034.92 902.412 1037.9 900.953 1041.37 900.953Z" fill="#E64827"/>
<path d="M1075.98 901.682L1065.1 931.242L1061.45 941.282H1053.26L1057.25 931.242H1054.5L1044.63 901.682H1053.21L1059.88 924.624L1067.4 901.682H1075.98Z" fill="#E64827"/>
</g>
</svg>
