<svg width="607" height="309" viewBox="0 0 607 309" fill="none" xmlns="http://www.w3.org/2000/svg">
<rect width="607" height="309" fill="white"/>
<path d="M280.809 138.708C280.809 149.065 273.963 157.46 265.518 157.46C257.074 157.46 250.229 149.065 250.229 138.708C250.229 128.351 257.074 119.955 265.518 119.955C273.963 119.955 280.809 128.351 280.809 138.708Z" fill="#FF9C96"/>
<path d="M348.027 138.708C348.027 149.065 341.181 157.46 332.737 157.46C324.292 157.46 317.447 149.065 317.447 138.708C317.447 128.351 324.292 119.955 332.737 119.955C341.181 119.955 348.027 128.351 348.027 138.708Z" fill="#FF9C96"/>
<path d="M299.127 190.607C279.756 190.607 260.97 185.66 244.789 176.298L244.649 176.217C242.76 175.123 242.238 172.89 243.483 171.23C244.729 169.569 247.269 169.11 249.159 170.204L249.297 170.285C264.133 178.869 281.363 183.407 299.127 183.407H299.207C316.999 183.393 334.249 178.829 349.092 170.207C350.979 169.111 353.522 169.567 354.769 171.226C356.017 172.885 355.498 175.118 353.61 176.215C337.425 185.616 318.615 190.593 299.214 190.607H299.127Z" fill="#FF9C96"/>
<path d="M386.907 187.868C382.109 197.837 375.24 206.79 366.49 214.479C357.741 222.167 347.553 228.204 336.209 232.421C324.465 236.786 311.989 238.999 299.128 238.999C286.266 238.999 273.791 236.786 262.047 232.421C250.703 228.204 240.515 222.167 231.765 214.479C223.016 206.79 216.146 197.837 211.348 187.868C206.381 177.547 203.863 166.584 203.863 155.281C203.863 143.979 206.381 133.016 211.348 122.695C216.146 112.726 223.016 103.773 231.765 96.0838C240.515 88.3954 250.703 82.3587 262.047 78.1421C273.791 73.7768 286.266 71.5636 299.128 71.5636C311.989 71.5636 324.465 73.7768 336.209 78.1421C347.553 82.3587 357.741 88.3954 366.49 96.0838C375.24 103.773 382.109 112.726 386.907 122.695C391.874 133.016 394.393 143.979 394.393 155.281C394.393 166.584 391.874 177.547 386.907 187.868ZM397.962 191.977C402.19 183.193 404.842 173.999 405.887 164.543L426.255 155.281L405.887 146.02C404.842 136.564 402.19 127.37 397.962 118.586C397.606 117.846 397.238 117.111 396.862 116.38L409.224 99.4221L386.321 100.352C382.928 96.2023 379.143 92.2857 374.978 88.6253C370.812 84.9649 366.356 81.6385 361.634 78.6573L362.692 58.5305L343.394 69.3939C342.563 69.0631 341.727 68.7406 340.885 68.4274C331.264 64.8515 321.21 62.5624 310.875 61.5763C313.985 60.3402 316.79 58.6342 319.22 56.4985C321.817 54.2161 323.856 51.5581 325.281 48.5987C326.755 45.5346 327.503 42.2796 327.503 38.9247C327.503 38.714 327.309 38.5429 327.069 38.5429C323.273 38.5429 319.59 39.193 316.12 40.4747C316.176 39.8556 316.207 39.2334 316.209 38.6086C316.226 35.2816 315.488 32.025 314.016 28.9295C313.923 28.7351 313.669 28.6432 313.447 28.7245C310.212 29.9126 307.31 31.5808 304.806 33.6864C303.445 31.2593 301.644 29.0534 299.435 27.1114C299.265 26.9628 298.99 26.9628 298.821 27.1114C296.611 29.0534 294.81 31.2593 293.449 33.6864C290.945 31.5808 288.043 29.9126 284.808 28.7245C284.587 28.6432 284.332 28.7351 284.24 28.9295C282.768 32.025 282.03 35.2816 282.046 38.6086C282.049 39.2334 282.079 39.8556 282.135 40.4747C278.666 39.193 274.982 38.5429 271.187 38.5429C270.947 38.5429 270.752 38.714 270.752 38.9247C270.752 42.2796 271.5 45.5346 272.975 48.5987C274.399 51.5581 276.438 54.2161 279.036 56.4985C281.465 58.6342 284.27 60.3402 287.38 61.5763C277.045 62.5624 266.991 64.8515 257.371 68.4274C256.528 68.7406 255.692 69.0631 254.861 69.3942L235.564 58.5305L236.621 78.6573C231.9 81.6385 227.443 84.9649 223.278 88.6253C219.112 92.2857 215.327 96.2023 211.935 100.352L189.032 99.4221L201.394 116.38C201.017 117.111 200.65 117.846 200.294 118.586C196.066 127.37 193.414 136.564 192.369 146.02L172 155.281L192.369 164.543C193.414 173.999 196.066 183.193 200.294 191.977C200.65 192.718 201.017 193.452 201.394 194.183L189.032 211.141L211.935 210.211C215.327 214.361 219.112 218.277 223.278 221.937C227.443 225.598 231.899 228.924 236.621 231.905L235.564 252.032L254.861 241.169C255.692 241.5 256.528 241.823 257.371 242.136C267.366 245.851 277.829 248.182 288.589 249.1L299.128 267L309.666 249.1C320.427 248.182 330.889 245.851 340.885 242.136C341.727 241.823 342.563 241.5 343.394 241.169L362.692 252.032L361.634 231.906C366.356 228.924 370.812 225.598 374.978 221.937C379.143 218.277 382.928 214.361 386.321 210.211L409.224 211.141L396.862 194.183C397.238 193.452 397.606 192.718 397.962 191.977Z" fill="#FF9C96"/>
</svg>
