<svg width="482" height="265" viewBox="0 0 482 265" fill="none" xmlns="http://www.w3.org/2000/svg">
<rect width="481.061" height="250" fill="#FB6A61"/>
<path d="M269.833 75.6666H290.667C299.872 75.6666 307.333 83.1285 307.333 92.3333V200.667C307.333 209.872 299.872 217.333 290.667 217.333H190.667C181.462 217.333 174 209.872 174 200.667V92.3333C174 83.1285 181.462 75.6666 190.667 75.6666H211.5" fill="#B19856"/>
<path d="M269.833 75.6666H290.667C299.872 75.6666 307.333 83.1285 307.333 92.3333V200.667C307.333 209.872 299.872 217.333 290.667 217.333H190.667C181.462 217.333 174 209.872 174 200.667V92.3333C174 83.1285 181.462 75.6666 190.667 75.6666H211.5" stroke="black" stroke-width="2" stroke-linecap="round" stroke-linejoin="round"/>
<path d="M212.511 71.6244C214.365 64.2049 221.032 59 228.68 59H252.653C260.302 59 266.967 64.2049 268.822 71.6244L274 92.3333H207.333L212.511 71.6244Z" fill="#523C3C" stroke="black" stroke-width="2" stroke-linecap="round" stroke-linejoin="round"/>
<path d="M215.667 126.333H265.667H215.667Z" fill="#DF5D5D"/>
<path d="M215.667 126.333H265.667" stroke="black" stroke-width="2" stroke-linecap="round"/>
<path d="M215.667 150.333H265.667H215.667Z" fill="#DF5D5D"/>
<path d="M215.667 150.333H265.667" stroke="black" stroke-width="2" stroke-linecap="round"/>
<path d="M215.667 175.667H265.667H215.667Z" fill="#DF5D5D"/>
<path d="M215.667 175.667H265.667" stroke="black" stroke-width="2" stroke-linecap="round"/>
<path d="M9.67294 213L4.47053 194.818H8.66974L11.6793 207.451H11.8303L15.1506 194.818H18.7461L22.0575 207.478H22.2173L25.2269 194.818H29.4261L24.2237 213H20.4773L17.0149 201.113H16.8729L13.4194 213H9.67294ZM36.1622 213.266C34.7595 213.266 33.5521 212.982 32.54 212.414C31.5339 211.84 30.7586 211.029 30.214 209.982C29.6695 208.928 29.3973 207.682 29.3973 206.244C29.3973 204.841 29.6695 203.61 30.214 202.551C30.7586 201.491 31.525 200.666 32.5134 200.074C33.5077 199.482 34.6737 199.186 36.0113 199.186C36.9109 199.186 37.7484 199.331 38.5237 199.621C39.305 199.905 39.9856 200.334 40.5656 200.908C41.1515 201.482 41.6073 202.205 41.9328 203.075C42.2583 203.939 42.4211 204.951 42.4211 206.111V207.15H30.9065V204.806H38.8611C38.8611 204.261 38.7427 203.779 38.5059 203.359C38.2692 202.938 37.9407 202.61 37.5205 202.373C37.1062 202.131 36.6238 202.009 36.0734 202.009C35.4993 202.009 34.9903 202.142 34.5464 202.409C34.1085 202.669 33.7652 203.021 33.5166 203.465C33.268 203.903 33.1408 204.391 33.1349 204.93V207.158C33.1349 207.833 33.2591 208.416 33.5077 208.907C33.7622 209.399 34.1203 209.777 34.5819 210.044C35.0436 210.31 35.5911 210.443 36.2243 210.443C36.6446 210.443 37.0293 210.384 37.3785 210.266C37.7277 210.147 38.0265 209.97 38.2751 209.733C38.5237 209.496 38.7131 209.206 38.8433 208.863L42.3412 209.094C42.1636 209.934 41.7996 210.668 41.2492 211.295C40.7047 211.917 40.0004 212.402 39.1363 212.751C38.2781 213.095 37.2867 213.266 36.1622 213.266ZM44.9601 213V194.818H48.7421V201.654H48.8575C49.0232 201.287 49.2629 200.914 49.5766 200.536C49.8962 200.151 50.3105 199.831 50.8195 199.577C51.3344 199.316 51.9736 199.186 52.7371 199.186C53.7314 199.186 54.6488 199.446 55.4893 199.967C56.3297 200.482 57.0015 201.261 57.5045 202.302C58.0076 203.338 58.2591 204.637 58.2591 206.2C58.2591 207.721 58.0135 209.005 57.5223 210.053C57.037 211.094 56.3741 211.884 55.5336 212.423C54.6991 212.956 53.764 213.222 52.7282 213.222C51.9943 213.222 51.3699 213.101 50.855 212.858C50.346 212.615 49.9288 212.31 49.6032 211.944C49.2777 211.571 49.0291 211.195 48.8575 210.816H48.6888V213H44.9601ZM48.6622 206.182C48.6622 206.993 48.7747 207.7 48.9996 208.304C49.2245 208.907 49.55 209.378 49.9761 209.715C50.4023 210.047 50.9201 210.212 51.5297 210.212C52.1453 210.212 52.6661 210.044 53.0922 209.706C53.5184 209.363 53.8409 208.89 54.0599 208.286C54.2848 207.676 54.3973 206.975 54.3973 206.182C54.3973 205.395 54.2878 204.702 54.0688 204.104C53.8498 203.507 53.5273 203.039 53.1011 202.702C52.675 202.364 52.1512 202.196 51.5297 202.196C50.9142 202.196 50.3934 202.358 49.9672 202.684C49.547 203.009 49.2245 203.471 48.9996 204.069C48.7747 204.667 48.6622 205.371 48.6622 206.182ZM72.1286 203.252L68.6662 203.465C68.607 203.169 68.4798 202.903 68.2844 202.666C68.0891 202.424 67.8317 202.231 67.5121 202.089C67.1984 201.941 66.8226 201.867 66.3846 201.867C65.7987 201.867 65.3045 201.991 64.902 202.24C64.4995 202.483 64.2983 202.808 64.2983 203.217C64.2983 203.542 64.4285 203.817 64.6889 204.042C64.9493 204.267 65.3962 204.448 66.0295 204.584L68.4975 205.081C69.8233 205.353 70.8117 205.791 71.4627 206.395C72.1138 206.999 72.4393 207.792 72.4393 208.774C72.4393 209.668 72.1759 210.452 71.6491 211.127C71.1283 211.801 70.4122 212.328 69.5007 212.707C68.5952 213.08 67.5505 213.266 66.3668 213.266C64.5617 213.266 63.1235 212.891 62.0522 212.139C60.9869 211.381 60.3625 210.351 60.179 209.049L63.8988 208.854C64.0112 209.404 64.2835 209.825 64.7156 210.115C65.1476 210.399 65.701 210.541 66.3757 210.541C67.0386 210.541 67.5713 210.414 67.9737 210.159C68.3821 209.899 68.5893 209.564 68.5952 209.156C68.5893 208.813 68.4442 208.531 68.1602 208.312C67.8761 208.088 67.4381 207.916 66.8462 207.798L64.4847 207.327C63.1531 207.061 62.1617 206.599 61.5107 205.942C60.8655 205.285 60.543 204.448 60.543 203.43C60.543 202.554 60.7797 201.799 61.2532 201.166C61.7326 200.533 62.4044 200.044 63.2685 199.701C64.1385 199.358 65.1565 199.186 66.3224 199.186C68.0447 199.186 69.4001 199.55 70.3885 200.278C71.3828 201.006 71.9628 201.997 72.1286 203.252ZM74.8208 213V199.364H78.6027V213H74.8208ZM76.7206 197.606C76.1584 197.606 75.676 197.419 75.2735 197.047C74.877 196.668 74.6787 196.215 74.6787 195.688C74.6787 195.167 74.877 194.721 75.2735 194.348C75.676 193.969 76.1584 193.779 76.7206 193.779C77.2829 193.779 77.7623 193.969 78.1588 194.348C78.5613 194.721 78.7625 195.167 78.7625 195.688C78.7625 196.215 78.5613 196.668 78.1588 197.047C77.7623 197.419 77.2829 197.606 76.7206 197.606ZM88.8855 199.364V202.205H80.6735V199.364H88.8855ZM82.5378 196.097H86.3198V208.81C86.3198 209.159 86.373 209.431 86.4796 209.626C86.5861 209.816 86.7341 209.949 86.9235 210.026C87.1188 210.103 87.3437 210.141 87.5982 210.141C87.7757 210.141 87.9533 210.127 88.1309 210.097C88.3084 210.061 88.4445 210.035 88.5392 210.017L89.1341 212.831C88.9447 212.891 88.6783 212.959 88.335 213.036C87.9918 213.118 87.5745 213.169 87.0833 213.186C86.1718 213.222 85.3728 213.101 84.6863 212.822C84.0056 212.544 83.4759 212.112 83.0971 211.526C82.7183 210.94 82.5319 210.201 82.5378 209.307V196.097ZM97.4171 213.266C96.0144 213.266 94.807 212.982 93.7949 212.414C92.7888 211.84 92.0134 211.029 91.4689 209.982C90.9244 208.928 90.6522 207.682 90.6522 206.244C90.6522 204.841 90.9244 203.61 91.4689 202.551C92.0134 201.491 92.7799 200.666 93.7683 200.074C94.7626 199.482 95.9286 199.186 97.2662 199.186C98.1658 199.186 99.0033 199.331 99.7786 199.621C100.56 199.905 101.24 200.334 101.82 200.908C102.406 201.482 102.862 202.205 103.188 203.075C103.513 203.939 103.676 204.951 103.676 206.111V207.15H92.1614V204.806H100.116C100.116 204.261 99.9976 203.779 99.7608 203.359C99.5241 202.938 99.1956 202.61 98.7754 202.373C98.3611 202.131 97.8787 202.009 97.3283 202.009C96.7542 202.009 96.2452 202.142 95.8013 202.409C95.3633 202.669 95.0201 203.021 94.7715 203.465C94.5229 203.903 94.3957 204.391 94.3897 204.93V207.158C94.3897 207.833 94.514 208.416 94.7626 208.907C95.0171 209.399 95.3752 209.777 95.8368 210.044C96.2985 210.31 96.8459 210.443 97.4792 210.443C97.8994 210.443 98.2842 210.384 98.6333 210.266C98.9825 210.147 99.2814 209.97 99.53 209.733C99.7786 209.496 99.968 209.206 100.098 208.863L103.596 209.094C103.419 209.934 103.055 210.668 102.504 211.295C101.96 211.917 101.255 212.402 100.391 212.751C99.533 213.095 98.5416 213.266 97.4171 213.266ZM114.64 204.033V207.034H106.348V204.033H114.64ZM4.88778 227.988V224.818H19.8203V227.988H14.2539V243H10.4542V227.988H4.88778ZM26.3921 243.266C25.0131 243.266 23.8205 242.973 22.8144 242.387C21.8141 241.796 21.0418 240.973 20.4972 239.919C19.9527 238.86 19.6805 237.632 19.6805 236.235C19.6805 234.826 19.9527 233.595 20.4972 232.542C21.0418 231.482 21.8141 230.66 22.8144 230.074C23.8205 229.482 25.0131 229.186 26.3921 229.186C27.7712 229.186 28.9608 229.482 29.961 230.074C30.9672 230.66 31.7425 231.482 32.287 232.542C32.8315 233.595 33.1038 234.826 33.1038 236.235C33.1038 237.632 32.8315 238.86 32.287 239.919C31.7425 240.973 30.9672 241.796 29.961 242.387C28.9608 242.973 27.7712 243.266 26.3921 243.266ZM26.4099 240.337C27.0373 240.337 27.5611 240.159 27.9813 239.804C28.4015 239.443 28.7181 238.952 28.9312 238.33C29.1502 237.709 29.2597 237.002 29.2597 236.208C29.2597 235.415 29.1502 234.708 28.9312 234.087C28.7181 233.465 28.4015 232.974 27.9813 232.613C27.5611 232.252 27.0373 232.071 26.4099 232.071C25.7766 232.071 25.2439 232.252 24.8119 232.613C24.3857 232.974 24.0632 233.465 23.8442 234.087C23.6311 234.708 23.5246 235.415 23.5246 236.208C23.5246 237.002 23.6311 237.709 23.8442 238.33C24.0632 238.952 24.3857 239.443 24.8119 239.804C25.2439 240.159 25.7766 240.337 26.4099 240.337ZM40.5878 243.222C39.5521 243.222 38.614 242.956 37.7735 242.423C36.939 241.884 36.2761 241.094 35.7849 240.053C35.2996 239.005 35.0569 237.721 35.0569 236.2C35.0569 234.637 35.3084 233.338 35.8115 232.302C36.3146 231.261 36.9834 230.482 37.8179 229.967C38.6584 229.446 39.5787 229.186 40.5789 229.186C41.3424 229.186 41.9787 229.316 42.4877 229.577C43.0026 229.831 43.4169 230.151 43.7306 230.536C44.0502 230.914 44.2928 231.287 44.4585 231.654H44.574V224.818H48.347V243H44.6183V240.816H44.4585C44.281 241.195 44.0294 241.571 43.7039 241.944C43.3843 242.31 42.9671 242.615 42.4521 242.858C41.9432 243.101 41.3217 243.222 40.5878 243.222ZM41.7863 240.212C42.3959 240.212 42.9108 240.047 43.3311 239.715C43.7572 239.378 44.0827 238.907 44.3076 238.304C44.5384 237.7 44.6539 236.993 44.6539 236.182C44.6539 235.371 44.5414 234.667 44.3165 234.069C44.0916 233.471 43.7661 233.009 43.3399 232.684C42.9138 232.358 42.3959 232.196 41.7863 232.196C41.1649 232.196 40.6411 232.364 40.2149 232.702C39.7888 233.039 39.4662 233.507 39.2472 234.104C39.0283 234.702 38.9188 235.395 38.9188 236.182C38.9188 236.975 39.0283 237.676 39.2472 238.286C39.4722 238.89 39.7947 239.363 40.2149 239.706C40.6411 240.044 41.1649 240.212 41.7863 240.212ZM57.6177 243.266C56.2387 243.266 55.0461 242.973 54.04 242.387C53.0397 241.796 52.2673 240.973 51.7228 239.919C51.1783 238.86 50.9061 237.632 50.9061 236.235C50.9061 234.826 51.1783 233.595 51.7228 232.542C52.2673 231.482 53.0397 230.66 54.04 230.074C55.0461 229.482 56.2387 229.186 57.6177 229.186C58.9967 229.186 60.1864 229.482 61.1866 230.074C62.1928 230.66 62.9681 231.482 63.5126 232.542C64.0571 233.595 64.3294 234.826 64.3294 236.235C64.3294 237.632 64.0571 238.86 63.5126 239.919C62.9681 240.973 62.1928 241.796 61.1866 242.387C60.1864 242.973 58.9967 243.266 57.6177 243.266ZM57.6355 240.337C58.2628 240.337 58.7866 240.159 59.2069 239.804C59.6271 239.443 59.9437 238.952 60.1568 238.33C60.3758 237.709 60.4853 237.002 60.4853 236.208C60.4853 235.415 60.3758 234.708 60.1568 234.087C59.9437 233.465 59.6271 232.974 59.2069 232.613C58.7866 232.252 58.2628 232.071 57.6355 232.071C57.0022 232.071 56.4695 232.252 56.0375 232.613C55.6113 232.974 55.2888 233.465 55.0698 234.087C54.8567 234.708 54.7502 235.415 54.7502 236.208C54.7502 237.002 54.8567 237.709 55.0698 238.33C55.2888 238.952 55.6113 239.443 56.0375 239.804C56.4695 240.159 57.0022 240.337 57.6355 240.337ZM78.1344 233.252L74.6721 233.465C74.6129 233.169 74.4856 232.903 74.2903 232.666C74.095 232.424 73.8375 232.231 73.5179 232.089C73.2042 231.941 72.8284 231.867 72.3904 231.867C71.8045 231.867 71.3103 231.991 70.9078 232.24C70.5054 232.483 70.3042 232.808 70.3042 233.217C70.3042 233.542 70.4344 233.817 70.6948 234.042C70.9552 234.267 71.402 234.448 72.0353 234.584L74.5034 235.081C75.8291 235.353 76.8175 235.791 77.4686 236.395C78.1196 236.999 78.4451 237.792 78.4451 238.774C78.4451 239.668 78.1818 240.452 77.655 241.127C77.1342 241.801 76.418 242.328 75.5066 242.707C74.601 243.08 73.5564 243.266 72.3727 243.266C70.5675 243.266 69.1293 242.891 68.0581 242.139C66.9927 241.381 66.3683 240.351 66.1848 239.049L69.9047 238.854C70.0171 239.404 70.2894 239.825 70.7214 240.115C71.1535 240.399 71.7069 240.541 72.3816 240.541C73.0444 240.541 73.5771 240.414 73.9796 240.159C74.388 239.899 74.5951 239.564 74.601 239.156C74.5951 238.813 74.4501 238.531 74.166 238.312C73.8819 238.088 73.444 237.916 72.8521 237.798L70.4906 237.327C69.1589 237.061 68.1676 236.599 67.5165 235.942C66.8714 235.285 66.5488 234.448 66.5488 233.43C66.5488 232.554 66.7856 231.799 67.2591 231.166C67.7385 230.533 68.4102 230.044 69.2743 229.701C70.1444 229.358 71.1623 229.186 72.3283 229.186C74.0506 229.186 75.406 229.55 76.3944 230.278C77.3887 231.006 77.9687 231.997 78.1344 233.252Z" fill="white"/>
</svg>
