<svg width="482" height="250" viewBox="0 0 482 250" fill="none" xmlns="http://www.w3.org/2000/svg">
<rect width="481.061" height="250" fill="#A891E9"/>
<path d="M193.277 73.9503L196.987 55.3981C198.545 47.6077 205.385 42 213.33 42H269.337C277.282 42 284.122 47.6077 285.68 55.3981L289.39 73.9503C290.577 79.8838 295.076 84.6023 300.946 86.0699C314.887 89.5551 324.667 102.081 324.667 116.451V175.333C324.667 193.743 309.743 208.667 291.333 208.667H191.333C172.924 208.667 158 193.743 158 175.333V116.451C158 102.081 167.78 89.5551 181.72 86.0699C187.591 84.6023 192.09 79.8838 193.277 73.9503Z" fill="#FFDADA" stroke="black" stroke-width="2" stroke-linecap="round" stroke-linejoin="round"/>
<path d="M241.333 175.333C259.743 175.333 274.667 160.409 274.667 142C274.667 123.59 259.743 108.667 241.333 108.667C222.924 108.667 208 123.59 208 142C208 160.409 222.924 175.333 241.333 175.333Z" fill="#FFDADA" stroke="black" stroke-width="2" stroke-linecap="round" stroke-linejoin="round"/>
<path d="M233 75.3334H249.667Z" fill="#FFDADA"/>
<path d="M233 75.3334H249.667" stroke="black" stroke-width="2" stroke-linecap="round" stroke-linejoin="round"/>
<path d="M7.86506 225.818L12.2596 239.632H12.4283L16.8317 225.818H21.093L14.8253 244H9.87145L3.59482 225.818H7.86506ZM23.2104 244V230.364H26.9924V244H23.2104ZM25.1103 228.606C24.548 228.606 24.0656 228.419 23.6632 228.047C23.2666 227.668 23.0684 227.215 23.0684 226.688C23.0684 226.167 23.2666 225.721 23.6632 225.348C24.0656 224.969 24.548 224.779 25.1103 224.779C25.6725 224.779 26.1519 224.969 26.5485 225.348C26.9509 225.721 27.1522 226.167 27.1522 226.688C27.1522 227.215 26.9509 227.668 26.5485 228.047C26.1519 228.419 25.6725 228.606 25.1103 228.606ZM41.3678 234.252L37.9055 234.465C37.8463 234.169 37.719 233.903 37.5237 233.666C37.3284 233.424 37.0709 233.231 36.7513 233.089C36.4376 232.941 36.0618 232.867 35.6238 232.867C35.0379 232.867 34.5437 232.991 34.1412 233.24C33.7388 233.483 33.5376 233.808 33.5376 234.217C33.5376 234.542 33.6678 234.817 33.9282 235.042C34.1886 235.267 34.6354 235.448 35.2687 235.584L37.7368 236.081C39.0625 236.353 40.0509 236.791 40.702 237.395C41.353 237.999 41.6785 238.792 41.6785 239.774C41.6785 240.668 41.4152 241.452 40.8884 242.127C40.3676 242.801 39.6514 243.328 38.74 243.707C37.8344 244.08 36.7898 244.266 35.6061 244.266C33.8009 244.266 32.3627 243.891 31.2915 243.139C30.2261 242.381 29.6017 241.351 29.4182 240.049L33.1381 239.854C33.2505 240.404 33.5228 240.825 33.9548 241.115C34.3869 241.399 34.9403 241.541 35.615 241.541C36.2778 241.541 36.8105 241.414 37.213 241.159C37.6214 240.899 37.8285 240.564 37.8344 240.156C37.8285 239.813 37.6835 239.531 37.3994 239.312C37.1153 239.088 36.6773 238.916 36.0855 238.798L33.724 238.327C32.3923 238.061 31.401 237.599 30.7499 236.942C30.1048 236.285 29.7822 235.448 29.7822 234.43C29.7822 233.554 30.019 232.799 30.4925 232.166C30.9719 231.533 31.6436 231.044 32.5077 230.701C33.3778 230.358 34.3957 230.186 35.5617 230.186C37.284 230.186 38.6394 230.55 39.6278 231.278C40.6221 232.006 41.2021 232.997 41.3678 234.252ZM52.8047 238.194V230.364H56.5866V244H52.9556V241.523H52.8136C52.5058 242.322 51.9938 242.964 51.2777 243.45C50.5675 243.935 49.7004 244.178 48.6765 244.178C47.765 244.178 46.9631 243.97 46.2706 243.556C45.5781 243.142 45.0366 242.553 44.646 241.789C44.2612 241.026 44.0659 240.112 44.06 239.046V230.364H47.842V238.371C47.8479 239.176 48.0639 239.813 48.4901 240.28C48.9162 240.748 49.4873 240.982 50.2035 240.982C50.6592 240.982 51.0853 240.878 51.4819 240.671C51.8784 240.458 52.198 240.144 52.4407 239.73C52.6893 239.315 52.8106 238.804 52.8047 238.194ZM63.5003 244.257C62.6302 244.257 61.8549 244.107 61.1743 243.805C60.4936 243.497 59.955 243.044 59.5585 242.446C59.1679 241.843 58.9726 241.091 58.9726 240.191C58.9726 239.434 59.1117 238.798 59.3898 238.283C59.668 237.768 60.0468 237.353 60.5262 237.04C61.0056 236.726 61.5501 236.489 62.1597 236.33C62.7752 236.17 63.4204 236.057 64.0951 235.992C64.8882 235.909 65.5274 235.832 66.0127 235.761C66.498 235.684 66.8502 235.572 67.0692 235.424C67.2881 235.276 67.3976 235.057 67.3976 234.767V234.714C67.3976 234.152 67.2201 233.717 66.865 233.409C66.5158 233.101 66.0186 232.947 65.3735 232.947C64.6929 232.947 64.1513 233.098 63.7488 233.4C63.3464 233.696 63.08 234.069 62.9498 234.518L59.452 234.234C59.6295 233.406 59.9787 232.69 60.4996 232.086C61.0204 231.476 61.6921 231.009 62.5148 230.683C63.3434 230.352 64.3022 230.186 65.3912 230.186C66.1488 230.186 66.8738 230.275 67.5663 230.452C68.2647 230.63 68.8832 230.905 69.4218 231.278C69.9663 231.651 70.3954 232.13 70.7091 232.716C71.0228 233.296 71.1796 233.992 71.1796 234.803V244H67.593V242.109H67.4864C67.2674 242.535 66.9745 242.911 66.6075 243.237C66.2406 243.556 65.7996 243.808 65.2847 243.991C64.7698 244.169 64.175 244.257 63.5003 244.257ZM64.5834 241.647C65.1397 241.647 65.6309 241.538 66.0571 241.319C66.4832 241.094 66.8176 240.792 67.0603 240.413C67.3029 240.035 67.4243 239.605 67.4243 239.126V237.679C67.3059 237.756 67.1431 237.827 66.936 237.892C66.7348 237.951 66.5069 238.007 66.2524 238.061C65.9979 238.108 65.7434 238.152 65.4889 238.194C65.2344 238.229 65.0036 238.262 64.7964 238.292C64.3525 238.357 63.9649 238.46 63.6334 238.602C63.302 238.744 63.0445 238.937 62.8611 239.179C62.6776 239.416 62.5858 239.712 62.5858 240.067C62.5858 240.582 62.7723 240.976 63.1452 241.248C63.5239 241.514 64.0033 241.647 64.5834 241.647ZM77.8957 225.818V244H74.1137V225.818H77.8957ZM86.7824 225.818H91.5232L96.5303 238.034H96.7433L101.75 225.818H106.491V244H102.763V232.166H102.612L97.9063 243.911H95.3673L90.662 232.121H90.5111V244H86.7824V225.818ZM115.802 244.266C114.399 244.266 113.192 243.982 112.18 243.414C111.174 242.84 110.398 242.029 109.854 240.982C109.309 239.928 109.037 238.682 109.037 237.244C109.037 235.841 109.309 234.61 109.854 233.551C110.398 232.491 111.165 231.666 112.153 231.074C113.147 230.482 114.313 230.186 115.651 230.186C116.551 230.186 117.388 230.331 118.163 230.621C118.945 230.905 119.625 231.334 120.205 231.908C120.791 232.482 121.247 233.205 121.572 234.075C121.898 234.939 122.061 235.951 122.061 237.111V238.15H110.546V235.806H118.501C118.501 235.261 118.382 234.779 118.146 234.359C117.909 233.938 117.58 233.61 117.16 233.373C116.746 233.131 116.263 233.009 115.713 233.009C115.139 233.009 114.63 233.142 114.186 233.409C113.748 233.669 113.405 234.021 113.156 234.465C112.908 234.903 112.78 235.391 112.775 235.93V238.158C112.775 238.833 112.899 239.416 113.147 239.907C113.402 240.399 113.76 240.777 114.222 241.044C114.683 241.31 115.231 241.443 115.864 241.443C116.284 241.443 116.669 241.384 117.018 241.266C117.367 241.147 117.666 240.97 117.915 240.733C118.163 240.496 118.353 240.206 118.483 239.863L121.981 240.094C121.803 240.934 121.439 241.668 120.889 242.295C120.344 242.917 119.64 243.402 118.776 243.751C117.918 244.095 116.926 244.266 115.802 244.266ZM129.554 244.222C128.518 244.222 127.58 243.956 126.739 243.423C125.905 242.884 125.242 242.094 124.751 241.053C124.265 240.005 124.023 238.721 124.023 237.2C124.023 235.637 124.274 234.338 124.777 233.302C125.28 232.261 125.949 231.482 126.784 230.967C127.624 230.446 128.545 230.186 129.545 230.186C130.308 230.186 130.944 230.316 131.453 230.577C131.968 230.831 132.383 231.151 132.696 231.536C133.016 231.914 133.259 232.287 133.424 232.654H133.54V225.818H137.313V244H133.584V241.816H133.424C133.247 242.195 132.995 242.571 132.67 242.944C132.35 243.31 131.933 243.615 131.418 243.858C130.909 244.101 130.288 244.222 129.554 244.222ZM130.752 241.212C131.362 241.212 131.877 241.047 132.297 240.715C132.723 240.378 133.049 239.907 133.273 239.304C133.504 238.7 133.62 237.993 133.62 237.182C133.62 236.371 133.507 235.667 133.282 235.069C133.057 234.471 132.732 234.009 132.306 233.684C131.88 233.358 131.362 233.196 130.752 233.196C130.131 233.196 129.607 233.364 129.181 233.702C128.755 234.039 128.432 234.507 128.213 235.104C127.994 235.702 127.885 236.395 127.885 237.182C127.885 237.975 127.994 238.676 128.213 239.286C128.438 239.89 128.761 240.363 129.181 240.706C129.607 241.044 130.131 241.212 130.752 241.212ZM140.422 244V230.364H144.204V244H140.422ZM142.322 228.606C141.76 228.606 141.278 228.419 140.875 228.047C140.479 227.668 140.28 227.215 140.28 226.688C140.28 226.167 140.479 225.721 140.875 225.348C141.278 224.969 141.76 224.779 142.322 224.779C142.884 224.779 143.364 224.969 143.76 225.348C144.163 225.721 144.364 226.167 144.364 226.688C144.364 227.215 144.163 227.668 143.76 228.047C143.364 228.419 142.884 228.606 142.322 228.606ZM151.122 244.257C150.252 244.257 149.477 244.107 148.796 243.805C148.116 243.497 147.577 243.044 147.181 242.446C146.79 241.843 146.595 241.091 146.595 240.191C146.595 239.434 146.734 238.798 147.012 238.283C147.29 237.768 147.669 237.353 148.148 237.04C148.628 236.726 149.172 236.489 149.782 236.33C150.397 236.17 151.042 236.057 151.717 235.992C152.51 235.909 153.149 235.832 153.635 235.761C154.12 235.684 154.472 235.572 154.691 235.424C154.91 235.276 155.02 235.057 155.02 234.767V234.714C155.02 234.152 154.842 233.717 154.487 233.409C154.138 233.101 153.641 232.947 152.996 232.947C152.315 232.947 151.773 233.098 151.371 233.4C150.968 233.696 150.702 234.069 150.572 234.518L147.074 234.234C147.252 233.406 147.601 232.69 148.122 232.086C148.642 231.476 149.314 231.009 150.137 230.683C150.965 230.352 151.924 230.186 153.013 230.186C153.771 230.186 154.496 230.275 155.188 230.452C155.887 230.63 156.505 230.905 157.044 231.278C157.588 231.651 158.017 232.13 158.331 232.716C158.645 233.296 158.802 233.992 158.802 234.803V244H155.215V242.109H155.108C154.89 242.535 154.597 242.911 154.23 243.237C153.863 243.556 153.422 243.808 152.907 243.991C152.392 244.169 151.797 244.257 151.122 244.257ZM152.205 241.647C152.762 241.647 153.253 241.538 153.679 241.319C154.105 241.094 154.44 240.792 154.682 240.413C154.925 240.035 155.046 239.605 155.046 239.126V237.679C154.928 237.756 154.765 237.827 154.558 237.892C154.357 237.951 154.129 238.007 153.874 238.061C153.62 238.108 153.365 238.152 153.111 238.194C152.856 238.229 152.626 238.262 152.419 238.292C151.975 238.357 151.587 238.46 151.256 238.602C150.924 238.744 150.667 238.937 150.483 239.179C150.3 239.416 150.208 239.712 150.208 240.067C150.208 240.582 150.394 240.976 150.767 241.248C151.146 241.514 151.625 241.647 152.205 241.647Z" fill="white"/>
<ellipse cx="241.5" cy="142" rx="33.5" ry="33" fill="#48576F"/>
</svg>
