<svg width="50" height="71" viewBox="0 0 50 71" fill="none" xmlns="http://www.w3.org/2000/svg">
<rect y="45.341" width="5.69692" height="7.37171" fill="#D3A632"/>
<rect x="7.59589" y="45.341" width="5.69692" height="7.37171" fill="#D3A632"/>
<rect x="15.1917" y="45.341" width="5.69692" height="7.37171" fill="#D3A632"/>
<rect x="7.59589" y="54.187" width="5.69692" height="7.37171" fill="#D3A632"/>
<rect x="7.59589" y="63.0331" width="5.69692" height="7.37171" fill="#D3A632"/>
<rect x="22.7875" y="45.341" width="5.69692" height="7.37171" fill="#D3A632"/>
<rect x="30.3833" y="45.341" width="5.69692" height="7.37171" fill="#D3A632"/>
<rect x="30.3833" y="54.187" width="5.69692" height="7.37171" fill="#D3A632"/>
<rect x="30.3833" y="63.0331" width="5.69692" height="7.37171" fill="#D3A632"/>
<rect x="30.3833" y="36.4948" width="5.69692" height="7.37171" fill="#D3A632"/>
<rect x="22.7875" y="36.4948" width="5.69692" height="7.37171" fill="#D3A632"/>
<rect x="22.7875" y="54.187" width="5.69692" height="7.37171" fill="#D3A632"/>
<rect x="22.7875" y="63.0331" width="5.69692" height="7.37171" fill="#D3A632"/>
<rect x="15.1917" y="63.0331" width="5.69692" height="7.37171" fill="#D3A632"/>
<rect x="22.7875" y="27.6487" width="5.69692" height="7.37171" fill="#D3A632"/>
<rect x="18.9893" y="18.8027" width="5.69692" height="7.37171" fill="#D3A632"/>
<rect x="15.1917" y="36.4948" width="5.69692" height="7.37171" fill="#D3A632"/>
<rect x="15.1917" y="54.187" width="5.69692" height="7.37171" fill="#D3A632"/>
<rect x="7.59589" y="36.4948" width="5.69692" height="7.37171" fill="#D3A632"/>
<rect x="15.1917" y="27.6487" width="5.69692" height="7.37171" fill="#D3A632"/>
<rect x="37.9793" y="45.341" width="5.69692" height="7.37171" fill="#D3A632"/>
<rect x="50" y="44.1821" width="0.84317" height="46.3744" transform="rotate(90 50 44.1821)" fill="#D3A632"/>
<rect x="21.5009" width="0.84317" height="56.8297" fill="#D3A632"/>
</svg>
